<?xml version="1.0" encoding="utf-8"?>
<!-- Created with sK1 2.0rc3 (http://sk1project.net/) -->
<svg xmlns:rdf="http://www.w3.org/1999/02/22-rdf-syntax-ns#" xmlns="http://www.w3.org/2000/svg" xmlns:svg="http://www.w3.org/2000/svg" height="93.5433070866" viewBox="0 0 317.480314961 93.5433070866" width="317.480314961" version="1.1" xmlns:cc="http://creativecommons.org/ns#" xmlns:xlink="http://www.w3.org/1999/xlink" id="svg2" xmlns:dc="http://purl.org/dc/elements/1.1/">
<defs id="defs1">
	<linearGradient y2="-15.3353022749" spreadMethod="pad" gradientUnits="userSpaceOnUse" x2="316.057754013" y1="-15.3353022749" x1="260.992658308" id="grad1">
		<stop style="stop-color:#000000;stop-opacity:0.0;" offset="0.0" />
		<stop style="stop-color:#000000;stop-opacity:0.117647054298;" offset="0.89999998" />
		<stop style="stop-color:#000000;stop-opacity:0.23999999;" offset="1.0" />
	</linearGradient>
	<linearGradient y2="55.3718495202" spreadMethod="pad" gradientUnits="userSpaceOnUse" x2="155.784798331" y1="55.3718495202" x1="87.4642622719" id="grad2">
		<stop style="stop-color:#00ccff;stop-opacity:1.0;" offset="0.0" />
		<stop style="stop-color:#6666ff;stop-opacity:1.0;" offset="1.0" />
	</linearGradient>
	<linearGradient y2="55.3718102875" spreadMethod="pad" gradientUnits="userSpaceOnUse" x2="224.105282136" y1="55.3718102875" x1="155.784809278" id="grad3">
		<stop style="stop-color:#6666ff;stop-opacity:1.0;" offset="0.0" />
		<stop style="stop-color:#003399;stop-opacity:1.0;" offset="1.0" />
	</linearGradient>
	<linearGradient y2="24.2804398978" spreadMethod="pad" gradientUnits="userSpaceOnUse" x2="155.784798331" y1="24.2804398978" x1="87.4642622719" id="grad4">
		<stop style="stop-color:#00ccff;stop-opacity:1.0;" offset="0.0" />
		<stop style="stop-color:#6666ff;stop-opacity:1.0;" offset="1.0" />
	</linearGradient>
	<linearGradient y2="24.2804209918" spreadMethod="pad" gradientUnits="userSpaceOnUse" x2="224.105282136" y1="24.2804209918" x1="155.784809278" id="grad5">
		<stop style="stop-color:#6666ff;stop-opacity:1.0;" offset="0.0" />
		<stop style="stop-color:#003399;stop-opacity:1.0;" offset="1.0" />
	</linearGradient>
	<linearGradient y2="-15.3353022749" spreadMethod="pad" gradientUnits="userSpaceOnUse" x2="316.057754013" y1="-15.3353022749" x1="260.992658308" id="grad6">
		<stop style="stop-color:#000000;stop-opacity:0.0;" offset="0.0" />
		<stop style="stop-color:#000000;stop-opacity:0.117647054298;" offset="0.89999998" />
		<stop style="stop-color:#000000;stop-opacity:0.23999999;" offset="1.0" />
	</linearGradient>
	<linearGradient y2="-15.3353022749" spreadMethod="pad" gradientUnits="userSpaceOnUse" x2="316.057754013" y1="-15.3353022749" x1="260.992658308" id="grad7">
		<stop style="stop-color:#000000;stop-opacity:0.0;" offset="0.0" />
		<stop style="stop-color:#000000;stop-opacity:0.117647054298;" offset="0.89999998" />
		<stop style="stop-color:#000000;stop-opacity:0.23999999;" offset="1.0" />
	</linearGradient>
	<linearGradient y2="76.2099748187" spreadMethod="pad" gradientUnits="userSpaceOnUse" x2="0.313556048772" y1="76.2099748187" x1="59.3601736681" id="grad8">
		<stop style="stop-color:#000000;stop-opacity:0.0;" offset="0.0" />
		<stop style="stop-color:#000000;stop-opacity:0.117647054298;" offset="0.89999998" />
		<stop style="stop-color:#000000;stop-opacity:0.23999999;" offset="1.0" />
	</linearGradient>
	<linearGradient y2="45.1147829645" spreadMethod="pad" gradientUnits="userSpaceOnUse" x2="0.313556048772" y1="45.1147829645" x1="59.3601736681" id="grad9">
		<stop style="stop-color:#000000;stop-opacity:0.0;" offset="0.0" />
		<stop style="stop-color:#000000;stop-opacity:0.117647054298;" offset="0.89999998" />
		<stop style="stop-color:#000000;stop-opacity:0.23999999;" offset="1.0" />
	</linearGradient>
	<linearGradient y2="14.0195911103" spreadMethod="pad" gradientUnits="userSpaceOnUse" x2="0.313556048772" y1="14.0195911103" x1="59.3601736681" id="grad10">
		<stop style="stop-color:#000000;stop-opacity:0.0;" offset="0.0" />
		<stop style="stop-color:#000000;stop-opacity:0.117647054298;" offset="0.89999998" />
		<stop style="stop-color:#000000;stop-opacity:0.23999999;" offset="1.0" />
	</linearGradient>
</defs>
<g>
	<g>
		<path style="stroke:#000000;stroke-width:0.44;stroke-miterlimit:4.0;stroke-opacity:0.23999999;fill:url(#grad1);" d="M 257.8958,31.2347 L 257.8958,62.3277 316.5839,62.3277 316.5839,31.2347 257.8958,31.2347 Z" />
		<path style="stroke:#000000;stroke-width:0.441;stroke-miterlimit:4.0;fill:none;" d="M 59.5807,62.325 L 59.5807,93.4166 257.8048,93.4166 257.8048,62.325 59.5807,62.325 Z" />
		<path style="stroke:#000000;stroke-width:0.441;stroke-miterlimit:4.0;fill:none;" d="M 59.5807,31.2337 L 59.5807,62.3251 257.8048,62.3251 257.8048,31.2337 59.5807,31.2337 Z" />
		<path style="stroke:#000000;stroke-width:0.441;stroke-miterlimit:4.0;fill:none;" d="M 59.5807,0.1422 L 59.5807,31.2338 257.8048,31.2338 257.8048,0.1422 59.5807,0.1422 Z" />
		<path style="fill:url(#grad2);" d="M 87.4643,55.3718 L 87.4643,69.9186 155.7848,69.9186 155.7848,55.3718 87.4643,55.3718 Z" />
		<path style="fill:url(#grad3);" d="M 155.7848,55.3718 L 155.7848,69.9186 224.1053,69.9186 224.1053,55.3718 155.7848,55.3718 Z" />
		<path style="fill:url(#grad4);" d="M 87.4643,24.2805 L 87.4643,38.8271 155.7848,38.8271 155.7848,24.2805 87.4643,24.2805 Z" />
		<path style="fill:url(#grad5);" d="M 155.7848,24.2805 L 155.7848,38.8271 224.1053,38.8271 224.1053,24.2805 155.7848,24.2805 Z" />
		<path style="fill:#000000;" d="M 78.999,84.6862 C 78.4978,84.6858 78.0369,84.6011 77.616,84.4311 77.1947,84.2612 76.831,84.0081 76.5253,83.6713 76.2187,83.3352 75.9816,82.9153 75.8137,82.4117 75.6451,81.9087 75.561,81.3309 75.5614,80.6791 75.561,80.0303 75.6428,79.465 75.8062,78.9823 75.9692,78.5004 76.2071,78.0806 76.5197,77.7228 76.8258,77.3756 77.1885,77.1108 77.6077,76.9285 78.0269,76.7468 78.4957,76.6558 79.0141,76.6555 79.2724,76.6558 79.514,76.6744 79.7395,76.7113 79.9646,76.7489 80.1731,76.7964 80.3655,76.854 80.5296,76.905 80.6989,76.9685 80.8729,77.0443 81.0463,77.1208 81.2173,77.2043 81.3859,77.2952 L 81.3859,78.5087 81.3032,78.5087 C 81.2139,78.4301 81.0987,78.3343 80.9577,78.2219 80.8164,78.1098 80.6447,77.9992 80.4427,77.8896 80.2459,77.7879 80.0325,77.7038 79.8022,77.6372 79.5719,77.5714 79.3055,77.5383 79.0031,77.538 78.6767,77.5383 78.3675,77.6062 78.0751,77.7413 77.7828,77.8771 77.5263,78.0768 77.3057,78.3405 77.0896,78.6045 76.9213,78.9361 76.801,79.3353 76.6804,79.7349 76.62,80.1841 76.6204,80.6833 76.62,81.2147 76.6838,81.6726 76.8114,82.0559 76.9386,82.44 77.112,82.7636 77.3319,83.0273 77.5449,83.2849 77.7959,83.4786 78.0848,83.6086 78.3733,83.7389 78.6795,83.804 79.0031,83.8037 79.2989,83.804 79.5722,83.7689 79.8236,83.6982 80.0742,83.6283 80.2976,83.5393 80.4938,83.4313 80.6826,83.3279 80.846,83.2214 80.9839,83.1121 81.1211,83.0035 81.2294,82.9105 81.3086,82.833 L 81.3859,82.833 81.3859,84.0339 C 81.2173,84.1122 81.0584,84.187 80.9094,84.258 80.7598,84.3294 80.5785,84.399 80.3655,84.4669 80.1418,84.5386 79.9349,84.5928 79.7443,84.6303 79.5533,84.6672 79.3048,84.6858 78.999,84.6862 Z" />
		<path style="fill:#000000;" d="M 82.3699,49.4248 C 82.3696,50.1253 82.2289,50.7575 81.948,51.3215 81.6663,51.8855 81.2892,52.3257 80.8159,52.6418 80.4305,52.8866 80.0393,53.0499 79.6424,53.132 79.245,53.2144 78.7379,53.2554 78.1216,53.2554 L 76.3689,53.2554 76.3689,45.5777 78.1022,45.5777 C 78.8172,45.5777 79.3784,45.6321 79.7859,45.7404 80.193,45.8493 80.5394,45.9976 80.8255,46.1858 81.3161,46.5122 81.6963,46.9462 81.9659,47.4875 82.2352,48.029 82.3696,48.6747 82.3699,49.4248 Z M 81.3109,49.4083 C 81.3106,48.8191 81.2147,48.3162 81.0235,47.8991 80.8314,47.4823 80.5474,47.1572 80.1706,46.9235 79.9058,46.7595 79.6218,46.6408 79.3191,46.5685 79.0157,46.4964 78.6393,46.4606 78.1891,46.4602 L 77.4279,46.4602 77.4279,52.3729 78.1891,52.3729 C 78.6331,52.3733 79.0213,52.3371 79.3542,52.2647 79.6865,52.1927 79.991,52.0592 80.2671,51.8641 80.6135,51.6235 80.8741,51.3033 81.049,50.9037 81.2234,50.5045 81.3106,50.0061 81.3109,49.4083 Z" />
		<path style="fill:#000000;" d="M 76.3962,22.164 L 76.3962,14.4862 81.1617,14.4862 81.1617,15.3687 77.4552,15.3687 77.4552,17.4867 80.8969,17.4867 80.8969,18.3692 77.4552,18.3692 77.4552,21.2815 81.1617,21.2815 81.1617,22.164 76.3962,22.164 Z" />
		<path style="fill:#000000;" d="M 237.2834,84.6862 C 236.7821,84.6858 236.3212,84.6011 235.9004,84.4311 235.4791,84.2612 235.1155,84.0081 234.8096,83.6713 234.5032,83.3352 234.266,82.9153 234.0981,82.4117 233.9295,81.9087 233.8454,81.3309 233.8458,80.6791 233.8454,80.0303 233.9271,79.465 234.0905,78.9823 234.2536,78.5004 234.4915,78.0806 234.8041,77.7228 235.1103,77.3756 235.4729,77.1108 235.8921,76.9285 236.3112,76.7468 236.7801,76.6558 237.2986,76.6555 237.5567,76.6558 237.7984,76.6744 238.0238,76.7113 238.249,76.7489 238.4576,76.7964 238.6499,76.854 238.814,76.905 238.9832,76.9685 239.1574,77.0443 239.3307,77.1208 239.5017,77.2043 239.6703,77.2952 L 239.6703,78.5087 239.5875,78.5087 C 239.4982,78.4301 239.3832,78.3343 239.2421,78.2219 239.1008,78.1098 238.9291,77.9992 238.7271,77.8896 238.5303,77.7879 238.3169,77.7038 238.0866,77.6372 237.8563,77.5714 237.5898,77.5383 237.2875,77.538 236.9611,77.5383 236.6518,77.6062 236.3595,77.7413 236.0672,77.8771 235.8107,78.0768 235.5901,78.3405 235.374,78.6045 235.2057,78.9361 235.0854,79.3353 234.9647,79.7349 234.9044,80.1841 234.9048,80.6833 234.9044,81.2147 234.9682,81.6726 235.0958,82.0559 235.223,82.44 235.3964,82.7636 235.6163,83.0273 235.8294,83.2849 236.0803,83.4786 236.3692,83.6086 236.6578,83.7389 236.9638,83.804 237.2875,83.8037 237.5833,83.804 237.8567,83.7689 238.108,83.6982 238.3586,83.6283 238.5819,83.5393 238.7781,83.4313 238.967,83.3279 239.1304,83.2214 239.2683,83.1121 239.4055,83.0035 239.5137,82.9105 239.5931,82.833 L 239.6703,82.833 239.6703,84.0339 C 239.5017,84.1122 239.3428,84.187 239.1939,84.258 239.0443,84.3294 238.863,84.399 238.6499,84.4669 238.4261,84.5386 238.2193,84.5928 238.0287,84.6303 237.8377,84.6672 237.5892,84.6858 237.2834,84.6862 Z" />
		<path style="fill:#000000;" d="M 240.6543,49.4248 C 240.6539,50.1253 240.5134,50.7575 240.2323,51.3215 239.9508,51.8855 239.5736,52.3257 239.1003,52.6418 238.7149,52.8866 238.3236,53.0499 237.9268,53.132 237.5293,53.2144 237.0223,53.2554 236.4059,53.2554 L 234.6533,53.2554 234.6533,45.5777 236.3866,45.5777 C 237.1015,45.5777 237.6628,45.6321 238.0702,45.7404 238.4774,45.8493 238.8238,45.9976 239.1099,46.1858 239.6005,46.5122 239.9808,46.9462 240.2503,47.4875 240.5195,48.029 240.6539,48.6747 240.6543,49.4248 Z M 239.5953,49.4083 C 239.5949,48.8191 239.4992,48.3162 239.3078,47.8991 239.1158,47.4823 238.8317,47.1572 238.4549,46.9235 238.1902,46.7595 237.9061,46.6408 237.6035,46.5685 237.3002,46.4964 236.9237,46.4606 236.4734,46.4602 L 235.7123,46.4602 235.7123,52.3729 236.4734,52.3729 C 236.9175,52.3733 237.3056,52.3371 237.6387,52.2647 237.971,52.1927 238.2753,52.0592 238.5515,51.8641 238.898,51.6235 239.1586,51.3033 239.3333,50.9037 239.5077,50.5045 239.5949,50.0061 239.5953,49.4083 Z" />
		<path style="fill:#000000;" d="M 234.6806,22.164 L 234.6806,14.4862 239.4461,14.4862 239.4461,15.3687 235.7396,15.3687 235.7396,17.4867 239.1813,17.4867 239.1813,18.3692 235.7396,18.3692 235.7396,21.2815 239.4461,21.2815 239.4461,22.164 234.6806,22.164 Z" />
		<path style="fill:#000000;" d="M 117.3641,67.8235 C 116.8629,67.8231 116.402,67.7384 115.9811,67.5685 115.5599,67.3985 115.1961,67.1455 114.8904,66.8086 114.5839,66.4726 114.3467,66.0527 114.1789,65.5491 114.0103,65.0461 113.9262,64.4683 113.9265,63.8164 113.9262,63.1676 114.0079,62.6023 114.1713,62.1197 114.3343,61.6377 114.5722,61.2179 114.8849,60.8601 115.191,60.5129 115.5536,60.2481 115.9728,60.0658 116.392,59.8841 116.8608,59.7932 117.3793,59.7928 117.6375,59.7932 117.8792,59.8118 118.1046,59.8487 118.3298,59.8862 118.5382,59.9338 118.7306,59.9914 118.8947,60.0424 119.064,60.1058 119.238,60.1816 119.4114,60.2582 119.5825,60.3416 119.751,60.4326 L 119.751,61.646 119.6683,61.646 C 119.579,61.5675 119.4638,61.4716 119.3229,61.3593 119.1815,61.2472 119.0099,61.1366 118.8079,61.0269 118.611,60.9253 118.3976,60.8411 118.1674,60.7745 117.937,60.7088 117.6706,60.6757 117.3682,60.6753 117.0418,60.6757 116.7326,60.7436 116.4403,60.8787 116.148,61.0145 115.8915,61.2141 115.6709,61.4778 115.4547,61.7419 115.2864,62.0735 115.1661,62.4727 115.0455,62.8722 114.9852,63.3214 114.9855,63.8206 114.9852,64.3521 115.049,64.8099 115.1765,65.1932 115.3037,65.5773 115.4771,65.901 115.697,66.1647 115.91,66.4223 116.161,66.616 116.4499,66.7459 116.7384,66.8762 117.0446,66.9414 117.3682,66.941 117.664,66.9414 117.9374,66.9062 118.1887,66.8356 118.4394,66.7656 118.6627,66.6767 118.8589,66.5687 119.0478,66.4653 119.2112,66.3588 119.349,66.2495 119.4862,66.1409 119.5945,66.0479 119.6738,65.9703 L 119.751,65.9703 119.751,67.1713 C 119.5825,67.2495 119.4236,67.3244 119.2746,67.3954 119.1249,67.4668 118.9436,67.5364 118.7306,67.6043 118.5069,67.676 118.3,67.7301 118.1094,67.7677 117.9184,67.8046 117.6699,67.8231 117.3641,67.8235 Z" />
		<path style="fill:#000000;" d="M 121.4277,67.647 L 120.457,67.647 120.457,61.9108 121.4277,61.9108 121.4277,67.647 Z M 121.516,60.94 L 120.3687,60.94 120.3687,59.9693 121.516,59.9693 121.516,60.94 Z" />
		<path style="fill:#000000;" d="M 123.8146,67.7353 C 123.4227,67.7349 123.0566,67.6829 122.7156,67.5788 122.3744,67.4747 122.092,67.3636 121.869,67.2458 L 121.869,66.1468 121.9214,66.1468 C 122.0069,66.2161 122.1069,66.2919 122.222,66.375 122.3365,66.4584 122.4892,66.5456 122.6798,66.6363 122.8498,66.7166 123.0363,66.7873 123.2397,66.8486 123.4423,66.9104 123.6533,66.9414 123.8726,66.941 124.0311,66.9414 124.2007,66.9231 124.3814,66.8866 124.5613,66.8504 124.6958,66.8045 124.784,66.7494 124.9081,66.6704 124.9974,66.586 125.0522,66.4956 125.1066,66.4057 125.1339,66.2709 125.1342,66.0916 125.1339,65.861 125.0667,65.6869 124.9322,65.569 124.7975,65.4515 124.5582,65.3532 124.2146,65.274 124.0874,65.244 123.9219,65.2088 123.7181,65.1685 123.5137,65.1288 123.3258,65.0854 123.1541,65.0382 122.7046,64.9117 122.3779,64.7155 122.1745,64.4501 121.9704,64.185 121.8687,63.864 121.869,63.4869 121.8687,62.9698 122.0711,62.5482 122.4765,62.2224 122.8811,61.8973 123.4193,61.7347 124.0905,61.7343 124.4203,61.7347 124.7523,61.7753 125.0867,61.8563 125.4204,61.9381 125.701,62.0411 125.9285,62.1659 L 125.9285,63.2345 125.8747,63.2345 C 125.6141,63.017 125.3242,62.8446 125.0047,62.7181 124.6844,62.5919 124.3617,62.5289 124.0366,62.5285 123.7009,62.5289 123.4175,62.5965 123.1865,62.7313 122.9553,62.8668 122.8397,63.0708 122.8397,63.3435 122.8397,63.5855 122.9097,63.7661 123.0501,63.8854 123.19,64.005 123.4154,64.1029 123.7264,64.1791 123.8743,64.217 124.0387,64.2539 124.2194,64.2894 124.4,64.3256 124.5903,64.3673 124.7909,64.4149 125.2274,64.5207 125.5555,64.6965 125.7755,64.9423 125.9947,65.1884 126.1047,65.5232 126.105,65.9468 126.1047,66.1933 126.0546,66.4267 125.9554,66.6466 125.8555,66.8669 125.7096,67.0555 125.5176,67.2126 125.3076,67.3837 125.0708,67.5136 124.8075,67.6022 124.5434,67.6908 124.2125,67.7349 123.8146,67.7353 Z" />
		<path style="fill:#000000;" d="M 120.6943,32.713 C 120.6941,33.4135 120.5534,34.0457 120.2724,34.6098 119.9908,35.1737 119.6136,35.6139 119.1404,35.93 118.7549,36.1747 118.3637,36.3382 117.9669,36.4202 117.5695,36.5026 117.0624,36.5436 116.4459,36.5436 L 114.6933,36.5436 114.6933,28.8659 116.4266,28.8659 C 117.1416,28.8659 117.7029,28.9204 118.1103,29.0286 118.5174,29.1375 118.8639,29.2858 119.15,29.4739 119.6405,29.8004 120.0208,30.2344 120.2903,30.7757 120.5596,31.3172 120.6941,31.9629 120.6943,32.713 Z M 119.6353,32.6965 C 119.6351,32.1073 119.5392,31.6044 119.3478,31.1873 119.1559,30.7705 118.8718,30.4454 118.4951,30.2117 118.2303,30.0476 117.9462,29.929 117.6435,29.8567 117.3402,29.7846 116.9638,29.7488 116.5136,29.7484 L 115.7523,29.7484 115.7523,35.6611 116.5136,35.6611 C 116.9576,35.6615 117.3457,35.6253 117.6787,35.5528 118.011,35.4809 118.3155,35.3475 118.5915,35.1523 118.938,34.9117 119.1986,34.5914 119.3734,34.1919 119.5478,33.7927 119.6351,33.2943 119.6353,32.6965 Z" />
		<path style="fill:#000000;" d="M 122.6358,36.5436 L 121.6651,36.5436 121.6651,30.8074 122.6358,30.8074 122.6358,36.5436 Z M 122.7241,29.8366 L 121.5768,29.8366 121.5768,28.8659 122.7241,28.8659 122.7241,29.8366 Z" />
		<path style="fill:#000000;" d="M 125.0227,36.6319 C 124.6308,36.6315 124.2647,36.5795 123.9237,36.4754 123.5825,36.3713 123.3002,36.2603 123.0771,36.1424 L 123.0771,35.0434 123.1295,35.0434 C 123.215,35.1126 123.3149,35.1886 123.4301,35.2716 123.5446,35.355 123.6973,35.4422 123.8879,35.5329 124.0579,35.6132 124.2444,35.6839 124.4478,35.7452 124.6504,35.807 124.8614,35.838 125.0807,35.8376 125.2392,35.838 125.4088,35.8197 125.5895,35.7832 125.7695,35.7469 125.9039,35.7011 125.9922,35.646 126.1163,35.567 126.2055,35.4826 126.2603,35.3922 126.3148,35.3023 126.3421,35.1675 126.3423,34.9882 126.3421,34.7576 126.2748,34.5835 126.1403,34.4656 126.0055,34.3481 125.7664,34.2498 125.4227,34.1706 125.2954,34.1406 125.13,34.1054 124.9262,34.065 124.7218,34.0254 124.534,33.9819 124.3623,33.9347 123.9127,33.8083 123.5859,33.6121 123.3826,33.3466 123.1784,33.0816 123.0768,32.7606 123.0771,32.3835 123.0768,31.8664 123.2791,31.4448 123.6845,31.119 124.0892,30.7939 124.6274,30.6313 125.2985,30.6309 125.6284,30.6313 125.9604,30.6719 126.2948,30.7529 126.6284,30.8346 126.9091,30.9377 127.1366,31.0624 L 127.1366,32.1311 127.0829,32.1311 C 126.8223,31.9136 126.5323,31.7413 126.2128,31.6147 125.8925,31.4885 125.5698,31.4255 125.2448,31.4251 124.909,31.4255 124.6256,31.4931 124.3946,31.6278 124.1634,31.7633 124.0478,31.9674 124.0478,32.2401 124.0478,32.4821 124.1178,32.6627 124.2581,32.782 124.3981,32.9016 124.6235,32.9995 124.9345,33.0757 125.0824,33.1136 125.2468,33.1505 125.4275,33.186 125.6081,33.2222 125.7983,33.2639 125.999,33.3115 126.4355,33.4173 126.7636,33.5931 126.9835,33.8389 127.2028,34.0851 127.3128,34.4198 127.3131,34.8435 127.3128,35.09 127.2628,35.3233 127.1635,35.5432 127.0635,35.7635 126.9177,35.952 126.7257,36.1092 126.5157,36.2803 126.2789,36.4102 126.0156,36.4988 125.7515,36.5874 125.4206,36.6315 125.0227,36.6319 Z" />
		<path style="fill:#ffffff;" d="M 186.8176,63.4841 C 186.8172,64.1847 186.6767,64.8169 186.3957,65.3808 186.1141,65.9449 185.7369,66.3851 185.2637,66.7012 184.8782,66.9459 184.4869,67.1093 184.0902,67.1914 183.6927,67.2738 183.1856,67.3148 182.5692,67.3148 L 180.8166,67.3148 180.8166,59.6371 182.5499,59.6371 C 183.2649,59.6371 183.8261,59.6915 184.2335,59.7997 184.6407,59.9087 184.9871,60.0569 185.2732,60.2451 185.7638,60.5716 186.1441,61.0056 186.4136,61.5468 186.6829,62.0884 186.8172,62.734 186.8176,63.4841 Z M 185.7586,63.4677 C 185.7582,62.8785 185.6625,62.3755 185.4711,61.9584 185.2791,61.5416 184.995,61.2165 184.6182,60.9828 184.3535,60.8188 184.0695,60.7002 183.7668,60.6278 183.4635,60.5557 183.087,60.5199 182.6368,60.5196 L 181.8756,60.5196 181.8756,66.4323 182.6368,66.4323 C 183.0808,66.4326 183.4689,66.3964 183.802,66.324 184.1343,66.252 184.4386,66.1186 184.7148,65.9234 185.0613,65.6829 185.3219,65.3626 185.4966,64.963 185.671,64.5638 185.7582,64.0654 185.7586,63.4677 Z" />
		<path style="fill:#ffffff;" d="M 190.2898,67.4031 C 189.3572,67.4027 188.6336,67.1465 188.1194,66.6336 187.6043,66.121 187.3471,65.3922 187.3471,64.448 187.3471,63.518 187.5953,62.7778 188.0924,62.2273 188.5888,61.6775 189.2387,61.4024 190.0415,61.4021 190.4035,61.4024 190.7234,61.4531 191.0012,61.5544 191.2788,61.6561 191.5218,61.815 191.7306,62.0308 191.9388,62.2469 192.0989,62.5113 192.2106,62.8243 192.3216,63.1373 192.3774,63.5207 192.3774,63.9736 L 192.3774,64.4908 188.3179,64.4908 C 188.3175,65.1492 188.4899,65.6518 188.835,65.9993 189.1794,66.3468 189.6557,66.5206 190.2635,66.5206 190.4814,66.5206 190.6952,66.4964 190.9047,66.4475 191.1143,66.3992 191.3032,66.3361 191.4714,66.2585 191.6507,66.1789 191.8017,66.1013 191.9251,66.0262 192.0478,65.9514 192.1499,65.8811 192.2313,65.8146 L 192.2891,65.8146 192.2891,66.9177 C 192.174,66.9629 192.0312,67.019 191.8603,67.0859 191.6893,67.1531 191.5356,67.2055 191.3997,67.243 191.2073,67.2944 191.0337,67.3337 190.8785,67.3617 190.7227,67.3889 190.5266,67.4027 190.2898,67.4031 Z M 191.4066,63.7848 C 191.3991,63.5259 191.3677,63.3022 191.3122,63.1139 191.2564,62.926 191.176,62.7675 191.0716,62.6376 190.9564,62.4945 190.8092,62.3849 190.6303,62.3093 190.4507,62.2342 190.2287,62.1966 189.9643,62.1963 189.703,62.1966 189.481,62.2349 189.2983,62.3114 189.1148,62.3883 188.9487,62.5003 188.7991,62.6472 188.653,62.7982 188.5412,62.9647 188.4647,63.147 188.3875,63.3297 188.3386,63.5425 188.3179,63.7848 L 191.4066,63.7848 Z" />
		<path style="fill:#ffffff;" d="M 195.5585,67.4031 C 195.1666,67.4027 194.8005,67.3507 194.4595,67.2465 194.1183,67.1425 193.8359,67.0314 193.6129,66.9136 L 193.6129,65.8146 193.6653,65.8146 C 193.7508,65.8838 193.8507,65.9596 193.9659,66.0427 194.0804,66.1262 194.2331,66.2134 194.4237,66.3041 194.5936,66.3843 194.7802,66.455 194.9835,66.5164 195.1862,66.5781 195.3972,66.6091 195.6165,66.6088 195.775,66.6091 195.9446,66.5908 196.1253,66.5543 196.3051,66.5181 196.4396,66.4723 196.5278,66.4171 196.652,66.3381 196.7413,66.2537 196.7961,66.1634 196.8505,66.0734 196.8777,65.9387 196.8781,65.7593 196.8777,65.5287 196.8106,65.3547 196.6761,65.2368 196.5413,65.1192 196.3021,65.021 195.9584,64.9417 195.8312,64.9117 195.6658,64.8766 195.462,64.8362 195.2575,64.7966 195.0696,64.7531 194.898,64.7059 194.4485,64.5794 194.1217,64.3832 193.9184,64.1178 193.7142,63.8527 193.6125,63.5317 193.6129,63.1547 193.6125,62.6376 193.8149,62.2159 194.2203,61.8902 194.625,61.5651 195.1631,61.4024 195.8343,61.4021 196.1642,61.4024 196.4961,61.4431 196.8306,61.5241 197.1642,61.6058 197.4449,61.7089 197.6724,61.8336 L 197.6724,62.9023 197.6186,62.9023 C 197.358,62.6848 197.0681,62.5123 196.7485,62.3859 196.4283,62.2597 196.1056,62.1966 195.7805,62.1963 195.4448,62.1966 195.1614,62.2642 194.9304,62.399 194.6991,62.5345 194.5836,62.7385 194.5836,63.0112 194.5836,63.2533 194.6536,63.4339 194.7939,63.5531 194.9339,63.6728 195.1593,63.7706 195.4703,63.8468 195.6182,63.8847 195.7826,63.9216 195.9632,63.9572 196.1439,63.9933 196.3341,64.0351 196.5348,64.0826 196.9712,64.1884 197.2994,64.3643 197.5193,64.61 197.7386,64.8561 197.8485,65.1909 197.8489,65.6145 197.8485,65.861 197.7985,66.0945 197.6993,66.3143 197.5993,66.5347 197.4534,66.7232 197.2615,66.8804 197.0515,67.0514 196.8147,67.1814 196.5514,67.2699 196.2873,67.3586 195.9563,67.4027 195.5585,67.4031 Z" />
		<path style="fill:#ffffff;" d="M 180.8406,36.2233 L 180.8406,28.5455 185.6061,28.5455 185.6061,29.428 181.8996,29.428 181.8996,31.546 185.3414,31.546 185.3414,32.4285 181.8996,32.4285 181.8996,35.3408 185.6061,35.3408 185.6061,36.2233 180.8406,36.2233 Z" />
		<path style="fill:#ffffff;" d="M 188.5225,36.3115 C 188.1306,36.3112 187.7645,36.2591 187.4235,36.155 187.0823,36.0509 186.7999,35.9399 186.5769,35.822 L 186.5769,34.723 186.6293,34.723 C 186.7148,34.7923 186.8148,34.8681 186.9299,34.9512 187.0444,35.0346 187.1971,35.1218 187.3877,35.2125 187.5577,35.2929 187.7442,35.3635 187.9476,35.4249 188.1502,35.4866 188.3612,35.5177 188.5805,35.5173 188.739,35.5177 188.9086,35.4993 189.0893,35.4628 189.2692,35.4266 189.4037,35.3808 189.4919,35.3256 189.616,35.2467 189.7053,35.1622 189.7601,35.0719 189.8145,34.9819 189.8418,34.8471 189.8421,34.6679 189.8418,34.4372 189.7746,34.2631 189.6401,34.1453 189.5054,34.0277 189.2661,33.9294 188.9224,33.8501 188.7952,33.8202 188.6298,33.785 188.426,33.7447 188.2216,33.705 188.0337,33.6616 187.862,33.6144 187.4125,33.4879 187.0858,33.2917 186.8824,33.0262 186.6783,32.7612 186.5766,32.4402 186.5769,32.0631 186.5766,31.546 186.7789,31.1244 187.1843,30.7986 187.589,30.4736 188.1272,30.3109 188.7984,30.3105 189.1282,30.3109 189.4602,30.3516 189.7946,30.4326 190.1283,30.5142 190.4089,30.6173 190.6364,30.7421 L 190.6364,31.8108 190.5826,31.8108 C 190.322,31.5933 190.0321,31.4209 189.7126,31.2944 189.3923,31.1682 189.0696,31.1052 188.7445,31.1048 188.4088,31.1052 188.1254,31.1727 187.8944,31.3074 187.6631,31.4429 187.5476,31.647 187.5476,31.9197 187.5476,32.1617 187.6176,32.3423 187.7579,32.4616 187.8979,32.5812 188.1233,32.6792 188.4343,32.7553 188.5821,32.7932 188.7466,32.8302 188.9272,32.8656 189.1079,32.9019 189.2981,32.9435 189.4988,32.9911 189.9353,33.0969 190.2634,33.2727 190.4834,33.5186 190.7026,33.7647 190.8126,34.0994 190.8129,34.5231 190.8126,34.7696 190.7625,35.0029 190.6633,35.2229 190.5634,35.4431 190.4175,35.6317 190.2255,35.7889 190.0155,35.9599 189.7787,36.0899 189.5154,36.1785 189.2513,36.267 188.9204,36.3112 188.5225,36.3115 Z" />
		<path style="stroke:#000000;stroke-width:0.44;stroke-miterlimit:4.0;stroke-opacity:0.23999999;fill:url(#grad6);" d="M 257.8958,62.3262 L 257.8958,93.4191 316.5839,93.4191 316.5839,62.3262 257.8958,62.3262 Z" />
		<path style="fill-opacity:0.19742982;fill:#000000;" d="M 282.9054,84.5384 L 281.8464,84.5384 281.8464,80.7437 278.4047,80.7437 278.4047,84.5384 277.3457,84.5384 277.3457,76.8607 278.4047,76.8607 278.4047,79.8612 281.8464,79.8612 281.8464,76.8607 282.9054,76.8607 282.9054,84.5384 Z" />
		<path style="fill-opacity:0.19742982;fill:#000000;" d="M 285.2882,84.5384 L 284.3174,84.5384 284.3174,78.8022 285.2882,78.8022 285.2882,84.5384 Z M 285.3764,77.8314 L 284.2292,77.8314 284.2292,76.8607 285.3764,76.8607 285.3764,77.8314 Z" />
		<path style="fill-opacity:0.19742982;fill:#000000;" d="M 287.6751,84.6267 C 287.2831,84.6263 286.9169,84.5743 286.5761,84.4702 286.2347,84.3661 285.9524,84.255 285.7294,84.1372 L 285.7294,83.0382 285.7818,83.0382 C 285.8672,83.1075 285.9673,83.1833 286.0824,83.2664 286.1968,83.3498 286.3495,83.437 286.5402,83.5277 286.7101,83.608 286.8966,83.6787 287.1,83.74 287.3027,83.8017 287.5137,83.8328 287.7329,83.8324 287.8915,83.8328 288.0611,83.8145 288.2417,83.7779 288.4217,83.7417 288.5561,83.6959 288.6444,83.6408 288.7685,83.5618 288.8578,83.4773 288.9126,83.387 288.9671,83.2971 288.9943,83.1623 288.9947,82.983 288.9943,82.7524 288.927,82.5783 288.7927,82.4604 288.6578,82.3429 288.4186,82.2446 288.0749,82.1654 287.9477,82.1353 287.7822,82.1002 287.5785,82.0598 287.3741,82.0202 287.1862,81.9767 287.0145,81.9295 286.565,81.803 286.2382,81.6069 286.0348,81.3415 285.8307,81.0763 285.729,80.7554 285.7294,80.3783 285.729,79.8612 285.9314,79.4396 286.3368,79.1138 286.7415,78.7887 287.2796,78.626 287.9508,78.6257 288.2807,78.626 288.6127,78.6667 288.9471,78.7477 289.2808,78.8295 289.5613,78.9325 289.7889,79.0572 L 289.7889,80.1259 289.7351,80.1259 C 289.4745,79.9084 289.1846,79.736 288.865,79.6095 288.5448,79.4833 288.2221,79.4203 287.897,79.4199 287.5612,79.4203 287.2779,79.4878 287.047,79.6227 286.8156,79.7581 286.7002,79.9622 286.7002,80.2349 286.7002,80.4769 286.7701,80.6575 286.9104,80.7768 287.0503,80.8964 287.2759,80.9943 287.5868,81.0705 287.7346,81.1084 287.8991,81.1453 288.0797,81.1808 288.2603,81.217 288.4507,81.2587 288.6513,81.3063 289.0877,81.4121 289.4159,81.5879 289.6358,81.8337 289.8551,82.0798 289.965,82.4146 289.9654,82.8382 289.965,83.0847 289.9151,83.3181 289.8157,83.538 289.7158,83.7583 289.57,83.9469 289.378,84.104 289.1681,84.2751 288.9312,84.405 288.6678,84.4936 288.4037,84.5822 288.0728,84.6263 287.6751,84.6267 Z" />
		<path style="stroke:#000000;stroke-width:0.44;stroke-miterlimit:4.0;stroke-opacity:0.23999999;fill:url(#grad7);" d="M 257.8958,0.1418 L 257.8958,31.2347 316.5839,31.2347 316.5839,0.1418 257.8958,0.1418 Z" />
		<path style="fill-opacity:0.19742982;fill:#000000;" d="M 283.3467,18.194 C 283.3463,18.8945 283.2056,19.5267 282.9247,20.0907 282.643,20.6547 282.2659,21.0949 281.7926,21.411 281.4072,21.6557 281.0159,21.8192 280.6192,21.9012 280.2217,21.9836 279.7146,22.0246 279.0983,22.0246 L 277.3457,22.0246 277.3457,14.3469 279.079,14.3469 C 279.7939,14.3469 280.3551,14.4014 280.7626,14.5096 281.1697,14.6185 281.5161,14.7668 281.8023,14.955 282.2928,15.2814 282.673,15.7154 282.9426,16.2567 283.2118,16.7982 283.3463,17.4439 283.3467,18.194 Z M 282.2877,18.1775 C 282.2873,17.5883 282.1914,17.0854 282.0002,16.6682 281.8081,16.2515 281.5241,15.9264 281.1473,15.6927 280.8825,15.5286 280.5985,15.41 280.2958,15.3376 279.9924,15.2655 279.616,15.2297 279.1658,15.2294 L 278.4047,15.2294 278.4047,21.1421 279.1658,21.1421 C 279.6098,21.1424 279.998,21.1063 280.3309,21.0338 280.6633,20.9618 280.9677,20.8284 281.2438,20.6333 281.5902,20.3927 281.8508,20.0724 282.0256,19.6728 282.2001,19.2736 282.2873,18.7752 282.2877,18.1775 Z" />
		<path style="fill-opacity:0.19742982;fill:#000000;" d="M 285.2882,22.0246 L 284.3174,22.0246 284.3174,16.2884 285.2882,16.2884 285.2882,22.0246 Z M 285.3764,15.3176 L 284.2292,15.3176 284.2292,14.3469 285.3764,14.3469 285.3764,15.3176 Z" />
		<path style="fill-opacity:0.19742982;fill:#000000;" d="M 287.6751,22.1129 C 287.2831,22.1125 286.9169,22.0605 286.5761,21.9563 286.2347,21.8523 285.9524,21.7413 285.7294,21.6234 L 285.7294,20.5244 285.7818,20.5244 C 285.8672,20.5936 285.9673,20.6695 286.0824,20.7525 286.1968,20.836 286.3495,20.9232 286.5402,21.0139 286.7101,21.0942 286.8966,21.1649 287.1,21.2262 287.3027,21.288 287.5137,21.3189 287.7329,21.3186 287.8915,21.3189 288.0611,21.3007 288.2417,21.2642 288.4217,21.2279 288.5561,21.1821 288.6444,21.1269 288.7685,21.048 288.8578,20.9636 288.9126,20.8732 288.9671,20.7832 288.9943,20.6485 288.9947,20.4692 288.9943,20.2386 288.927,20.0645 288.7927,19.9466 288.6578,19.829 288.4186,19.7308 288.0749,19.6515 287.9477,19.6216 287.7822,19.5864 287.5785,19.546 287.3741,19.5064 287.1862,19.4629 287.0145,19.4157 286.565,19.2892 286.2382,19.0931 286.0348,18.8276 285.8307,18.5626 285.729,18.2416 285.7294,17.8645 285.729,17.3474 285.9314,16.9258 286.3368,16.6 286.7415,16.2749 287.2796,16.1122 287.9508,16.1119 288.2807,16.1122 288.6127,16.1529 288.9471,16.2339 289.2808,16.3156 289.5613,16.4187 289.7889,16.5434 L 289.7889,17.6121 289.7351,17.6121 C 289.4745,17.3946 289.1846,17.2223 288.865,17.0957 288.5448,16.9696 288.2221,16.9064 287.897,16.9061 287.5612,16.9064 287.2779,16.9741 287.047,17.1088 286.8156,17.2443 286.7002,17.4483 286.7002,17.7211 286.7002,17.9631 286.7701,18.1437 286.9104,18.2629 287.0503,18.3826 287.2759,18.4804 287.5868,18.5566 287.7346,18.5946 287.8991,18.6314 288.0797,18.667 288.2603,18.7031 288.4507,18.7449 288.6513,18.7924 289.0877,18.8983 289.4159,19.0741 289.6358,19.3198 289.8551,19.5661 289.965,19.9007 289.9654,20.3245 289.965,20.5709 289.9151,20.8043 289.8157,21.0242 289.7158,21.2445 289.57,21.433 289.378,21.5903 289.1681,21.7612 288.9312,21.8912 288.6678,21.9798 288.4037,22.0684 288.0728,22.1125 287.6751,22.1129 Z" />
		<path style="fill-opacity:0.19742982;fill:#000000;" d="M 291.4657,22.0246 L 290.4949,22.0246 290.4949,16.2884 291.4657,16.2884 291.4657,22.0246 Z M 291.5539,15.3176 L 290.4067,15.3176 290.4067,14.3469 291.5539,14.3469 291.5539,15.3176 Z" />
		<path style="fill-opacity:0.19742982;fill:#000000;" d="M 293.8526,22.1129 C 293.4606,22.1125 293.0944,22.0605 292.7536,21.9563 292.4122,21.8523 292.1299,21.7413 291.9069,21.6234 L 291.9069,20.5244 291.9593,20.5244 C 292.0447,20.5936 292.1448,20.6695 292.2599,20.7525 292.3743,20.836 292.527,20.9232 292.7177,21.0139 292.8876,21.0942 293.0741,21.1649 293.2775,21.2262 293.4802,21.288 293.6912,21.3189 293.9104,21.3186 294.069,21.3189 294.2386,21.3007 294.4192,21.2642 294.5992,21.2279 294.7336,21.1821 294.8219,21.1269 294.946,21.048 295.0353,20.9636 295.0901,20.8732 295.1446,20.7832 295.1718,20.6485 295.1722,20.4692 295.1718,20.2386 295.1045,20.0645 294.9702,19.9466 294.8353,19.829 294.5961,19.7308 294.2524,19.6515 294.1252,19.6216 293.9597,19.5864 293.756,19.546 293.5516,19.5064 293.3637,19.4629 293.192,19.4157 292.7425,19.2892 292.4157,19.0931 292.2123,18.8276 292.0082,18.5626 291.9065,18.2416 291.9069,17.8645 291.9065,17.3474 292.1089,16.9258 292.5143,16.6 292.919,16.2749 293.4571,16.1122 294.1283,16.1119 294.4582,16.1122 294.7902,16.1529 295.1246,16.2339 295.4583,16.3156 295.7388,16.4187 295.9664,16.5434 L 295.9664,17.6121 295.9126,17.6121 C 295.652,17.3946 295.3621,17.2223 295.0425,17.0957 294.7223,16.9696 294.3995,16.9064 294.0745,16.9061 293.7387,16.9064 293.4554,16.9741 293.2245,17.1088 292.9931,17.2443 292.8777,17.4483 292.8777,17.7211 292.8777,17.9631 292.9476,18.1437 293.0879,18.2629 293.2278,18.3826 293.4534,18.4804 293.7643,18.5566 293.9121,18.5946 294.0766,18.6314 294.2572,18.667 294.4378,18.7031 294.6282,18.7449 294.8288,18.7924 295.2652,18.8983 295.5934,19.0741 295.8133,19.3198 296.0325,19.5661 296.1425,19.9007 296.1429,20.3245 296.1425,20.5709 296.0926,20.8043 295.9932,21.0242 295.8933,21.2445 295.7475,21.433 295.5555,21.5903 295.3456,21.7612 295.1087,21.8912 294.8453,21.9798 294.5812,22.0684 294.2503,22.1125 293.8526,22.1129 Z" />
		<path style="fill-opacity:0.19742982;fill:#000000;" d="M 282.9054,84.5384 L 281.8464,84.5384 281.8464,80.7437 278.4047,80.7437 278.4047,84.5384 277.3457,84.5384 277.3457,76.8607 278.4047,76.8607 278.4047,79.8612 281.8464,79.8612 281.8464,76.8607 282.9054,76.8607 282.9054,84.5384 Z" />
		<path style="fill-opacity:0.19742982;fill:#000000;" d="M 285.2882,84.5384 L 284.3174,84.5384 284.3174,78.8022 285.2882,78.8022 285.2882,84.5384 Z M 285.3764,77.8314 L 284.2292,77.8314 284.2292,76.8607 285.3764,76.8607 285.3764,77.8314 Z" />
		<path style="fill-opacity:0.19742982;fill:#000000;" d="M 287.6751,84.6267 C 287.2831,84.6263 286.9169,84.5743 286.5761,84.4702 286.2347,84.3661 285.9524,84.255 285.7294,84.1372 L 285.7294,83.0382 285.7818,83.0382 C 285.8672,83.1075 285.9673,83.1833 286.0824,83.2664 286.1968,83.3498 286.3495,83.437 286.5402,83.5277 286.7101,83.608 286.8966,83.6787 287.1,83.74 287.3027,83.8017 287.5137,83.8328 287.7329,83.8324 287.8915,83.8328 288.0611,83.8145 288.2417,83.7779 288.4217,83.7417 288.5561,83.6959 288.6444,83.6408 288.7685,83.5618 288.8578,83.4773 288.9126,83.387 288.9671,83.2971 288.9943,83.1623 288.9947,82.983 288.9943,82.7524 288.927,82.5783 288.7927,82.4604 288.6578,82.3429 288.4186,82.2446 288.0749,82.1654 287.9477,82.1353 287.7822,82.1002 287.5785,82.0598 287.3741,82.0202 287.1862,81.9767 287.0145,81.9295 286.565,81.803 286.2382,81.6069 286.0348,81.3415 285.8307,81.0763 285.729,80.7554 285.7294,80.3783 285.729,79.8612 285.9314,79.4396 286.3368,79.1138 286.7415,78.7887 287.2796,78.626 287.9508,78.6257 288.2807,78.626 288.6127,78.6667 288.9471,78.7477 289.2808,78.8295 289.5613,78.9325 289.7889,79.0572 L 289.7889,80.1259 289.7351,80.1259 C 289.4745,79.9084 289.1846,79.736 288.865,79.6095 288.5448,79.4833 288.2221,79.4203 287.897,79.4199 287.5612,79.4203 287.2779,79.4878 287.047,79.6227 286.8156,79.7581 286.7002,79.9622 286.7002,80.2349 286.7002,80.4769 286.7701,80.6575 286.9104,80.7768 287.0503,80.8964 287.2759,80.9943 287.5868,81.0705 287.7346,81.1084 287.8991,81.1453 288.0797,81.1808 288.2603,81.217 288.4507,81.2587 288.6513,81.3063 289.0877,81.4121 289.4159,81.5879 289.6358,81.8337 289.8551,82.0798 289.965,82.4146 289.9654,82.8382 289.965,83.0847 289.9151,83.3181 289.8157,83.538 289.7158,83.7583 289.57,83.9469 289.378,84.104 289.1681,84.2751 288.9312,84.405 288.6678,84.4936 288.4037,84.5822 288.0728,84.6263 287.6751,84.6267 Z" />
		<path style="fill-opacity:0.19742982;fill:#000000;" d="M 283.3467,18.194 C 283.3463,18.8945 283.2056,19.5267 282.9247,20.0907 282.643,20.6547 282.2659,21.0949 281.7926,21.411 281.4072,21.6557 281.0159,21.8192 280.6192,21.9012 280.2217,21.9836 279.7146,22.0246 279.0983,22.0246 L 277.3457,22.0246 277.3457,14.3469 279.079,14.3469 C 279.7939,14.3469 280.3551,14.4014 280.7626,14.5096 281.1697,14.6185 281.5161,14.7668 281.8023,14.955 282.2928,15.2814 282.673,15.7154 282.9426,16.2567 283.2118,16.7982 283.3463,17.4439 283.3467,18.194 Z M 282.2877,18.1775 C 282.2873,17.5883 282.1914,17.0854 282.0002,16.6682 281.8081,16.2515 281.5241,15.9264 281.1473,15.6927 280.8825,15.5286 280.5985,15.41 280.2958,15.3376 279.9924,15.2655 279.616,15.2297 279.1658,15.2294 L 278.4047,15.2294 278.4047,21.1421 279.1658,21.1421 C 279.6098,21.1424 279.998,21.1063 280.3309,21.0338 280.6633,20.9618 280.9677,20.8284 281.2438,20.6333 281.5902,20.3927 281.8508,20.0724 282.0256,19.6728 282.2001,19.2736 282.2873,18.7752 282.2877,18.1775 Z" />
		<path style="fill-opacity:0.19742982;fill:#000000;" d="M 285.2882,22.0246 L 284.3174,22.0246 284.3174,16.2884 285.2882,16.2884 285.2882,22.0246 Z M 285.3764,15.3176 L 284.2292,15.3176 284.2292,14.3469 285.3764,14.3469 285.3764,15.3176 Z" />
		<path style="fill-opacity:0.19742982;fill:#000000;" d="M 287.6751,22.1129 C 287.2831,22.1125 286.9169,22.0605 286.5761,21.9563 286.2347,21.8523 285.9524,21.7413 285.7294,21.6234 L 285.7294,20.5244 285.7818,20.5244 C 285.8672,20.5936 285.9673,20.6695 286.0824,20.7525 286.1968,20.836 286.3495,20.9232 286.5402,21.0139 286.7101,21.0942 286.8966,21.1649 287.1,21.2262 287.3027,21.288 287.5137,21.3189 287.7329,21.3186 287.8915,21.3189 288.0611,21.3007 288.2417,21.2642 288.4217,21.2279 288.5561,21.1821 288.6444,21.1269 288.7685,21.048 288.8578,20.9636 288.9126,20.8732 288.9671,20.7832 288.9943,20.6485 288.9947,20.4692 288.9943,20.2386 288.927,20.0645 288.7927,19.9466 288.6578,19.829 288.4186,19.7308 288.0749,19.6515 287.9477,19.6216 287.7822,19.5864 287.5785,19.546 287.3741,19.5064 287.1862,19.4629 287.0145,19.4157 286.565,19.2892 286.2382,19.0931 286.0348,18.8276 285.8307,18.5626 285.729,18.2416 285.7294,17.8645 285.729,17.3474 285.9314,16.9258 286.3368,16.6 286.7415,16.2749 287.2796,16.1122 287.9508,16.1119 288.2807,16.1122 288.6127,16.1529 288.9471,16.2339 289.2808,16.3156 289.5613,16.4187 289.7889,16.5434 L 289.7889,17.6121 289.7351,17.6121 C 289.4745,17.3946 289.1846,17.2223 288.865,17.0957 288.5448,16.9696 288.2221,16.9064 287.897,16.9061 287.5612,16.9064 287.2779,16.9741 287.047,17.1088 286.8156,17.2443 286.7002,17.4483 286.7002,17.7211 286.7002,17.9631 286.7701,18.1437 286.9104,18.2629 287.0503,18.3826 287.2759,18.4804 287.5868,18.5566 287.7346,18.5946 287.8991,18.6314 288.0797,18.667 288.2603,18.7031 288.4507,18.7449 288.6513,18.7924 289.0877,18.8983 289.4159,19.0741 289.6358,19.3198 289.8551,19.5661 289.965,19.9007 289.9654,20.3245 289.965,20.5709 289.9151,20.8043 289.8157,21.0242 289.7158,21.2445 289.57,21.433 289.378,21.5903 289.1681,21.7612 288.9312,21.8912 288.6678,21.9798 288.4037,22.0684 288.0728,22.1125 287.6751,22.1129 Z" />
		<path style="fill-opacity:0.19742982;fill:#000000;" d="M 291.4657,22.0246 L 290.4949,22.0246 290.4949,16.2884 291.4657,16.2884 291.4657,22.0246 Z M 291.5539,15.3176 L 290.4067,15.3176 290.4067,14.3469 291.5539,14.3469 291.5539,15.3176 Z" />
		<path style="fill-opacity:0.19742982;fill:#000000;" d="M 293.8526,22.1129 C 293.4606,22.1125 293.0944,22.0605 292.7536,21.9563 292.4122,21.8523 292.1299,21.7413 291.9069,21.6234 L 291.9069,20.5244 291.9593,20.5244 C 292.0447,20.5936 292.1448,20.6695 292.2599,20.7525 292.3743,20.836 292.527,20.9232 292.7177,21.0139 292.8876,21.0942 293.0741,21.1649 293.2775,21.2262 293.4802,21.288 293.6912,21.3189 293.9104,21.3186 294.069,21.3189 294.2386,21.3007 294.4192,21.2642 294.5992,21.2279 294.7336,21.1821 294.8219,21.1269 294.946,21.048 295.0353,20.9636 295.0901,20.8732 295.1446,20.7832 295.1718,20.6485 295.1722,20.4692 295.1718,20.2386 295.1045,20.0645 294.9702,19.9466 294.8353,19.829 294.5961,19.7308 294.2524,19.6515 294.1252,19.6216 293.9597,19.5864 293.756,19.546 293.5516,19.5064 293.3637,19.4629 293.192,19.4157 292.7425,19.2892 292.4157,19.0931 292.2123,18.8276 292.0082,18.5626 291.9065,18.2416 291.9069,17.8645 291.9065,17.3474 292.1089,16.9258 292.5143,16.6 292.919,16.2749 293.4571,16.1122 294.1283,16.1119 294.4582,16.1122 294.7902,16.1529 295.1246,16.2339 295.4583,16.3156 295.7388,16.4187 295.9664,16.5434 L 295.9664,17.6121 295.9126,17.6121 C 295.652,17.3946 295.3621,17.2223 295.0425,17.0957 294.7223,16.9696 294.3995,16.9064 294.0745,16.9061 293.7387,16.9064 293.4554,16.9741 293.2245,17.1088 292.9931,17.2443 292.8777,17.4483 292.8777,17.7211 292.8777,17.9631 292.9476,18.1437 293.0879,18.2629 293.2278,18.3826 293.4534,18.4804 293.7643,18.5566 293.9121,18.5946 294.0766,18.6314 294.2572,18.667 294.4378,18.7031 294.6282,18.7449 294.8288,18.7924 295.2652,18.8983 295.5934,19.0741 295.8133,19.3198 296.0325,19.5661 296.1425,19.9007 296.1429,20.3245 296.1425,20.5709 296.0926,20.8043 295.9932,21.0242 295.8933,21.2445 295.7475,21.433 295.5555,21.5903 295.3456,21.7612 295.1087,21.8912 294.8453,21.9798 294.5812,22.0684 294.2503,22.1125 293.8526,22.1129 Z" />
		<path style="fill-opacity:0.19742982;fill:#000000;" d="M 280.342,53.2941 C 279.8408,53.2937 279.3798,53.2089 278.9589,53.039 278.5377,52.869 278.174,52.616 277.8682,52.2792 277.5618,51.9431 277.3246,51.5233 277.1568,51.0195 276.9882,50.5167 276.904,49.9389 276.9044,49.287 276.904,48.6382 276.9857,48.0729 277.1491,47.5902 277.3122,47.1083 277.55,46.6884 277.8628,46.3306 278.1688,45.9835 278.5315,45.7187 278.9507,45.5364 279.3699,45.3547 279.8387,45.2637 280.3572,45.2633 280.6153,45.2637 280.857,45.2823 281.0825,45.3192 281.3076,45.3568 281.5161,45.4044 281.7085,45.4619 281.8726,45.5129 282.0418,45.5764 282.216,45.6522 282.3894,45.7287 282.5603,45.8121 282.7289,45.9031 L 282.7289,47.1166 282.6461,47.1166 C 282.5568,47.038 282.4417,46.9422 282.3007,46.8297 282.1594,46.7178 281.9877,46.607 281.7857,46.4974 281.5889,46.3957 281.3755,46.3116 281.1452,46.2451 280.9149,46.1792 280.6485,46.1462 280.3462,46.1458 280.0197,46.1462 279.7105,46.2141 279.4181,46.3492 279.1258,46.485 278.8694,46.6847 278.6487,46.9484 278.4325,47.2125 278.2643,47.544 278.1441,47.9432 278.0234,48.3428 277.963,48.7919 277.9634,49.2911 277.963,49.8227 278.0268,50.2805 278.1544,50.6638 278.2816,51.0479 278.455,51.3715 278.6749,51.6352 278.888,51.8928 279.1389,52.0865 279.4278,52.2165 279.7163,52.3468 280.0224,52.412 280.3462,52.4116 280.6419,52.412 280.9153,52.3768 281.1666,52.3061 281.4172,52.2361 281.6406,52.1472 281.8367,52.0393 282.0256,51.9359 282.1891,51.8293 282.3269,51.7201 282.4642,51.6115 282.5724,51.5184 282.6517,51.4408 L 282.7289,51.4408 282.7289,52.6419 C 282.5603,52.7201 282.4014,52.7949 282.2525,52.8659 282.1029,52.9373 281.9215,53.0069 281.7085,53.0749 281.4848,53.1466 281.278,53.2007 281.0873,53.2382 280.8963,53.2751 280.6478,53.2937 280.342,53.2941 Z" />
		<path style="fill-opacity:0.19742982;fill:#000000;" d="M 284.4057,53.1176 L 283.4349,53.1176 283.4349,47.3813 284.4057,47.3813 284.4057,53.1176 Z M 284.4939,46.4106 L 283.3467,46.4106 283.3467,45.4398 284.4939,45.4398 284.4939,46.4106 Z" />
		<path style="fill-opacity:0.19742982;fill:#000000;" d="M 286.7926,53.2058 C 286.4006,53.2055 286.0344,53.1534 285.6936,53.0493 285.3522,52.9452 285.0699,52.8342 284.8469,52.7163 L 284.8469,51.6173 284.8993,51.6173 C 284.9848,51.6866 285.0848,51.7625 285.1999,51.8456 285.3143,51.9289 285.467,52.0162 285.6577,52.1069 285.8276,52.1872 286.0141,52.2579 286.2175,52.3192 286.4202,52.3809 286.6312,52.412 286.8504,52.4116 287.009,52.412 287.1786,52.3936 287.3592,52.3571 287.5392,52.3209 287.6736,52.2751 287.7619,52.2199 287.886,52.141 287.9753,52.0565 288.0301,51.9662 288.0846,51.8763 288.1118,51.7414 288.1122,51.5622 288.1118,51.3315 288.0445,51.1575 287.9102,51.0396 287.7753,50.9221 287.5361,50.8237 287.1924,50.7445 287.0652,50.7145 286.8997,50.6793 286.696,50.639 286.4916,50.5994 286.3037,50.5559 286.132,50.5087 285.6825,50.3822 285.3557,50.1861 285.1523,49.9205 284.9482,49.6555 284.8465,49.3346 284.8469,48.9574 284.8465,48.4403 285.0489,48.0188 285.4543,47.6929 285.859,47.3679 286.3971,47.2052 287.0683,47.2048 287.3982,47.2052 287.7302,47.2459 288.0646,47.3269 288.3983,47.4085 288.6788,47.5116 288.9064,47.6364 L 288.9064,48.7051 288.8526,48.7051 C 288.592,48.4876 288.3021,48.3152 287.9825,48.1887 287.6623,48.0625 287.3396,47.9995 287.0145,47.9991 286.6787,47.9995 286.3954,48.067 286.1645,48.2017 285.9331,48.3372 285.8177,48.5414 285.8177,48.814 285.8177,49.056 285.8876,49.2367 286.0279,49.356 286.1678,49.4755 286.3934,49.5735 286.7043,49.6496 286.8521,49.6876 287.0166,49.7245 287.1972,49.7599 287.3778,49.7962 287.5682,49.8379 287.7688,49.8855 288.2052,49.9913 288.5334,50.167 288.7533,50.4129 288.9726,50.659 289.0825,50.9938 289.0829,51.4174 289.0825,51.6639 289.0326,51.8972 288.9332,52.1172 288.8333,52.3374 288.6875,52.526 288.4955,52.6832 288.2856,52.8542 288.0487,52.9842 287.7853,53.0728 287.5212,53.1613 287.1903,53.2055 286.7926,53.2058 Z" />
		<path style="fill-opacity:0.19742982;fill:#000000;" d="M 290.5832,53.1176 L 289.6124,53.1176 289.6124,47.3813 290.5832,47.3813 290.5832,53.1176 Z M 290.6714,46.4106 L 289.5242,46.4106 289.5242,45.4398 290.6714,45.4398 290.6714,46.4106 Z" />
		<path style="fill-opacity:0.19742982;fill:#000000;" d="M 292.9701,53.2058 C 292.5781,53.2055 292.2119,53.1534 291.8711,53.0493 291.5297,52.9452 291.2474,52.8342 291.0244,52.7163 L 291.0244,51.6173 291.0768,51.6173 C 291.1622,51.6866 291.2623,51.7625 291.3774,51.8456 291.4918,51.9289 291.6445,52.0162 291.8352,52.1069 292.0051,52.1872 292.1916,52.2579 292.395,52.3192 292.5977,52.3809 292.8087,52.412 293.0279,52.4116 293.1865,52.412 293.3561,52.3936 293.5367,52.3571 293.7167,52.3209 293.8511,52.2751 293.9394,52.2199 294.0635,52.141 294.1528,52.0565 294.2076,51.9662 294.2621,51.8763 294.2893,51.7414 294.2897,51.5622 294.2893,51.3315 294.222,51.1575 294.0877,51.0396 293.9528,50.9221 293.7136,50.8237 293.3699,50.7445 293.2427,50.7145 293.0772,50.6793 292.8735,50.639 292.6691,50.5994 292.4812,50.5559 292.3095,50.5087 291.86,50.3822 291.5332,50.1861 291.3298,49.9205 291.1257,49.6555 291.024,49.3346 291.0244,48.9574 291.024,48.4403 291.2264,48.0188 291.6318,47.6929 292.0365,47.3679 292.5746,47.2052 293.2458,47.2048 293.5757,47.2052 293.9077,47.2459 294.2421,47.3269 294.5758,47.4085 294.8563,47.5116 295.0839,47.6364 L 295.0839,48.7051 295.0301,48.7051 C 294.7695,48.4876 294.4796,48.3152 294.16,48.1887 293.8398,48.0625 293.5171,47.9995 293.192,47.9991 292.8562,47.9995 292.5729,48.067 292.342,48.2017 292.1106,48.3372 291.9952,48.5414 291.9952,48.814 291.9952,49.056 292.0651,49.2367 292.2054,49.356 292.3453,49.4755 292.5709,49.5735 292.8818,49.6496 293.0296,49.6876 293.1941,49.7245 293.3747,49.7599 293.5553,49.7962 293.7457,49.8379 293.9463,49.8855 294.3827,49.9913 294.7109,50.167 294.9308,50.4129 295.1501,50.659 295.26,50.9938 295.2604,51.4174 295.26,51.6639 295.2101,51.8972 295.1107,52.1172 295.0108,52.3374 294.865,52.526 294.673,52.6832 294.4631,52.8542 294.2262,52.9842 293.9628,53.0728 293.6987,53.1613 293.3678,53.2055 292.9701,53.2058 Z" />
		<path style="stroke:#000000;stroke-width:0.44;stroke-miterlimit:4.0;stroke-opacity:0.23999999;fill:url(#grad8);" d="M 0.8925,62.3131 L 0.8925,93.4061 59.5807,93.4061 59.5807,62.3131 0.8925,62.3131 Z" />
		<path style="fill:#898a8c;" d="M 25.5437,80.6664 C 25.5434,81.3669 25.4028,81.9991 25.1218,82.563 24.8402,83.1271 24.463,83.5673 23.9897,83.8834 23.6043,84.1281 23.2131,84.2915 22.8162,84.3736 22.4188,84.456 21.9117,84.497 21.2953,84.497 L 19.5427,84.497 19.5427,76.8193 21.276,76.8193 C 21.991,76.8193 22.5522,76.8738 22.9597,76.9819 23.3668,77.0909 23.7132,77.2392 23.9993,77.4273 24.4899,77.7538 24.8702,78.1878 25.1397,78.7291 25.409,79.2706 25.5434,79.9163 25.5437,80.6664 Z M 24.4847,80.6499 C 24.4844,80.0607 24.3886,79.5578 24.1973,79.1407 24.0053,78.7239 23.7211,78.3987 23.3444,78.165 23.0797,78.001 22.7955,77.8824 22.4929,77.81 22.1895,77.7379 21.8131,77.7021 21.3629,77.7018 L 20.6017,77.7018 20.6017,83.6145 21.3629,83.6145 C 21.8069,83.6148 22.1951,83.5787 22.5281,83.5062 22.8604,83.4342 23.1648,83.3008 23.4409,83.1057 23.7874,82.8651 24.048,82.5448 24.2228,82.1452 24.3972,81.7461 24.4844,81.2476 24.4847,80.6499 Z" />
		<path style="fill:#898a8c;" d="M 29.0158,84.5853 C 28.0833,84.5849 27.3598,84.3288 26.8454,83.8159 26.3304,83.3032 26.0732,82.5744 26.0732,81.6302 26.0732,80.7002 26.3214,79.9601 26.8185,79.4095 27.3149,78.8597 27.9647,78.5846 28.7676,78.5843 29.1296,78.5846 29.4495,78.6353 29.7273,78.7366 30.0048,78.8383 30.2479,78.9972 30.4568,79.213 30.665,79.4291 30.825,79.6936 30.9366,80.0066 31.0477,80.3196 31.1034,80.7029 31.1034,81.1559 L 31.1034,81.673 27.044,81.673 C 27.0437,82.3314 27.216,82.834 27.561,83.1816 27.9055,83.529 28.3819,83.7028 28.9896,83.7028 29.2075,83.7028 29.4212,83.6786 29.6308,83.6297 29.8404,83.5814 30.0293,83.5183 30.1975,83.4408 30.3768,83.3612 30.5278,83.2835 30.6512,83.2084 30.7739,83.1336 30.876,83.0633 30.9573,82.9968 L 31.0152,82.9968 31.0152,84.0999 C 30.9001,84.1451 30.7574,84.2012 30.5864,84.2681 30.4154,84.3353 30.2617,84.3877 30.1258,84.4253 29.9335,84.4767 29.7598,84.5159 29.6046,84.5439 29.4488,84.5711 29.2526,84.5849 29.0158,84.5853 Z M 30.1327,80.967 C 30.1252,80.7081 30.0938,80.4844 30.0382,80.2961 29.9824,80.1083 29.9021,79.9497 29.7977,79.8198 29.6825,79.6767 29.5354,79.5671 29.3564,79.4916 29.1768,79.4164 28.9548,79.3788 28.6904,79.3785 28.4291,79.3788 28.2071,79.4171 28.0244,79.4937 27.841,79.5705 27.6749,79.6825 27.5252,79.8294 27.3791,79.9804 27.2674,80.1469 27.1908,80.3292 27.1136,80.5119 27.0647,80.7247 27.044,80.967 L 30.1327,80.967 Z" />
		<path style="fill:#898a8c;" d="M 34.2846,84.5853 C 33.8926,84.5849 33.5266,84.5329 33.1856,84.4287 32.8444,84.3247 32.562,84.2136 32.3389,84.0958 L 32.3389,82.9968 32.3914,82.9968 C 32.4769,83.066 32.5769,83.1418 32.6919,83.2249 32.8064,83.3084 32.9591,83.3956 33.1498,83.4863 33.3198,83.5665 33.5062,83.6373 33.7096,83.6986 33.9123,83.7604 34.1233,83.7913 34.3425,83.791 34.5011,83.7913 34.6707,83.7731 34.8513,83.7365 35.0313,83.7003 35.1658,83.6545 35.254,83.5994 35.3781,83.5203 35.4674,83.436 35.5222,83.3456 35.5766,83.2556 35.6039,83.1209 35.6042,82.9415 35.6039,82.7109 35.5366,82.5369 35.4022,82.419 35.2675,82.3014 35.0282,82.2032 34.6845,82.1239 34.5573,82.094 34.3918,82.0588 34.1881,82.0184 33.9837,81.9788 33.7958,81.9353 33.6241,81.8881 33.1746,81.7616 32.8477,81.5655 32.6444,81.3 32.4404,81.035 32.3387,80.7139 32.3389,80.3369 32.3387,79.8198 32.5409,79.3982 32.9463,79.0724 33.3511,78.7473 33.8892,78.5846 34.5604,78.5843 34.8903,78.5846 35.2223,78.6253 35.5567,78.7063 35.8904,78.788 36.171,78.8911 36.3984,79.0158 L 36.3984,80.0845 36.3447,80.0845 C 36.0841,79.867 35.7941,79.6946 35.4746,79.5681 35.1544,79.4419 34.8317,79.3788 34.5066,79.3785 34.1708,79.3788 33.8875,79.4465 33.6565,79.5812 33.4252,79.7167 33.3097,79.9207 33.3097,80.1935 33.3097,80.4355 33.3797,80.6161 33.52,80.7353 33.66,80.855 33.8854,80.9528 34.1963,81.029 34.3442,81.0669 34.5087,81.1038 34.6893,81.1394 34.87,81.1755 35.0602,81.2173 35.2609,81.2648 35.6973,81.3706 36.0255,81.5465 36.2454,81.7922 36.4647,82.0384 36.5747,82.3731 36.5749,82.7968 36.5747,83.0432 36.5246,83.2767 36.4254,83.4966 36.3254,83.7169 36.1796,83.9054 35.9876,84.0626 35.7776,84.2336 35.5408,84.3636 35.2774,84.4521 35.0134,84.5408 34.6825,84.5849 34.2846,84.5853 Z" />
		<path style="fill:#898a8c;" d="M 39.6058,84.5853 C 38.6733,84.5849 37.9498,84.3288 37.4354,83.8159 36.9204,83.3032 36.6632,82.5744 36.6632,81.6302 36.6632,80.7002 36.9114,79.9601 37.4085,79.4095 37.9049,78.8597 38.5547,78.5846 39.3576,78.5843 39.7196,78.5846 40.0395,78.6353 40.3173,78.7366 40.5948,78.8383 40.8378,78.9972 41.0468,79.213 41.255,79.4291 41.415,79.6936 41.5266,80.0066 41.6376,80.3196 41.6934,80.7029 41.6934,81.1559 L 41.6934,81.673 37.6339,81.673 C 37.6337,82.3314 37.806,82.834 38.151,83.1816 38.4955,83.529 38.9719,83.7028 39.5796,83.7028 39.7975,83.7028 40.0112,83.6786 40.2208,83.6297 40.4304,83.5814 40.6193,83.5183 40.7875,83.4408 40.9667,83.3612 41.1177,83.2835 41.2412,83.2084 41.3639,83.1336 41.4659,83.0633 41.5473,82.9968 L 41.6052,82.9968 41.6052,84.0999 C 41.4901,84.1451 41.3474,84.2012 41.1764,84.2681 41.0054,84.3353 40.8517,84.3877 40.7158,84.4253 40.5235,84.4767 40.3497,84.5159 40.1946,84.5439 40.0388,84.5711 39.8426,84.5849 39.6058,84.5853 Z M 40.7227,80.967 C 40.7152,80.7081 40.6837,80.4844 40.6282,80.2961 40.5724,80.1083 40.4921,79.9497 40.3877,79.8198 40.2725,79.6767 40.1254,79.5671 39.9464,79.4916 39.7668,79.4164 39.5448,79.3788 39.2804,79.3785 39.0191,79.3788 38.7971,79.4171 38.6144,79.4937 38.431,79.5705 38.2649,79.6825 38.1152,79.8294 37.9691,79.9804 37.8574,80.1469 37.7808,80.3292 37.7036,80.5119 37.6546,80.7247 37.6339,80.967 L 40.7227,80.967 Z" />
		<path style="fill:#898a8c;" d="M 44.8746,84.5853 C 44.4826,84.5849 44.1166,84.5329 43.7756,84.4287 43.4344,84.3247 43.152,84.2136 42.9289,84.0958 L 42.9289,82.9968 42.9813,82.9968 C 43.0669,83.066 43.1669,83.1418 43.2819,83.2249 43.3964,83.3084 43.5491,83.3956 43.7397,83.4863 43.9098,83.5665 44.0962,83.6373 44.2996,83.6986 44.5023,83.7604 44.7133,83.7913 44.9325,83.791 45.0911,83.7913 45.2607,83.7731 45.4413,83.7365 45.6213,83.7003 45.7558,83.6545 45.844,83.5994 45.9681,83.5203 46.0574,83.436 46.1121,83.3456 46.1666,83.2556 46.1939,83.1209 46.1942,82.9415 46.1939,82.7109 46.1266,82.5369 45.9922,82.419 45.8575,82.3014 45.6182,82.2032 45.2745,82.1239 45.1473,82.094 44.9818,82.0588 44.778,82.0184 44.5737,81.9788 44.3858,81.9353 44.2141,81.8881 43.7646,81.7616 43.4377,81.5655 43.2344,81.3 43.0304,81.035 42.9287,80.7139 42.9289,80.3369 42.9287,79.8198 43.1309,79.3982 43.5363,79.0724 43.9411,78.7473 44.4792,78.5846 45.1504,78.5843 45.4803,78.5846 45.8123,78.6253 46.1467,78.7063 46.4804,78.788 46.7609,78.8911 46.9884,79.0158 L 46.9884,80.0845 46.9347,80.0845 C 46.6741,79.867 46.3841,79.6946 46.0646,79.5681 45.7444,79.4419 45.4217,79.3788 45.0966,79.3785 44.7608,79.3788 44.4775,79.4465 44.2465,79.5812 44.0152,79.7167 43.8997,79.9207 43.8997,80.1935 43.8997,80.4355 43.9697,80.6161 44.11,80.7353 44.25,80.855 44.4754,80.9528 44.7863,81.029 44.9342,81.0669 45.0987,81.1038 45.2793,81.1394 45.46,81.1755 45.6502,81.2173 45.8509,81.2648 46.2873,81.3706 46.6155,81.5465 46.8354,81.7922 47.0547,82.0384 47.1647,82.3731 47.1649,82.7968 47.1647,83.0432 47.1146,83.2767 47.0153,83.4966 46.9154,83.7169 46.7696,83.9054 46.5776,84.0626 46.3676,84.2336 46.1308,84.3636 45.8674,84.4521 45.6033,84.5408 45.2725,84.5849 44.8746,84.5853 Z" />
		<path style="stroke:#000000;stroke-width:0.44;stroke-miterlimit:4.0;stroke-opacity:0.23999999;fill:url(#grad9);" d="M 0.8925,31.218 L 0.8925,62.3109 59.5807,62.3109 59.5807,31.218 0.8925,31.218 Z" />
		<path style="fill:#898a8c;" d="M 19.5427,53.4018 L 19.5427,45.7241 24.3082,45.7241 24.3082,46.6066 20.6017,46.6066 20.6017,48.7246 24.0435,48.7246 24.0435,49.6071 20.6017,49.6071 20.6017,52.5193 24.3082,52.5193 24.3082,53.4018 19.5427,53.4018 Z" />
		<path style="fill:#898a8c;" d="M 27.2246,53.4901 C 26.8326,53.4897 26.4666,53.4377 26.1256,53.3335 25.7844,53.2295 25.502,53.1184 25.279,53.0005 L 25.279,51.9016 25.3314,51.9016 C 25.4169,51.9708 25.5169,52.0466 25.632,52.1298 25.7465,52.2132 25.8992,52.3004 26.0898,52.3911 26.2598,52.4714 26.4462,52.5421 26.6497,52.6034 26.8523,52.6651 27.0633,52.6962 27.2825,52.6958 27.4411,52.6962 27.6107,52.6778 27.7913,52.6413 27.9713,52.6051 28.1058,52.5593 28.194,52.5042 28.3181,52.4252 28.4074,52.3407 28.4622,52.2504 28.5166,52.1605 28.5439,52.0257 28.5442,51.8464 28.5439,51.6157 28.4767,51.4417 28.3422,51.3238 28.2075,51.2062 27.9682,51.108 27.6245,51.0288 27.4973,50.9987 27.3318,50.9636 27.1281,50.9232 26.9237,50.8836 26.7358,50.8401 26.5641,50.7929 26.1146,50.6664 25.7878,50.4703 25.5844,50.2048 25.3804,49.9397 25.2787,49.6187 25.279,49.2416 25.2787,48.7246 25.481,48.303 25.8864,47.9772 26.2911,47.6521 26.8293,47.4894 27.5004,47.4891 27.8303,47.4894 28.1623,47.5301 28.4967,47.6111 28.8304,47.6928 29.111,47.7959 29.3385,47.9206 L 29.3385,48.9893 29.2847,48.9893 C 29.0241,48.7718 28.7342,48.5994 28.4146,48.4729 28.0944,48.3467 27.7717,48.2837 27.4466,48.2833 27.1108,48.2837 26.8275,48.3512 26.5965,48.486 26.3652,48.6215 26.2497,48.8255 26.2497,49.0983 26.2497,49.3402 26.3197,49.5209 26.46,49.6402 26.6,49.7598 26.8254,49.8577 27.1363,49.9338 27.2842,49.9717 27.4487,50.0087 27.6293,50.0442 27.81,50.0804 28.0002,50.1221 28.2009,50.1697 28.6373,50.2755 28.9655,50.4513 29.1854,50.6971 29.4047,50.9432 29.5147,51.278 29.515,51.7016 29.5147,51.9481 29.4646,52.1815 29.3654,52.4014 29.2654,52.6217 29.1196,52.8102 28.9276,52.9674 28.7176,53.1385 28.4808,53.2684 28.2175,53.357 27.9534,53.4456 27.6225,53.4897 27.2246,53.4901 Z" />
		<path style="fill:#898a8c;" d="M 32.5458,53.4901 C 31.6133,53.4897 30.8898,53.2336 30.3754,52.7206 29.8604,52.208 29.6032,51.4792 29.6032,50.5351 29.6032,49.605 29.8514,48.8648 30.3485,48.3144 30.8449,47.7644 31.4947,47.4894 32.2976,47.4891 32.6596,47.4894 32.9795,47.5401 33.2573,47.6414 33.5348,47.7431 33.7779,47.902 33.9868,48.1178 34.195,48.334 34.355,48.5984 34.4666,48.9114 34.5777,49.2244 34.6334,49.6077 34.6334,50.0607 L 34.6334,50.5778 30.574,50.5778 C 30.5737,51.2362 30.746,51.7388 31.091,52.0863 31.4355,52.4338 31.9119,52.6076 32.5196,52.6076 32.7375,52.6076 32.9512,52.5834 33.1608,52.5345 33.3704,52.4862 33.5593,52.4232 33.7275,52.3455 33.9067,52.2659 34.0578,52.1883 34.1812,52.1132 34.3039,52.0385 34.406,51.9681 34.4873,51.9016 L 34.5452,51.9016 34.5452,53.0047 C 34.4301,53.0498 34.2874,53.106 34.1164,53.1729 33.9454,53.2401 33.7917,53.2925 33.6558,53.3301 33.4635,53.3815 33.2898,53.4207 33.1346,53.4487 32.9788,53.4759 32.7826,53.4897 32.5458,53.4901 Z M 33.6627,49.8718 C 33.6552,49.6129 33.6237,49.3892 33.5682,49.201 33.5124,49.0131 33.4321,48.8545 33.3277,48.7246 33.2125,48.5815 33.0654,48.4719 32.8864,48.3964 32.7068,48.3212 32.4848,48.2837 32.2204,48.2833 31.9591,48.2837 31.7371,48.3219 31.5544,48.3985 31.371,48.4753 31.2049,48.5874 31.0552,48.7343 30.9091,48.8852 30.7974,49.0517 30.7208,49.234 30.6436,49.4167 30.5946,49.6295 30.574,49.8718 L 33.6627,49.8718 Z" />
		<path style="fill:#898a8c;" d="M 37.8146,53.4901 C 37.4226,53.4897 37.0566,53.4377 36.7156,53.3335 36.3744,53.2295 36.092,53.1184 35.8689,53.0005 L 35.8689,51.9016 35.9213,51.9016 C 36.0069,51.9708 36.1069,52.0466 36.2219,52.1298 36.3364,52.2132 36.4891,52.3004 36.6798,52.3911 36.8498,52.4714 37.0362,52.5421 37.2396,52.6034 37.4423,52.6651 37.6533,52.6962 37.8725,52.6958 38.0311,52.6962 38.2007,52.6778 38.3813,52.6413 38.5613,52.6051 38.6958,52.5593 38.784,52.5042 38.9081,52.4252 38.9974,52.3407 39.0522,52.2504 39.1066,52.1605 39.1339,52.0257 39.1342,51.8464 39.1339,51.6157 39.0666,51.4417 38.9322,51.3238 38.7975,51.2062 38.5582,51.108 38.2145,51.0288 38.0873,50.9987 37.9218,50.9636 37.7181,50.9232 37.5137,50.8836 37.3258,50.8401 37.1541,50.7929 36.7046,50.6664 36.3777,50.4703 36.1744,50.2048 35.9704,49.9397 35.8687,49.6187 35.8689,49.2416 35.8687,48.7246 36.0709,48.303 36.4763,47.9772 36.8811,47.6521 37.4192,47.4894 38.0904,47.4891 38.4203,47.4894 38.7523,47.5301 39.0867,47.6111 39.4204,47.6928 39.7009,47.7959 39.9284,47.9206 L 39.9284,48.9893 39.8747,48.9893 C 39.6141,48.7718 39.3241,48.5994 39.0046,48.4729 38.6844,48.3467 38.3617,48.2837 38.0366,48.2833 37.7008,48.2837 37.4175,48.3512 37.1865,48.486 36.9552,48.6215 36.8397,48.8255 36.8397,49.0983 36.8397,49.3402 36.9097,49.5209 37.05,49.6402 37.19,49.7598 37.4154,49.8577 37.7263,49.9338 37.8742,49.9717 38.0387,50.0087 38.2193,50.0442 38.4,50.0804 38.5902,50.1221 38.7909,50.1697 39.2273,50.2755 39.5555,50.4513 39.7754,50.6971 39.9947,50.9432 40.1047,51.278 40.1049,51.7016 40.1047,51.9481 40.0546,52.1815 39.9554,52.4014 39.8554,52.6217 39.7096,52.8102 39.5176,52.9674 39.3076,53.1385 39.0708,53.2684 38.8074,53.357 38.5434,53.4456 38.2125,53.4897 37.8146,53.4901 Z" />
		<path style="stroke:#000000;stroke-width:0.44;stroke-miterlimit:4.0;stroke-opacity:0.23999999;fill:url(#grad10);" d="M 0.8925,0.1228 L 0.8925,31.2157 59.5807,31.2157 59.5807,0.1228 0.8925,0.1228 Z" />
		<path style="fill:#898a8c;" d="M 24.1317,15.5114 L 20.6017,15.5114 20.6017,17.7176 23.9552,17.7176 23.9552,18.6001 20.6017,18.6001 20.6017,22.3066 19.5427,22.3066 19.5427,14.6289 24.1317,14.6289 24.1317,15.5114 Z" />
		<path style="fill:#898a8c;" d="M 27.2508,22.3949 C 26.3183,22.3945 25.5948,22.1384 25.0804,21.6254 24.5654,21.1128 24.3082,20.3841 24.3082,19.4399 24.3082,18.5098 24.5564,17.7696 25.0535,17.2192 25.5499,16.6693 26.1997,16.3942 27.0027,16.3939 27.3646,16.3942 27.6845,16.4448 27.9623,16.5463 28.2398,16.648 28.4829,16.8069 28.6918,17.0226 28.9,17.2388 29.06,17.5032 29.1716,17.8162 29.2827,18.1292 29.3385,18.5125 29.3385,18.9655 L 29.3385,19.4826 25.279,19.4826 C 25.2787,20.141 25.451,20.6437 25.796,20.9911 26.1405,21.3386 26.6169,21.5124 27.2246,21.5124 27.4425,21.5124 27.6562,21.4883 27.8658,21.4392 28.0754,21.391 28.2643,21.3279 28.4325,21.2503 28.6118,21.1707 28.7628,21.0932 28.8862,21.018 29.0089,20.9432 29.111,20.8729 29.1923,20.8064 L 29.2502,20.8064 29.2502,21.9095 C 29.1351,21.9546 28.9924,22.0108 28.8214,22.0777 28.6504,22.145 28.4967,22.1974 28.3608,22.2349 28.1685,22.2863 27.9948,22.3256 27.8396,22.3535 27.6838,22.3807 27.4876,22.3945 27.2508,22.3949 Z M 28.3677,18.7766 C 28.3602,18.5177 28.3288,18.294 28.2732,18.1058 28.2175,17.9179 28.1371,17.7593 28.0327,17.6294 27.9175,17.4863 27.7704,17.3766 27.5914,17.3012 27.4118,17.226 27.1898,17.1885 26.9254,17.1881 26.6641,17.1885 26.4421,17.2267 26.2594,17.3033 26.076,17.3801 25.9099,17.4922 25.7602,17.639 25.6141,17.79 25.5024,17.9565 25.4258,18.1389 25.3486,18.3216 25.2997,18.5342 25.279,18.7766 L 28.3677,18.7766 Z" />
		<path style="fill:#898a8c;" d="M 32.5196,22.3949 C 32.1276,22.3945 31.7616,22.3424 31.4206,22.2384 31.0794,22.1342 30.797,22.0232 30.574,21.9053 L 30.574,20.8064 30.6264,20.8064 C 30.7119,20.8757 30.8119,20.9515 30.9269,21.0346 31.0414,21.118 31.1941,21.2052 31.3848,21.2959 31.5548,21.3762 31.7412,21.4469 31.9446,21.5082 32.1473,21.5699 32.3583,21.601 32.5775,21.6006 32.7361,21.601 32.9057,21.5827 33.0863,21.5461 33.2663,21.5099 33.4008,21.4641 33.489,21.409 33.6131,21.33 33.7024,21.2455 33.7572,21.1552 33.8116,21.0653 33.8389,20.9304 33.8392,20.7512 33.8389,20.5206 33.7716,20.3465 33.6372,20.2286 33.5025,20.1111 33.2632,20.0128 32.9195,19.9335 32.7923,19.9035 32.6268,19.8683 32.4231,19.828 32.2187,19.7884 32.0308,19.7449 31.8591,19.6977 31.4096,19.5712 31.0828,19.3751 30.8794,19.1097 30.6754,18.8445 30.5737,18.5236 30.574,18.1464 30.5737,17.6294 30.7759,17.2078 31.1814,16.882 31.5861,16.5569 32.1243,16.3942 32.7954,16.3939 33.1253,16.3942 33.4573,16.4349 33.7917,16.5159 34.1254,16.5976 34.406,16.7007 34.6334,16.8255 L 34.6334,17.8941 34.5797,17.8941 C 34.3191,17.6766 34.0292,17.5042 33.7096,17.3777 33.3894,17.2515 33.0667,17.1885 32.7416,17.1881 32.4058,17.1885 32.1225,17.256 31.8915,17.3909 31.6602,17.5263 31.5447,17.7304 31.5447,18.0031 31.5447,18.245 31.6147,18.4257 31.755,18.545 31.895,18.6646 32.1204,18.7625 32.4313,18.8387 32.5792,18.8766 32.7437,18.9135 32.9243,18.949 33.105,18.9852 33.2952,19.0269 33.4959,19.0745 33.9323,19.1803 34.2605,19.3561 34.4804,19.6019 34.6997,19.848 34.8097,20.1828 34.8099,20.6064 34.8097,20.8529 34.7596,21.0863 34.6604,21.3062 34.5604,21.5265 34.4146,21.7151 34.2226,21.8722 34.0126,22.0433 33.7758,22.1732 33.5124,22.2618 33.2484,22.3504 32.9175,22.3945 32.5196,22.3949 Z" />
	</g>
</g>
</svg>