<?xml version="1.0" encoding="UTF-8" standalone="no"?>
<!-- Created with Inkscape (http://www.inkscape.org/) -->

<svg
   xmlns:dc="http://purl.org/dc/elements/1.1/"
   xmlns:cc="http://creativecommons.org/ns#"
   xmlns:rdf="http://www.w3.org/1999/02/22-rdf-syntax-ns#"
   xmlns:svg="http://www.w3.org/2000/svg"
   xmlns="http://www.w3.org/2000/svg"
   xmlns:xlink="http://www.w3.org/1999/xlink"
   xmlns:sodipodi="http://sodipodi.sourceforge.net/DTD/sodipodi-0.dtd"
   xmlns:inkscape="http://www.inkscape.org/namespaces/inkscape"
   width="89mm"
   height="37mm"
   viewBox="0 0 89 37"
   version="1.1"
   id="svg5604"
   inkscape:version="0.92.3 (2405546, 2018-03-11)"
   sodipodi:docname="interval.svg">
  <defs
     id="defs5598">
    <linearGradient
       id="grad57"
       x1="62.145004"
       y1="477.67636"
       x2="-0.61507952"
       gradientUnits="userSpaceOnUse"
       spreadMethod="pad"
       y2="477.67636"
       gradientTransform="matrix(0.26458333,0,0,0.26458333,-7.5e-6,260)">
      <stop
         id="stop4850"
         offset="0.0"
         style="stop-color:#000000;stop-opacity:0.0;" />
      <stop
         id="stop4852"
         offset="0.89999998"
         style="stop-color:#000000;stop-opacity:0.117647054298;" />
      <stop
         id="stop4854"
         offset="1.0"
         style="stop-color:#000000;stop-opacity:0.23999999;" />
    </linearGradient>
    <linearGradient
       id="grad56"
       x1="62.145004"
       y1="510.72714"
       x2="-0.61507952"
       gradientUnits="userSpaceOnUse"
       spreadMethod="pad"
       y2="510.72714"
       gradientTransform="matrix(0.26458333,0,0,0.26458333,-7.5e-6,260)">
      <stop
         id="stop4843"
         offset="0.0"
         style="stop-color:#000000;stop-opacity:0.0;" />
      <stop
         id="stop4845"
         offset="0.89999998"
         style="stop-color:#000000;stop-opacity:0.117647054298;" />
      <stop
         id="stop4847"
         offset="1.0"
         style="stop-color:#000000;stop-opacity:0.23999999;" />
    </linearGradient>
    <linearGradient
       id="grad55"
       x1="62.145004"
       y1="543.77795"
       x2="-0.61507952"
       gradientUnits="userSpaceOnUse"
       spreadMethod="pad"
       y2="543.77795"
       gradientTransform="matrix(0.26458333,0,0,0.26458333,-7.5e-6,260)">
      <stop
         id="stop4836"
         offset="0.0"
         style="stop-color:#000000;stop-opacity:0.0;" />
      <stop
         id="stop4838"
         offset="0.89999998"
         style="stop-color:#000000;stop-opacity:0.117647054298;" />
      <stop
         id="stop4840"
         offset="1.0"
         style="stop-color:#000000;stop-opacity:0.23999999;" />
    </linearGradient>
    <linearGradient
       id="grad54"
       x1="62.145004"
       y1="576.82874"
       x2="-0.61507952"
       gradientUnits="userSpaceOnUse"
       spreadMethod="pad"
       y2="576.82874"
       gradientTransform="matrix(0.26458333,0,0,0.26458333,-7.5e-6,260)">
      <stop
         id="stop4829"
         offset="0.0"
         style="stop-color:#000000;stop-opacity:0.0;" />
      <stop
         id="stop4831"
         offset="0.89999998"
         style="stop-color:#000000;stop-opacity:0.117647054298;" />
      <stop
         id="stop4833"
         offset="1.0"
         style="stop-color:#000000;stop-opacity:0.23999999;" />
    </linearGradient>
    <linearGradient
       id="grad51"
       x1="276.45825"
       y1="446.47534"
       x2="334.98639"
       gradientUnits="userSpaceOnUse"
       spreadMethod="pad"
       y2="446.47534">
      <stop
         id="stop4808"
         offset="0.0"
         style="stop-color:#000000;stop-opacity:0.0;" />
      <stop
         id="stop4810"
         offset="0.89999998"
         style="stop-color:#000000;stop-opacity:0.117647054298;" />
      <stop
         id="stop4812"
         offset="1.0"
         style="stop-color:#000000;stop-opacity:0.23999999;" />
    </linearGradient>
    <linearGradient
       id="grad21"
       x1="164.63382"
       y1="488.58252"
       x2="237.25101"
       gradientUnits="userSpaceOnUse"
       spreadMethod="pad"
       y2="488.58252"
       gradientTransform="matrix(0.26458333,0,0,0.26458333,-7.5e-6,260)">
      <stop
         id="stop4624"
         offset="0.0"
         style="stop-color:#6666ff;stop-opacity:1.0;" />
      <stop
         id="stop4626"
         offset="1.0"
         style="stop-color:#003399;stop-opacity:1.0;" />
    </linearGradient>
    <linearGradient
       id="grad20"
       x1="92.016571"
       y1="488.58252"
       x2="164.63382"
       gradientUnits="userSpaceOnUse"
       spreadMethod="pad"
       y2="488.58252"
       gradientTransform="matrix(0.26458333,0,0,0.26458333,-7.5e-6,260)">
      <stop
         id="stop4619"
         offset="0.0"
         style="stop-color:#00ccff;stop-opacity:1.0;" />
      <stop
         id="stop4621"
         offset="1.0"
         style="stop-color:#6666ff;stop-opacity:1.0;" />
    </linearGradient>
    <linearGradient
       id="grad15"
       x1="164.63382"
       y1="521.62927"
       x2="237.25101"
       gradientUnits="userSpaceOnUse"
       spreadMethod="pad"
       y2="521.62927"
       gradientTransform="matrix(0.26458333,0,0,0.26458333,-7.5e-6,260)">
      <stop
         id="stop4594"
         offset="0.0"
         style="stop-color:#6666ff;stop-opacity:1.0;" />
      <stop
         id="stop4596"
         offset="1.0"
         style="stop-color:#003399;stop-opacity:1.0;" />
    </linearGradient>
    <linearGradient
       id="grad14"
       x1="92.016571"
       y1="521.62927"
       x2="164.63382"
       gradientUnits="userSpaceOnUse"
       spreadMethod="pad"
       y2="521.62927"
       gradientTransform="matrix(0.26458333,0,0,0.26458333,-7.5e-6,260)">
      <stop
         id="stop4589"
         offset="0.0"
         style="stop-color:#00ccff;stop-opacity:1.0;" />
      <stop
         id="stop4591"
         offset="1.0"
         style="stop-color:#6666ff;stop-opacity:1.0;" />
    </linearGradient>
    <linearGradient
       inkscape:collect="always"
       xlink:href="#grad51"
       id="linearGradient6463"
       gradientUnits="userSpaceOnUse"
       x1="276.45825"
       y1="446.47534"
       x2="334.98639"
       y2="446.47534"
       spreadMethod="pad"
       gradientTransform="matrix(0.26458333,0,0,0.26458333,-7.5e-6,260)" />
    <linearGradient
       inkscape:collect="always"
       xlink:href="#grad51"
       id="linearGradient6465"
       gradientUnits="userSpaceOnUse"
       x1="276.45825"
       y1="446.47534"
       x2="334.98639"
       y2="446.47534"
       spreadMethod="pad"
       gradientTransform="matrix(0.26458333,0,0,0.26458333,-7.5e-6,260)" />
    <linearGradient
       inkscape:collect="always"
       xlink:href="#grad51"
       id="linearGradient6467"
       gradientUnits="userSpaceOnUse"
       x1="276.45825"
       y1="446.47534"
       x2="334.98639"
       y2="446.47534"
       spreadMethod="pad"
       gradientTransform="matrix(0.26458333,0,0,0.26458333,-7.5e-6,260)" />
    <linearGradient
       inkscape:collect="always"
       xlink:href="#grad51"
       id="linearGradient6469"
       gradientUnits="userSpaceOnUse"
       x1="276.45825"
       y1="446.47534"
       x2="334.98639"
       y2="446.47534"
       spreadMethod="pad"
       gradientTransform="matrix(0.26458333,0,0,0.26458333,-7.5e-6,260)" />
  </defs>
  <sodipodi:namedview
     id="base"
     pagecolor="#ffffff"
     bordercolor="#666666"
     borderopacity="1.0"
     inkscape:pageopacity="0.0"
     inkscape:pageshadow="2"
     inkscape:zoom="3.959798"
     inkscape:cx="-49.082858"
     inkscape:cy="34.962575"
     inkscape:document-units="mm"
     inkscape:current-layer="layer1"
     showgrid="false"
     inkscape:window-width="1600"
     inkscape:window-height="837"
     inkscape:window-x="-8"
     inkscape:window-y="-8"
     inkscape:window-maximized="1" />
  <metadata
     id="metadata5601">
    <rdf:RDF>
      <cc:Work
         rdf:about="">
        <dc:format>image/svg+xml</dc:format>
        <dc:type
           rdf:resource="http://purl.org/dc/dcmitype/StillImage" />
        <dc:title></dc:title>
      </cc:Work>
    </rdf:RDF>
  </metadata>
  <g
     inkscape:label="Layer 1"
     inkscape:groupmode="layer"
     id="layer1"
     transform="translate(0,-260)">
    <path
       inkscape:connector-curvature="0"
       id="path4955"
       d="m 72.385404,269.03132 v 8.74406 h 16.50444 v -8.74406 z"
       style="fill:url(#linearGradient6463);stroke:#000000;stroke-width:0.12374563;stroke-miterlimit:4;stroke-opacity:0.23999999">
      <title
         id="title8690">Cisis - 1</title>
    </path>
    <path
       inkscape:connector-curvature="0"
       id="path4967"
       d="m 16.614627,286.51824 v 8.74366 h 55.745196 v -8.74366 z"
       style="fill:none;stroke:#000000;stroke-width:0.12401021;stroke-miterlimit:4">
      <title
         id="title8680">H - Little</title>
    </path>
    <path
       class="class1"
       inkscape:label="#path4973"
       inkscape:connector-curvature="0"
       id="C-1"
       d="m 16.614627,277.77464 v 8.74366 h 55.745197 v -8.74366 z"
       onmouseover=".css('fill', 'pink')"
       onclick="fill:'pink'"
       onload="aleert('C-1 loaded')"
       style="stroke-width:0.26458332">
      <title
         id="title8686">C - 1</title>
    </path>
    <path
       inkscape:connector-curvature="0"
       id="path4979"
       d="m 16.614627,269.03103 v 8.74363 h 55.745196 v -8.74363 z"
       style="fill:none;stroke:#000000;stroke-width:0.12401021;stroke-miterlimit:4">
      <title
         id="title8698">D - 1</title>
    </path>
    <path
       inkscape:connector-curvature="0"
       id="path4985"
       d="m 16.614627,260.2874 v 8.74366 h 55.745196 v -8.74366 z"
       style="fill:none;stroke:#000000;stroke-width:0.12401021;stroke-miterlimit:4">
      <title
         id="title8706">E - 1</title>
    </path>
    <path
       inkscape:connector-curvature="0"
       id="path5013"
       d="m 24.456137,275.81923 v 4.09089 h 19.2133 v -4.09089 z"
       style="fill:url(#grad14);stroke-width:0.26458332">
      <title
         id="title8692">Cis - 1</title>
    </path>
    <path
       inkscape:connector-curvature="0"
       id="path5015"
       d="m 43.669437,275.81923 v 4.09089 h 19.2133 v -4.09089 z"
       style="fill:url(#grad15);stroke-width:0.26458332">
      <title
         id="title8694">Des - 1</title>
    </path>
    <path
       inkscape:connector-curvature="0"
       id="path5025"
       d="m 24.456137,267.07563 v 4.09085 h 19.2133 v -4.09085 z"
       style="fill:url(#grad20);stroke-width:0.26458332">
      <title
         id="title8700">Dis - 1</title>
    </path>
    <path
       inkscape:connector-curvature="0"
       id="path5027"
       d="m 43.669437,267.07563 v 4.09085 h 19.2133 v -4.09085 z"
       style="fill:url(#grad21);stroke-width:0.26458332">
      <title
         id="title8702">Es - 1</title>
    </path>
    <path
       inkscape:connector-curvature="0"
       id="path5057"
       d="m 22.914647,292.71127 h -0.29781 v -1.06717 h -0.9679 v 1.06717 h -0.29782 v -2.15916 h 0.29782 v 0.84381 h 0.9679 v -0.84381 h 0.29781 z"
       style="fill:#000000;stroke-width:0.26458332" />
    <path
       inkscape:connector-curvature="0"
       id="path5063"
       d="m 22.075497,284.06312 c -0.14095,-1e-4 -0.270561,-0.024 -0.38894,-0.0718 -0.11848,-0.0478 -0.22074,-0.11895 -0.30673,-0.21365 -0.0862,-0.0945 -0.152881,-0.21262 -0.20011,-0.35425 -0.0474,-0.14145 -0.0711,-0.30393 -0.071,-0.48723 -1.01e-4,-0.18246 0.0229,-0.34144 0.0688,-0.47718 0.0458,-0.13552 0.11274,-0.2536 0.20066,-0.35422 0.0861,-0.0976 0.1881,-0.17208 0.30597,-0.22336 0.1179,-0.0511 0.24974,-0.0767 0.39552,-0.0768 0.0726,8e-5 0.14058,0.005 0.204,0.0157 0.0633,0.0106 0.12194,0.0239 0.17605,0.0401 0.0461,0.0143 0.0937,0.0322 0.14269,0.0535 0.0488,0.0215 0.0968,0.045 0.14425,0.0706 v 0.34126 h -0.0233 c -0.0251,-0.0221 -0.0575,-0.049 -0.0971,-0.0807 -0.0397,-0.0315 -0.088,-0.0626 -0.14483,-0.0934 -0.0554,-0.0286 -0.11536,-0.0523 -0.18013,-0.071 -0.0647,-0.0185 -0.13967,-0.0278 -0.22471,-0.0279 -0.0918,8e-5 -0.17875,0.0192 -0.26098,0.0572 -0.0822,0.0382 -0.15434,0.0944 -0.21638,0.16851 -0.0608,0.0742 -0.10808,0.16751 -0.14192,0.27977 -0.0339,0.11237 -0.0509,0.23868 -0.0508,0.37907 -1.1e-4,0.14946 0.0178,0.27821 0.0537,0.38603 0.0358,0.108 0.0845,0.19902 0.146389,0.27318 0.0599,0.0724 0.13049,0.12689 0.21172,0.16346 0.0812,0.0367 0.16724,0.055 0.25826,0.0549 0.0832,8e-5 0.16005,-0.01 0.23074,-0.0297 0.0705,-0.0197 0.1333,-0.0447 0.18847,-0.075 0.0531,-0.0291 0.0991,-0.059 0.13784,-0.0898 0.0386,-0.0305 0.069,-0.0567 0.0913,-0.0785 h 0.0217 v 0.33774 c -0.0474,0.022 -0.0921,0.043 -0.13398,0.063 -0.0421,0.0201 -0.0931,0.0396 -0.15296,0.0587 -0.0629,0.0202 -0.1211,0.0354 -0.1747,0.046 -0.0537,0.0104 -0.12362,0.0156 -0.2096,0.0157 z"
       style="fill:#000000;stroke-width:0.26458332" />
    <path
       inkscape:connector-curvature="0"
       id="path5069"
       d="m 23.023467,274.1468 c -8e-5,0.19699 -0.0396,0.37479 -0.11864,0.5334 -0.0792,0.15859 -0.18526,0.28239 -0.31837,0.37129 -0.1084,0.0688 -0.21841,0.11478 -0.33001,0.13785 -0.11176,0.0232 -0.25437,0.0347 -0.4277,0.0347 h -0.49289 v -2.15916 h 0.48744 c 0.201079,0 0.358899,0.0153 0.4735,0.0458 0.11448,0.0306 0.2119,0.0723 0.29236,0.12526 0.13795,0.0918 0.2449,0.21383 0.3207,0.36605 0.0757,0.15229 0.11353,0.33388 0.11361,0.54483 z m -0.29781,-0.005 c -8e-5,-0.16568 -0.027,-0.30712 -0.0808,-0.42441 -0.054,-0.11721 -0.13388,-0.20863 -0.23985,-0.27435 -0.0745,-0.0461 -0.15433,-0.0795 -0.23944,-0.0999 -0.0853,-0.0203 -0.19119,-0.0303 -0.3178,-0.0304 h -0.21407 v 1.6628 h 0.21407 c 0.12486,1.1e-4 0.23403,-0.0101 0.32766,-0.0304 0.0935,-0.0203 0.17907,-0.0578 0.25673,-0.11266 0.0974,-0.0677 0.17071,-0.15772 0.21987,-0.27009 0.049,-0.11226 0.0736,-0.25244 0.0737,-0.42055 z"
       style="fill:#000000;stroke-width:0.26458332" />
    <path
       inkscape:connector-curvature="0"
       id="path5075"
       d="m 21.343527,266.48042 v -2.15916 h 1.34017 v 0.24818 h -1.04236 v 0.59563 h 0.9679 v 0.24818 h -0.9679 v 0.81899 h 1.04236 v 0.24818 z"
       style="fill:#000000;stroke-width:0.26458332" />
    <path
       inkscape:connector-curvature="0"
       id="path5097"
       d="m 67.427886,292.71127 h -0.29782 v -1.06717 h -0.9679 v 1.06717 h -0.29781 v -2.15916 h 0.29781 v 0.84381 h 0.9679 v -0.84381 h 0.29782 z"
       style="fill:#000000;stroke-width:0.26458332" />
    <path
       inkscape:connector-curvature="0"
       id="path5103"
       d="m 66.588727,284.06312 c -0.14097,-1e-4 -0.27059,-0.024 -0.38893,-0.0718 -0.118481,-0.0478 -0.22075,-0.11895 -0.30676,-0.21365 -0.0862,-0.0945 -0.15288,-0.21262 -0.20008,-0.35425 -0.0474,-0.14145 -0.0711,-0.30393 -0.071,-0.48723 -1.1e-4,-0.18246 0.0229,-0.34144 0.0688,-0.47718 0.0458,-0.13552 0.11277,-0.2536 0.200689,-0.35422 0.0861,-0.0976 0.18806,-0.17208 0.30596,-0.22336 0.11787,-0.0511 0.24971,-0.0767 0.39553,-0.0768 0.0726,8e-5 0.14057,0.005 0.20396,0.0157 0.0633,0.0106 0.12198,0.0239 0.17606,0.0401 0.0461,0.0143 0.0937,0.0322 0.14271,0.0535 0.0488,0.0215 0.0968,0.045 0.14425,0.0706 v 0.34126 h -0.0233 c -0.0251,-0.0221 -0.0575,-0.049 -0.0971,-0.0807 -0.0397,-0.0315 -0.088,-0.0626 -0.14483,-0.0934 -0.0554,-0.0286 -0.11536,-0.0523 -0.18013,-0.071 -0.0648,-0.0185 -0.1397,-0.0278 -0.22471,-0.0279 -0.0918,8e-5 -0.17878,0.0192 -0.26098,0.0572 -0.0822,0.0382 -0.15433,0.0944 -0.21638,0.16851 -0.0608,0.0742 -0.10811,0.16751 -0.14192,0.27977 -0.034,0.11237 -0.0509,0.23868 -0.0508,0.37907 -1.1e-4,0.14946 0.0178,0.27821 0.0537,0.38603 0.0358,0.108 0.0845,0.19902 0.14637,0.27318 0.0599,0.0724 0.13049,0.12689 0.21174,0.16346 0.0812,0.0367 0.16722,0.055 0.258261,0.0549 0.0832,8e-5 0.16005,-0.01 0.23072,-0.0297 0.0705,-0.0197 0.1333,-0.0447 0.18846,-0.075 0.0531,-0.0291 0.0991,-0.059 0.13785,-0.0898 0.0386,-0.0305 0.069,-0.0567 0.0913,-0.0785 h 0.0217 v 0.33774 c -0.0474,0.022 -0.0921,0.043 -0.13398,0.063 -0.0421,0.0201 -0.0931,0.0396 -0.15299,0.0587 -0.0629,0.0202 -0.12107,0.0354 -0.17467,0.046 -0.0537,0.0104 -0.12362,0.0156 -0.20961,0.0157 z"
       style="fill:#000000;stroke-width:0.26458332" />
    <path
       inkscape:connector-curvature="0"
       id="path5109"
       d="m 67.536707,274.1468 c -1.1e-4,0.19699 -0.0396,0.37479 -0.11867,0.5334 -0.0792,0.15859 -0.18526,0.28239 -0.31834,0.37129 -0.1084,0.0688 -0.21844,0.11478 -0.33002,0.13785 -0.11178,0.0232 -0.25437,0.0347 -0.42772,0.0347 h -0.49287 v -2.15916 h 0.48744 c 0.20106,0 0.35888,0.0153 0.47347,0.0458 0.11452,0.0306 0.21194,0.0723 0.2924,0.12526 0.13795,0.0918 0.24489,0.21383 0.3207,0.36605 0.0757,0.15229 0.1135,0.33388 0.11361,0.54483 z m -0.29782,-0.005 c -1e-4,-0.16568 -0.027,-0.30712 -0.0809,-0.42441 -0.054,-0.11721 -0.13387,-0.20863 -0.23984,-0.27435 -0.0745,-0.0461 -0.15433,-0.0795 -0.239451,-0.0999 -0.0853,-0.0203 -0.191159,-0.0303 -0.31779,-0.0304 h -0.21405 v 1.6628 h 0.21405 c 0.124881,1.1e-4 0.23402,-0.0101 0.327691,-0.0304 0.0935,-0.0203 0.17904,-0.0578 0.256699,-0.11266 0.0974,-0.0677 0.170731,-0.15772 0.21986,-0.27009 0.049,-0.11226 0.0736,-0.25244 0.0737,-0.42055 z"
       style="fill:#000000;stroke-width:0.26458332" />
    <path
       inkscape:connector-curvature="0"
       id="path5115"
       d="m 65.856757,266.48042 v -2.15916 h 1.34017 v 0.24818 h -1.04235 v 0.59563 h 0.9679 v 0.24818 h -0.9679 v 0.81899 h 1.04235 v 0.24818 z"
       style="fill:#000000;stroke-width:0.26458332" />
    <g
       transform="matrix(0.26458333,0,0,0.26458333,0.1100765,137.80482)"
       id="g5147">
      <path
         inkscape:connector-curvature="0"
         id="path5141"
         d="m 119.0139,600.7571 2.7921,-8.1606 h 1.3571 l 2.792,8.1606 h -1.19 l -0.7416,-2.2512 h -3.0779 l -0.7416,2.2512 z m 4.7018,-3.1892 -1.2326,-3.7021 -1.2297,3.7021 z"
         style="fill:#000000" />
      <path
         inkscape:connector-curvature="0"
         id="path5143"
         d="m 128.3939,600.7571 h -1.0318 v -6.097 h 1.0318 z m 0.0938,-7.1288 h -1.2194 v -1.0318 h 1.2194 z"
         style="fill:#000000" />
      <path
         inkscape:connector-curvature="0"
         id="path5145"
         d="m 130.9309,600.8509 c -0.4166,-3e-4 -0.8057,-0.0557 -1.1681,-0.1663 -0.3627,-0.1107 -0.6628,-0.2286 -0.8999,-0.354 v -1.1681 h 0.0557 c 0.0909,0.0737 0.1972,0.1543 0.3195,0.2426 0.1217,0.0887 0.284,0.1814 0.4866,0.2777 0.1807,0.0854 0.3789,0.1605 0.5951,0.2257 0.2154,0.0656 0.4397,0.0986 0.6727,0.0982 0.1685,4e-4 0.3488,-0.019 0.5408,-0.0579 0.1913,-0.0384 0.3342,-0.0872 0.428,-0.1458 0.1319,-0.0839 0.2268,-0.1737 0.285,-0.2697 0.0579,-0.0956 0.0869,-0.2389 0.0872,-0.4294 -3e-4,-0.2451 -0.0718,-0.4301 -0.2147,-0.5555 -0.1432,-0.1249 -0.3975,-0.2293 -0.7628,-0.3136 -0.1352,-0.0319 -0.3111,-0.0693 -0.5277,-0.1121 -0.2172,-0.0422 -0.4169,-0.0883 -0.5994,-0.1385 -0.4778,-0.1345 -0.8251,-0.343 -1.0413,-0.6251 -0.2169,-0.2818 -0.325,-0.6229 -0.3247,-1.0238 -3e-4,-0.5496 0.2148,-0.9977 0.6457,-1.3439 0.4301,-0.3456 1.0021,-0.5185 1.7155,-0.5189 0.3506,4e-4 0.7035,0.0436 1.0589,0.1297 0.3547,0.0869 0.6529,0.1964 0.8947,0.3291 v 1.1358 h -0.0571 c -0.277,-0.2312 -0.5852,-0.4144 -0.9248,-0.5488 -0.3404,-0.1341 -0.6834,-0.2012 -1.0289,-0.2016 -0.3569,4e-4 -0.6581,0.0722 -0.9035,0.2155 -0.2459,0.144 -0.3687,0.3609 -0.3687,0.6507 0,0.2572 0.0744,0.4492 0.2236,0.576 0.1487,0.1272 0.3883,0.2312 0.7188,0.3122 0.1572,0.0403 0.332,0.0795 0.524,0.1172 0.192,0.0385 0.3943,0.0828 0.6075,0.1334 0.4639,0.1125 0.8127,0.2994 1.0465,0.5606 0.233,0.2616 0.3499,0.6174 0.3502,1.0677 -3e-4,0.262 -0.0534,0.5101 -0.159,0.7438 -0.1062,0.2342 -0.2612,0.4346 -0.4653,0.6017 -0.2232,0.1817 -0.4749,0.3198 -0.7548,0.414 -0.2807,0.0942 -0.6324,0.1411 -1.0553,0.1414 z"
         style="fill:#000000" />
    </g>
    <g
       transform="matrix(0.26458333,0,0,0.26458333,0.1100765,137.80482)"
       id="g5171">
      <path
         inkscape:connector-curvature="0"
         id="path5165"
         d="m 123.7968,534.8641 c -0.5327,-4e-4 -1.0226,-0.0905 -1.47,-0.2711 -0.4477,-0.1807 -0.8343,-0.4496 -1.1593,-0.8076 -0.3257,-0.3572 -0.5778,-0.8035 -0.7562,-1.3388 -0.1792,-0.5346 -0.2686,-1.1487 -0.2683,-1.8416 -3e-4,-0.6896 0.0865,-1.2905 0.2602,-1.8034 0.1733,-0.5123 0.4261,-0.9586 0.7585,-1.3389 0.3253,-0.369 0.7108,-0.6504 1.1563,-0.8442 0.4456,-0.1931 0.9439,-0.2898 1.495,-0.2902 0.2744,4e-4 0.5313,0.0202 0.7709,0.0594 0.2393,0.0399 0.4609,0.0905 0.6654,0.1517 0.1744,0.0542 0.3543,0.1216 0.5393,0.2022 0.1843,0.0814 0.3661,0.17 0.5452,0.2668 v 1.2897 h -0.0879 c -0.0949,-0.0835 -0.2173,-0.1854 -0.3671,-0.3048 -0.1503,-0.1191 -0.3327,-0.2367 -0.5474,-0.3533 -0.2093,-0.108 -0.4361,-0.1974 -0.6808,-0.2682 -0.2448,-0.0699 -0.528,-0.1051 -0.8494,-0.1055 -0.3469,4e-4 -0.6756,0.0726 -0.9863,0.2162 -0.3107,0.1444 -0.5833,0.3565 -0.8178,0.6368 -0.2298,0.2807 -0.4086,0.6332 -0.5365,1.0575 -0.1282,0.4246 -0.1923,0.902 -0.192,1.4326 -3e-4,0.565 0.0675,1.0516 0.203,1.459 0.1352,0.4082 0.3195,0.7523 0.5533,1.0326 0.2264,0.2737 0.4932,0.4796 0.8002,0.6177 0.3067,0.1385 0.6321,0.2078 0.9761,0.2074 0.3144,4e-4 0.605,-0.037 0.8721,-0.1121 0.2664,-0.0744 0.5038,-0.1689 0.7123,-0.2836 0.2008,-0.1099 0.3745,-0.2231 0.521,-0.3393 0.1458,-0.1154 0.2609,-0.2143 0.3452,-0.2968 h 0.082 v 1.2766 c -0.1791,0.0831 -0.348,0.1627 -0.5063,0.2381 -0.1591,0.0759 -0.3518,0.1499 -0.5782,0.2221 -0.2378,0.0762 -0.4577,0.1337 -0.6603,0.1737 -0.203,0.0392 -0.4672,0.0589 -0.7922,0.0593 z"
         style="fill:#000000" />
      <path
         inkscape:connector-curvature="0"
         id="path5167"
         d="m 128.116,534.6765 h -1.0318 v -6.097 h 1.0318 z m 0.0938,-7.1288 h -1.2194 v -1.0318 h 1.2194 z"
         style="fill:#000000" />
      <path
         inkscape:connector-curvature="0"
         id="path5169"
         d="m 130.653,534.7703 c -0.4166,-4e-4 -0.8057,-0.0557 -1.1681,-0.1663 -0.3627,-0.1107 -0.6628,-0.2287 -0.8999,-0.354 v -1.1681 h 0.0557 c 0.0909,0.0737 0.1972,0.1543 0.3195,0.2426 0.1217,0.0886 0.284,0.1813 0.4866,0.2777 0.1807,0.0854 0.3789,0.1605 0.5951,0.2257 0.2154,0.0656 0.4397,0.0986 0.6727,0.0982 0.1685,4e-4 0.3488,-0.019 0.5408,-0.0579 0.1913,-0.0384 0.3342,-0.0872 0.428,-0.1458 0.1319,-0.0839 0.2268,-0.1737 0.285,-0.2697 0.0579,-0.0956 0.0869,-0.2389 0.0872,-0.4294 -3e-4,-0.2451 -0.0718,-0.4302 -0.2147,-0.5555 -0.1432,-0.1249 -0.3975,-0.2294 -0.7628,-0.3136 -0.1352,-0.0319 -0.3111,-0.0693 -0.5277,-0.1121 -0.2172,-0.0422 -0.4169,-0.0883 -0.5994,-0.1385 -0.4778,-0.1345 -0.8251,-0.343 -1.0413,-0.6251 -0.2169,-0.2818 -0.325,-0.6229 -0.3247,-1.0238 -3e-4,-0.5496 0.2148,-0.9977 0.6457,-1.344 0.4301,-0.3455 1.0021,-0.5184 1.7155,-0.5188 0.3506,4e-4 0.7035,0.0436 1.0589,0.1297 0.3547,0.0869 0.6529,0.1964 0.8947,0.3291 v 1.1358 h -0.0571 c -0.277,-0.2312 -0.5852,-0.4144 -0.9248,-0.5489 -0.3404,-0.1341 -0.6834,-0.2011 -1.0289,-0.2015 -0.3569,4e-4 -0.6581,0.0722 -0.9036,0.2155 -0.2458,0.144 -0.3686,0.3609 -0.3686,0.6507 0,0.2572 0.0744,0.4492 0.2236,0.576 0.1487,0.1271 0.3883,0.2312 0.7188,0.3122 0.1572,0.0403 0.332,0.0795 0.524,0.1172 0.192,0.0385 0.3943,0.0828 0.6075,0.1334 0.4639,0.1125 0.8127,0.2993 1.0465,0.5606 0.233,0.2616 0.3499,0.6174 0.3502,1.0677 -3e-4,0.262 -0.0535,0.51 -0.159,0.7438 -0.1062,0.2341 -0.2612,0.4346 -0.4653,0.6016 -0.2232,0.1818 -0.4749,0.3199 -0.7548,0.4141 -0.2807,0.0941 -0.6324,0.141 -1.0553,0.1414 z"
         style="fill:#000000" />
    </g>
    <g
       transform="matrix(0.26458333,0,0,0.26458333,0.1100765,137.80482)"
       id="g5195">
      <path
         inkscape:connector-curvature="0"
         id="path5189"
         d="m 127.3365,497.5455 c -3e-4,0.7445 -0.1498,1.4165 -0.4485,2.016 -0.2993,0.5994 -0.7002,1.0673 -1.2032,1.4033 -0.4097,0.2601 -0.8255,0.4338 -1.2473,0.521 -0.4224,0.0876 -0.9614,0.1312 -1.6166,0.1312 h -1.8628 v -8.1606 h 1.8423 c 0.7599,0 1.3565,0.0579 1.7895,0.1729 0.4328,0.1158 0.801,0.2734 1.1051,0.4734 0.5214,0.347 0.9256,0.8083 1.2121,1.3836 0.2862,0.5756 0.4291,1.2619 0.4294,2.0592 z m -1.1256,-0.0176 c -3e-4,-0.6262 -0.1022,-1.1608 -0.3056,-1.6041 -0.204,-0.443 -0.506,-0.7885 -0.9064,-1.037 -0.2814,-0.1744 -0.5834,-0.3004 -0.9051,-0.3773 -0.3224,-0.0766 -0.7225,-0.1147 -1.201,-0.1151 h -0.8091 v 6.2846 h 0.8091 c 0.4719,4e-4 0.8845,-0.0381 1.2384,-0.1151 0.3532,-0.0765 0.6768,-0.2183 0.9702,-0.4257 0.3683,-0.2558 0.6453,-0.5962 0.8311,-1.0208 0.1854,-0.4243 0.2781,-0.9541 0.2784,-1.5895 z"
         style="fill:#000000" />
      <path
         inkscape:connector-curvature="0"
         id="path5191"
         d="m 129.4001,501.617 h -1.0318 v -6.097 h 1.0318 z m 0.0938,-7.1288 h -1.2194 v -1.0318 h 1.2194 z"
         style="fill:#000000" />
      <path
         inkscape:connector-curvature="0"
         id="path5193"
         d="m 131.9371,501.7108 c -0.4166,-4e-4 -0.8057,-0.0557 -1.1681,-0.1663 -0.3627,-0.1107 -0.6628,-0.2287 -0.8999,-0.354 v -1.1681 h 0.0557 c 0.0909,0.0736 0.1971,0.1543 0.3195,0.2426 0.1217,0.0886 0.284,0.1813 0.4866,0.2777 0.1807,0.0854 0.3789,0.1605 0.5951,0.2257 0.2154,0.0656 0.4396,0.0986 0.6727,0.0982 0.1685,4e-4 0.3488,-0.0191 0.5408,-0.0579 0.1913,-0.0385 0.3342,-0.0872 0.428,-0.1458 0.1319,-0.0839 0.2268,-0.1737 0.285,-0.2697 0.0579,-0.0956 0.0869,-0.2389 0.0872,-0.4294 -3e-4,-0.2452 -0.0718,-0.4302 -0.2147,-0.5555 -0.1433,-0.1249 -0.3975,-0.2294 -0.7628,-0.3136 -0.1353,-0.0319 -0.3111,-0.0693 -0.5277,-0.1122 -0.2173,-0.0421 -0.4169,-0.0883 -0.5994,-0.1385 -0.4778,-0.1344 -0.8252,-0.3429 -1.0413,-0.6251 -0.217,-0.2817 -0.325,-0.6228 -0.3247,-1.0237 -3e-4,-0.5496 0.2147,-0.9977 0.6456,-1.344 0.4302,-0.3455 1.0022,-0.5184 1.7155,-0.5188 0.3507,4e-4 0.7035,0.0436 1.059,0.1297 0.3546,0.0868 0.6529,0.1964 0.8947,0.329 v 1.1359 h -0.0571 c -0.277,-0.2312 -0.5852,-0.4144 -0.9248,-0.5489 -0.3404,-0.1341 -0.6834,-0.2011 -1.0289,-0.2015 -0.3569,4e-4 -0.6581,0.0722 -0.9036,0.2154 -0.2458,0.144 -0.3686,0.361 -0.3686,0.6508 0,0.2572 0.0744,0.4492 0.2235,0.576 0.1488,0.1271 0.3884,0.2312 0.7189,0.3122 0.1572,0.0403 0.332,0.0795 0.524,0.1172 0.192,0.0385 0.3942,0.0828 0.6075,0.1334 0.4639,0.1125 0.8127,0.2993 1.0464,0.5606 0.2331,0.2616 0.35,0.6174 0.3503,1.0677 -3e-4,0.262 -0.0535,0.51 -0.159,0.7438 -0.1063,0.2341 -0.2612,0.4345 -0.4653,0.6016 -0.2232,0.1818 -0.4749,0.3199 -0.7548,0.4141 -0.2807,0.0941 -0.6324,0.141 -1.0553,0.1414 z"
         style="fill:#000000" />
    </g>
    <path
       inkscape:connector-curvature="0"
       id="path5241"
       d="m 52.159677,295.96191 c -1.01e-4,0.1079 -0.0204,0.2031 -0.0609,0.28562 -0.0406,0.0827 -0.0952,0.15065 -0.16364,0.20376 -0.0815,0.0642 -0.1686,0.10956 -0.26117,0.13631 -0.0928,0.0268 -0.21262,0.0401 -0.35968,0.0401 h -0.61888 v -2.15916 h 0.57351 c 0.15404,0 0.2695,0.005 0.34649,0.0151 0.0769,0.0101 0.15066,0.0337 0.22122,0.071 0.0775,0.0411 0.13417,0.095 0.17005,0.1615 0.0357,0.0667 0.0536,0.14494 0.0537,0.23479 -1.01e-4,0.10065 -0.0268,0.19072 -0.0799,0.27009 -0.0533,0.0796 -0.12679,0.14282 -0.22064,0.18984 v 0.0116 c 0.1269,0.0349 0.225219,0.0988 0.29509,0.19158 0.0697,0.0929 0.10462,0.20881 0.10473,0.34783 z m -0.397091,-0.9675 c -10e-5,-0.0514 -0.009,-0.0958 -0.0258,-0.13322 -0.0173,-0.0373 -0.045,-0.067 -0.0832,-0.089 -0.0461,-0.0256 -0.0973,-0.0412 -0.15375,-0.0469 -0.0565,-0.006 -0.13456,-0.008 -0.23402,-0.008 h -0.2726 v 0.62045 h 0.323 c 0.0888,1.1e-4 0.15434,-0.005 0.19662,-0.0136 0.0421,-0.009 0.0857,-0.0277 0.13067,-0.0562 0.0429,-0.0273 0.0734,-0.0633 0.0917,-0.108 0.0181,-0.0445 0.0272,-0.0996 0.0274,-0.165 z m 0.0993,0.98071 c -10e-5,-0.0807 -0.0115,-0.14717 -0.0343,-0.19971 -0.023,-0.0524 -0.0693,-0.0969 -0.13903,-0.1338 -0.0451,-0.0239 -0.094,-0.0393 -0.14695,-0.0461 -0.053,-0.007 -0.12827,-0.0101 -0.22569,-0.0101 h -0.32264 v 0.79417 h 0.23072 c 0.12427,1.1e-4 0.2223,-0.006 0.29395,-0.0173 0.0715,-0.0115 0.13454,-0.0361 0.18923,-0.0739 0.0534,-0.0374 0.0926,-0.08 0.1175,-0.12758 0.0247,-0.0475 0.0371,-0.10946 0.0372,-0.18574 z"
       style="fill:#ffffff;stroke-width:0.26458332" />
    <g
       transform="matrix(0.26458333,0,0,0.26458333,0.1100765,137.80482)"
       id="g5253">
      <path
         inkscape:connector-curvature="0"
         id="path5247"
         d="m 197.6183,530.2518 c -4e-4,0.7446 -0.1498,1.4166 -0.4485,2.016 -0.2993,0.5995 -0.7002,1.0674 -1.2032,1.4034 -0.4097,0.2601 -0.8256,0.4338 -1.2473,0.521 -0.4225,0.0876 -0.9614,0.1312 -1.6166,0.1312 h -1.8628 v -8.1606 h 1.8423 c 0.7599,0 1.3564,0.0578 1.7895,0.1729 0.4328,0.1158 0.801,0.2733 1.1051,0.4734 0.5214,0.347 0.9256,0.8083 1.2121,1.3835 0.2862,0.5757 0.429,1.2619 0.4294,2.0592 z m -1.1256,-0.0175 c -4e-4,-0.6262 -0.1022,-1.1608 -0.3056,-1.6042 -0.2041,-0.443 -0.506,-0.7885 -0.9065,-1.0369 -0.2814,-0.1744 -0.5833,-0.3004 -0.905,-0.3774 -0.3224,-0.0766 -0.7225,-0.1147 -1.2011,-0.115 h -0.809 v 6.2846 h 0.809 c 0.472,3e-4 0.8845,-0.0382 1.2385,-0.1151 0.3532,-0.0766 0.6767,-0.2184 0.9702,-0.4258 0.3683,-0.2557 0.6453,-0.5961 0.831,-1.0208 0.1854,-0.4243 0.2781,-0.9541 0.2785,-1.5894 z"
         style="fill:#ffffff" />
      <path
         inkscape:connector-curvature="0"
         id="path5249"
         d="m 201.3088,534.4172 c -0.9912,-4e-4 -1.7603,-0.2727 -2.3069,-0.8179 -0.5474,-0.5448 -0.8208,-1.3194 -0.8208,-2.323 0,-0.9885 0.2638,-1.7752 0.7922,-2.3604 0.5276,-0.5844 1.2183,-0.8768 2.0716,-0.8771 0.3848,3e-4 0.7248,0.0542 1.0201,0.1619 0.295,0.1081 0.5533,0.277 0.7753,0.5064 0.2213,0.2297 0.3914,0.5107 0.5101,0.8434 0.118,0.3327 0.1773,0.7402 0.1773,1.2216 v 0.5497 h -4.3148 c -4e-4,0.6998 0.1829,1.234 0.5496,1.6033 0.3661,0.3694 0.8724,0.5541 1.5184,0.5541 0.2316,0 0.4588,-0.0257 0.6815,-0.0777 0.2228,-0.0513 0.4236,-0.1184 0.6024,-0.2008 0.1905,-0.0847 0.351,-0.1671 0.4822,-0.247 0.1304,-0.0795 0.2389,-0.1542 0.3254,-0.2249 h 0.0615 v 1.1725 c -0.1224,0.048 -0.2741,0.1077 -0.4558,0.1788 -0.1817,0.0714 -0.3451,0.1271 -0.4895,0.167 -0.2045,0.0546 -0.3891,0.0964 -0.554,0.1261 -0.1656,0.0289 -0.3741,0.0436 -0.6258,0.044 z m 1.1871,-3.8458 c -0.008,-0.2752 -0.0414,-0.513 -0.1004,-0.7131 -0.0593,-0.1997 -0.1447,-0.3682 -0.2557,-0.5063 -0.1224,-0.1521 -0.2789,-0.2686 -0.469,-0.3489 -0.1909,-0.0798 -0.4269,-0.1198 -0.7079,-0.1201 -0.2778,3e-4 -0.5137,0.041 -0.7079,0.1223 -0.195,0.0817 -0.3716,0.2008 -0.5306,0.3569 -0.1553,0.1605 -0.2741,0.3375 -0.3554,0.5313 -0.0821,0.1942 -0.1341,0.4203 -0.1561,0.6779 z"
         style="fill:#ffffff" />
      <path
         inkscape:connector-curvature="0"
         id="path5251"
         d="m 206.9089,534.4172 c -0.4166,-4e-4 -0.8057,-0.0557 -1.1681,-0.1664 -0.3627,-0.1106 -0.6628,-0.2286 -0.8999,-0.3539 v -1.1681 h 0.0557 c 0.0909,0.0736 0.1971,0.1542 0.3195,0.2425 0.1217,0.0887 0.284,0.1814 0.4866,0.2778 0.1806,0.0853 0.3789,0.1604 0.595,0.2257 0.2155,0.0655 0.4397,0.0985 0.6728,0.0982 0.1685,3e-4 0.3488,-0.0191 0.5408,-0.0579 0.1912,-0.0385 0.3341,-0.0872 0.4279,-0.1459 0.132,-0.0839 0.2269,-0.1736 0.2851,-0.2696 0.0579,-0.0957 0.0868,-0.2389 0.0872,-0.4295 -4e-4,-0.2451 -0.0718,-0.4301 -0.2147,-0.5554 -0.1433,-0.125 -0.3975,-0.2294 -0.7629,-0.3137 -0.1352,-0.0319 -0.311,-0.0692 -0.5276,-0.1121 -0.2173,-0.0421 -0.417,-0.0883 -0.5994,-0.1385 -0.4778,-0.1345 -0.8252,-0.343 -1.0413,-0.6251 -0.217,-0.2818 -0.3251,-0.6229 -0.3247,-1.0237 -4e-4,-0.5496 0.2147,-0.9978 0.6456,-1.344 0.4302,-0.3455 1.0021,-0.5185 1.7155,-0.5188 0.3507,3e-4 0.7035,0.0436 1.059,0.1297 0.3546,0.0868 0.6529,0.1964 0.8947,0.329 v 1.1359 h -0.0571 c -0.277,-0.2312 -0.5852,-0.4145 -0.9249,-0.5489 -0.3403,-0.1341 -0.6833,-0.2012 -1.0288,-0.2015 -0.3569,3e-4 -0.6581,0.0721 -0.9036,0.2154 -0.2458,0.144 -0.3686,0.3609 -0.3686,0.6507 0,0.2573 0.0744,0.4493 0.2235,0.576 0.1488,0.1272 0.3884,0.2312 0.7189,0.3122 0.1572,0.0403 0.332,0.0795 0.524,0.1173 0.192,0.0384 0.3942,0.0828 0.6075,0.1333 0.4638,0.1125 0.8127,0.2994 1.0464,0.5606 0.2331,0.2616 0.3499,0.6174 0.3503,1.0677 -4e-4,0.262 -0.0535,0.5101 -0.159,0.7438 -0.1063,0.2342 -0.2613,0.4346 -0.4653,0.6017 -0.2232,0.1817 -0.4749,0.3199 -0.7548,0.414 -0.2807,0.0942 -0.6325,0.1411 -1.0553,0.1415 z"
         style="fill:#ffffff" />
    </g>
    <g
       transform="matrix(0.26458333,0,0,0.26458333,0.1100765,137.80482)"
       id="g5275">
      <path
         inkscape:connector-curvature="0"
         id="path5271"
         d="m 191.2654,501.2765 v -8.1606 h 5.0652 v 0.938 h -3.9396 v 2.2512 h 3.6582 v 0.938 h -3.6582 v 3.0954 h 3.9396 v 0.938 z"
         style="fill:#ffffff" />
      <path
         inkscape:connector-curvature="0"
         id="path5273"
         d="m 199.4304,501.3703 c -0.4166,-4e-4 -0.8057,-0.0557 -1.1681,-0.1664 -0.3627,-0.1106 -0.6628,-0.2286 -0.8999,-0.3539 v -1.1681 h 0.0557 c 0.0909,0.0736 0.1972,0.1542 0.3195,0.2425 0.1217,0.0887 0.284,0.1814 0.4866,0.2778 0.1807,0.0854 0.3789,0.1605 0.5951,0.2257 0.2154,0.0656 0.4397,0.0986 0.6727,0.0982 0.1685,4e-4 0.3488,-0.0191 0.5408,-0.0579 0.1913,-0.0385 0.3342,-0.0872 0.428,-0.1458 0.1319,-0.0839 0.2268,-0.1737 0.285,-0.2697 0.0579,-0.0956 0.0869,-0.2389 0.0872,-0.4294 -3e-4,-0.2452 -0.0718,-0.4302 -0.2147,-0.5555 -0.1432,-0.125 -0.3975,-0.2294 -0.7628,-0.3137 -0.1352,-0.0318 -0.3111,-0.0692 -0.5277,-0.1121 -0.2172,-0.0421 -0.4169,-0.0883 -0.5994,-0.1385 -0.4778,-0.1344 -0.8251,-0.3429 -1.0413,-0.6251 -0.2169,-0.2817 -0.325,-0.6229 -0.3247,-1.0237 -3e-4,-0.5496 0.2147,-0.9977 0.6456,-1.344 0.4302,-0.3455 1.0022,-0.5184 1.7156,-0.5188 0.3506,4e-4 0.7035,0.0436 1.0589,0.1297 0.3547,0.0868 0.6529,0.1964 0.8947,0.329 v 1.1359 h -0.0571 c -0.277,-0.2312 -0.5852,-0.4144 -0.9248,-0.5489 -0.3404,-0.1341 -0.6834,-0.2011 -1.0289,-0.2015 -0.3569,4e-4 -0.6581,0.0722 -0.9036,0.2154 -0.2458,0.144 -0.3686,0.3609 -0.3686,0.6508 0,0.2572 0.0744,0.4492 0.2235,0.576 0.1488,0.1271 0.3884,0.2312 0.7189,0.3121 0.1572,0.0403 0.332,0.0796 0.524,0.1173 0.192,0.0385 0.3942,0.0828 0.6075,0.1334 0.4639,0.1124 0.8127,0.2993 1.0465,0.5606 0.233,0.2616 0.3499,0.6174 0.3502,1.0677 -3e-4,0.262 -0.0535,0.51 -0.159,0.7438 -0.1062,0.2341 -0.2612,0.4345 -0.4653,0.6016 -0.2232,0.1818 -0.4749,0.3199 -0.7548,0.4141 -0.2807,0.0941 -0.6324,0.141 -1.0553,0.1414 z"
         style="fill:#ffffff" />
    </g>
    <path
       inkscape:connector-curvature="0"
       id="path5711"
       d="m 72.385404,286.51856 v 8.74406 h 16.50444 v -8.74406 z"
       style="fill:url(#linearGradient6465);stroke:#000000;stroke-width:0.12374563;stroke-miterlimit:4;stroke-opacity:0.23999999">
      <title
         id="title8682">Aisi- Little</title>
    </path>
    <g
       transform="matrix(0.26458333,0,0,0.26458333,0.1100765,137.80482)"
       id="g5723">
      <path
         inkscape:connector-curvature="0"
         id="path5713"
         d="m 292.9017,585.4708 2.792,-8.1606 h 1.3571 l 2.7921,8.1606 h -1.1901 l -0.7416,-2.2512 h -3.0778 l -0.7416,2.2512 z m 4.7017,-3.1892 -1.2326,-3.7021 -1.2297,3.7021 z"
         style="fill:#000000;fill-opacity:0.19742982" />
      <path
         inkscape:connector-curvature="0"
         id="path5715"
         d="m 302.2817,585.4708 h -1.0318 v -6.097 h 1.0318 z m 0.0938,-7.1288 h -1.2194 v -1.0318 h 1.2194 z"
         style="fill:#000000;fill-opacity:0.19742982" />
      <path
         inkscape:connector-curvature="0"
         id="path5717"
         d="m 304.8187,585.5646 c -0.4166,-3e-4 -0.8058,-0.0556 -1.1681,-0.1663 -0.3628,-0.1107 -0.6629,-0.2286 -0.8999,-0.3539 v -1.1682 h 0.0557 c 0.0908,0.0737 0.1971,0.1543 0.3195,0.2426 0.1216,0.0887 0.2839,0.1814 0.4866,0.2777 0.1806,0.0854 0.3788,0.1605 0.595,0.2258 0.2154,0.0655 0.4397,0.0985 0.6727,0.0981 0.1686,4e-4 0.3488,-0.019 0.5408,-0.0578 0.1913,-0.0385 0.3342,-0.0872 0.428,-0.1459 0.1319,-0.0839 0.2268,-0.1736 0.2851,-0.2696 0.0579,-0.0957 0.0868,-0.2389 0.0872,-0.4295 -4e-4,-0.2451 -0.0719,-0.4301 -0.2147,-0.5554 -0.1433,-0.125 -0.3976,-0.2294 -0.7629,-0.3137 -0.1352,-0.0319 -0.3111,-0.0692 -0.5276,-0.1121 -0.2173,-0.0421 -0.417,-0.0883 -0.5995,-0.1385 -0.4778,-0.1345 -0.8251,-0.343 -1.0413,-0.6251 -0.2169,-0.2818 -0.325,-0.6229 -0.3246,-1.0237 -4e-4,-0.5497 0.2147,-0.9978 0.6456,-1.344 0.4301,-0.3455 1.0021,-0.5185 1.7155,-0.5189 0.3506,4e-4 0.7035,0.0437 1.0589,0.1298 0.3547,0.0868 0.6529,0.1964 0.8948,0.329 v 1.1358 h -0.0572 c -0.277,-0.2312 -0.5851,-0.4144 -0.9248,-0.5488 -0.3404,-0.1341 -0.6834,-0.2012 -1.0289,-0.2016 -0.3569,4e-4 -0.658,0.0722 -0.9035,0.2155 -0.2459,0.144 -0.3686,0.3609 -0.3686,0.6507 0,0.2573 0.0743,0.4492 0.2235,0.576 0.1487,0.1272 0.3884,0.2312 0.7189,0.3122 0.1571,0.0403 0.3319,0.0795 0.5239,0.1173 0.192,0.0384 0.3943,0.0828 0.6075,0.1333 0.4639,0.1125 0.8127,0.2994 1.0465,0.5606 0.233,0.2616 0.3499,0.6174 0.3503,1.0677 -4e-4,0.262 -0.0535,0.5101 -0.1591,0.7438 -0.1062,0.2342 -0.2612,0.4346 -0.4653,0.6017 -0.2231,0.1817 -0.4749,0.3199 -0.7548,0.414 -0.2807,0.0942 -0.6324,0.1411 -1.0552,0.1414 z"
         style="fill:#000000;fill-opacity:0.19742982" />
      <path
         inkscape:connector-curvature="0"
         id="path5719"
         d="m 308.8477,585.4708 h -1.0318 v -6.097 h 1.0318 z m 0.0938,-7.1288 h -1.2194 v -1.0318 h 1.2194 z"
         style="fill:#000000;fill-opacity:0.19742982" />
      <path
         inkscape:connector-curvature="0"
         id="path5721"
         d="m 311.3847,585.5646 c -0.4166,-3e-4 -0.8058,-0.0556 -1.1681,-0.1663 -0.3628,-0.1107 -0.6629,-0.2286 -0.8999,-0.3539 v -1.1682 h 0.0557 c 0.0908,0.0737 0.1971,0.1543 0.3195,0.2426 0.1216,0.0887 0.2839,0.1814 0.4866,0.2777 0.1806,0.0854 0.3788,0.1605 0.595,0.2258 0.2154,0.0655 0.4397,0.0985 0.6727,0.0981 0.1686,4e-4 0.3488,-0.019 0.5408,-0.0578 0.1913,-0.0385 0.3342,-0.0872 0.428,-0.1459 0.1319,-0.0839 0.2268,-0.1736 0.2851,-0.2696 0.0579,-0.0957 0.0868,-0.2389 0.0872,-0.4295 -4e-4,-0.2451 -0.0719,-0.4301 -0.2147,-0.5554 -0.1433,-0.125 -0.3976,-0.2294 -0.7629,-0.3137 -0.1352,-0.0319 -0.3111,-0.0692 -0.5276,-0.1121 -0.2173,-0.0421 -0.417,-0.0883 -0.5995,-0.1385 -0.4778,-0.1345 -0.8251,-0.343 -1.0413,-0.6251 -0.2169,-0.2818 -0.325,-0.6229 -0.3246,-1.0237 -4e-4,-0.5497 0.2147,-0.9978 0.6456,-1.344 0.4301,-0.3455 1.0021,-0.5185 1.7155,-0.5189 0.3506,4e-4 0.7035,0.0437 1.0589,0.1298 0.3547,0.0868 0.6529,0.1964 0.8948,0.329 v 1.1358 h -0.0572 c -0.277,-0.2312 -0.5851,-0.4144 -0.9248,-0.5488 -0.3404,-0.1341 -0.6834,-0.2012 -1.0289,-0.2016 -0.3569,4e-4 -0.658,0.0722 -0.9035,0.2155 -0.2459,0.144 -0.3686,0.3609 -0.3686,0.6507 0,0.2573 0.0743,0.4492 0.2235,0.576 0.1487,0.1272 0.3884,0.2312 0.7189,0.3122 0.1571,0.0403 0.3319,0.0795 0.5239,0.1173 0.192,0.0384 0.3943,0.0828 0.6075,0.1333 0.4639,0.1125 0.8127,0.2994 1.0465,0.5606 0.233,0.2616 0.3499,0.6174 0.3503,1.0677 -4e-4,0.262 -0.0535,0.5101 -0.1591,0.7438 -0.1062,0.2342 -0.2612,0.4346 -0.4653,0.6017 -0.2231,0.1817 -0.4749,0.3199 -0.7548,0.414 -0.2807,0.0942 -0.6324,0.1411 -1.0552,0.1414 z"
         style="fill:#000000;fill-opacity:0.19742982" />
    </g>
    <path
       inkscape:connector-curvature="0"
       id="path5725"
       d="m 72.385404,277.77496 v 8.74405 h 16.50444 v -8.74405 z"
       style="fill:url(#linearGradient6467);stroke:#000000;stroke-width:0.12374563;stroke-miterlimit:4;stroke-opacity:0.23999999">
      <title
         id="title8688">His - Little</title>
    </path>
    <g
       transform="matrix(0.26458333,0,0,0.26458333,0.1100765,137.80482)"
       id="g5733">
      <path
         inkscape:connector-curvature="0"
         id="path5727"
         d="m 299.7491,552.6302 h -1.1256 v -4.0334 h -3.6582 v 4.0334 h -1.1256 v -8.1606 h 1.1256 v 3.1892 h 3.6582 v -3.1892 h 1.1256 z"
         style="fill:#000000;fill-opacity:0.19742982" />
      <path
         inkscape:connector-curvature="0"
         id="path5729"
         d="m 302.2817,552.6302 h -1.0318 v -6.097 h 1.0318 z m 0.0938,-7.1288 h -1.2194 v -1.0318 h 1.2194 z"
         style="fill:#000000;fill-opacity:0.19742982" />
      <path
         inkscape:connector-curvature="0"
         id="path5731"
         d="m 304.8187,552.724 c -0.4166,-4e-4 -0.8058,-0.0557 -1.1681,-0.1663 -0.3628,-0.1107 -0.6629,-0.2287 -0.8999,-0.354 v -1.1681 h 0.0557 c 0.0908,0.0737 0.1971,0.1543 0.3195,0.2426 0.1216,0.0886 0.2839,0.1813 0.4866,0.2777 0.1806,0.0854 0.3788,0.1605 0.595,0.2257 0.2154,0.0656 0.4397,0.0986 0.6727,0.0982 0.1686,4e-4 0.3488,-0.019 0.5408,-0.0579 0.1913,-0.0385 0.3342,-0.0872 0.428,-0.1458 0.1319,-0.0839 0.2268,-0.1737 0.2851,-0.2697 0.0579,-0.0956 0.0868,-0.2389 0.0872,-0.4294 -4e-4,-0.2451 -0.0719,-0.4302 -0.2147,-0.5555 -0.1433,-0.1249 -0.3976,-0.2294 -0.7629,-0.3136 -0.1352,-0.0319 -0.3111,-0.0693 -0.5276,-0.1122 -0.2173,-0.0421 -0.417,-0.0883 -0.5995,-0.1385 -0.4778,-0.1344 -0.8251,-0.3429 -1.0413,-0.625 -0.2169,-0.2818 -0.325,-0.6229 -0.3246,-1.0238 -4e-4,-0.5496 0.2147,-0.9977 0.6456,-1.344 0.4301,-0.3455 1.0021,-0.5184 1.7155,-0.5188 0.3506,4e-4 0.7035,0.0436 1.0589,0.1297 0.3547,0.0869 0.6529,0.1964 0.8948,0.329 v 1.1359 h -0.0572 c -0.277,-0.2312 -0.5851,-0.4144 -0.9248,-0.5489 -0.3404,-0.1341 -0.6834,-0.2011 -1.0289,-0.2015 -0.3569,4e-4 -0.658,0.0722 -0.9035,0.2155 -0.2459,0.1439 -0.3686,0.3609 -0.3686,0.6507 0,0.2572 0.0743,0.4492 0.2235,0.576 0.1487,0.1271 0.3884,0.2312 0.7189,0.3122 0.1571,0.0403 0.3319,0.0795 0.5239,0.1172 0.192,0.0385 0.3943,0.0828 0.6075,0.1334 0.4639,0.1125 0.8127,0.2993 1.0465,0.5606 0.233,0.2616 0.3499,0.6174 0.3503,1.0677 -4e-4,0.262 -0.0535,0.51 -0.1591,0.7438 -0.1062,0.2341 -0.2612,0.4346 -0.4653,0.6016 -0.2231,0.1818 -0.4749,0.3199 -0.7548,0.4141 -0.2807,0.0941 -0.6324,0.141 -1.0552,0.1414 z"
         style="fill:#000000;fill-opacity:0.19742982" />
    </g>
    <path
       inkscape:connector-curvature="0"
       id="path5735"
       d="m 72.385404,260.28727 v 8.74405 h 16.50444 v -8.74405 z"
       style="fill:url(#linearGradient6469);stroke:#000000;stroke-width:0.12374563;stroke-miterlimit:4;stroke-opacity:0.23999999">
      <title
         id="title8708">Dis - 1</title>
    </path>
    <g
       transform="matrix(0.26458333,0,0,0.26458333,0.1100765,137.80482)"
       id="g5747">
      <path
         inkscape:connector-curvature="0"
         id="path5737"
         d="m 300.2181,482.1134 c -4e-4,0.7445 -0.1499,1.4165 -0.4485,2.0159 -0.2994,0.5995 -0.7002,1.0674 -1.2033,1.4034 -0.4096,0.2601 -0.8255,0.4338 -1.2472,0.521 -0.4225,0.0876 -0.9615,0.1312 -1.6166,0.1312 h -1.8628 v -8.1606 h 1.8423 c 0.7599,0 1.3564,0.0579 1.7895,0.1729 0.4327,0.1158 0.8009,0.2734 1.1051,0.4734 0.5214,0.347 0.9255,0.8083 1.212,1.3836 0.2862,0.5756 0.4291,1.2619 0.4295,2.0592 z m -1.1256,-0.0176 c -4e-4,-0.6262 -0.1023,-1.1608 -0.3056,-1.6042 -0.2041,-0.4429 -0.506,-0.7885 -0.9065,-1.0369 -0.2814,-0.1744 -0.5833,-0.3004 -0.905,-0.3774 -0.3225,-0.0766 -0.7226,-0.1147 -1.2011,-0.115 h -0.809 v 6.2846 h 0.809 c 0.4719,3e-4 0.8845,-0.0381 1.2384,-0.1151 0.3533,-0.0766 0.6768,-0.2184 0.9703,-0.4257 0.3682,-0.2558 0.6452,-0.5962 0.831,-1.0209 0.1854,-0.4243 0.2781,-0.9541 0.2785,-1.5894 z"
         style="fill:#000000;fill-opacity:0.19742982" />
      <path
         inkscape:connector-curvature="0"
         id="path5739"
         d="m 302.2817,486.1849 h -1.0318 v -6.097 h 1.0318 z m 0.0938,-7.1288 h -1.2194 v -1.0318 h 1.2194 z"
         style="fill:#000000;fill-opacity:0.19742982" />
      <path
         inkscape:connector-curvature="0"
         id="path5741"
         d="m 304.8187,486.2787 c -0.4166,-4e-4 -0.8058,-0.0557 -1.1681,-0.1664 -0.3628,-0.1106 -0.6629,-0.2286 -0.8999,-0.3539 v -1.1681 h 0.0557 c 0.0908,0.0736 0.1971,0.1542 0.3195,0.2425 0.1216,0.0887 0.2839,0.1814 0.4866,0.2778 0.1806,0.0853 0.3788,0.1605 0.595,0.2257 0.2154,0.0656 0.4397,0.0985 0.6727,0.0982 0.1686,3e-4 0.3488,-0.0191 0.5408,-0.0579 0.1913,-0.0385 0.3342,-0.0872 0.428,-0.1459 0.1319,-0.0839 0.2268,-0.1736 0.2851,-0.2696 0.0579,-0.0957 0.0868,-0.2389 0.0872,-0.4295 -4e-4,-0.2451 -0.0719,-0.4301 -0.2147,-0.5554 -0.1433,-0.125 -0.3976,-0.2294 -0.7629,-0.3137 -0.1352,-0.0318 -0.3111,-0.0692 -0.5276,-0.1121 -0.2173,-0.0421 -0.417,-0.0883 -0.5995,-0.1385 -0.4778,-0.1345 -0.8251,-0.3429 -1.0413,-0.6251 -0.2169,-0.2817 -0.325,-0.6229 -0.3246,-1.0237 -4e-4,-0.5496 0.2147,-0.9977 0.6456,-1.344 0.4301,-0.3455 1.0021,-0.5185 1.7155,-0.5188 0.3506,3e-4 0.7035,0.0436 1.0589,0.1297 0.3547,0.0868 0.6529,0.1964 0.8948,0.329 v 1.1359 h -0.0572 c -0.277,-0.2312 -0.5851,-0.4144 -0.9248,-0.5489 -0.3404,-0.1341 -0.6834,-0.2012 -1.0289,-0.2015 -0.3569,3e-4 -0.658,0.0722 -0.9035,0.2154 -0.2459,0.144 -0.3686,0.3609 -0.3686,0.6508 0,0.2572 0.0743,0.4492 0.2235,0.5759 0.1487,0.1272 0.3884,0.2312 0.7189,0.3122 0.1571,0.0403 0.3319,0.0795 0.5239,0.1173 0.192,0.0384 0.3943,0.0828 0.6075,0.1333 0.4639,0.1125 0.8127,0.2994 1.0465,0.5606 0.233,0.2617 0.3499,0.6174 0.3503,1.0678 -4e-4,0.2619 -0.0535,0.51 -0.1591,0.7438 -0.1062,0.2341 -0.2612,0.4345 -0.4653,0.6016 -0.2231,0.1817 -0.4749,0.3199 -0.7548,0.414 -0.2807,0.0942 -0.6324,0.1411 -1.0552,0.1415 z"
         style="fill:#000000;fill-opacity:0.19742982" />
      <path
         inkscape:connector-curvature="0"
         id="path5743"
         d="m 308.8477,486.1849 h -1.0318 v -6.097 h 1.0318 z m 0.0938,-7.1288 h -1.2194 v -1.0318 h 1.2194 z"
         style="fill:#000000;fill-opacity:0.19742982" />
      <path
         inkscape:connector-curvature="0"
         id="path5745"
         d="m 311.3847,486.2787 c -0.4166,-4e-4 -0.8058,-0.0557 -1.1681,-0.1664 -0.3628,-0.1106 -0.6629,-0.2286 -0.8999,-0.3539 v -1.1681 h 0.0557 c 0.0908,0.0736 0.1971,0.1542 0.3195,0.2425 0.1216,0.0887 0.2839,0.1814 0.4866,0.2778 0.1806,0.0853 0.3788,0.1605 0.595,0.2257 0.2154,0.0656 0.4397,0.0985 0.6727,0.0982 0.1686,3e-4 0.3488,-0.0191 0.5408,-0.0579 0.1913,-0.0385 0.3342,-0.0872 0.428,-0.1459 0.1319,-0.0839 0.2268,-0.1736 0.2851,-0.2696 0.0579,-0.0957 0.0868,-0.2389 0.0872,-0.4295 -4e-4,-0.2451 -0.0719,-0.4301 -0.2147,-0.5554 -0.1433,-0.125 -0.3976,-0.2294 -0.7629,-0.3137 -0.1352,-0.0318 -0.3111,-0.0692 -0.5276,-0.1121 -0.2173,-0.0421 -0.417,-0.0883 -0.5995,-0.1385 -0.4778,-0.1345 -0.8251,-0.3429 -1.0413,-0.6251 -0.2169,-0.2817 -0.325,-0.6229 -0.3246,-1.0237 -4e-4,-0.5496 0.2147,-0.9977 0.6456,-1.344 0.4301,-0.3455 1.0021,-0.5185 1.7155,-0.5188 0.3506,3e-4 0.7035,0.0436 1.0589,0.1297 0.3547,0.0868 0.6529,0.1964 0.8948,0.329 v 1.1359 h -0.0572 c -0.277,-0.2312 -0.5851,-0.4144 -0.9248,-0.5489 -0.3404,-0.1341 -0.6834,-0.2012 -1.0289,-0.2015 -0.3569,3e-4 -0.658,0.0722 -0.9035,0.2154 -0.2459,0.144 -0.3686,0.3609 -0.3686,0.6508 0,0.2572 0.0743,0.4492 0.2235,0.5759 0.1487,0.1272 0.3884,0.2312 0.7189,0.3122 0.1571,0.0403 0.3319,0.0795 0.5239,0.1173 0.192,0.0384 0.3943,0.0828 0.6075,0.1333 0.4639,0.1125 0.8127,0.2994 1.0465,0.5606 0.233,0.2617 0.3499,0.6174 0.3503,1.0678 -4e-4,0.2619 -0.0535,0.51 -0.1591,0.7438 -0.1062,0.2341 -0.2612,0.4345 -0.4653,0.6016 -0.2231,0.1817 -0.4749,0.3199 -0.7548,0.414 -0.2807,0.0942 -0.6324,0.1411 -1.0552,0.1415 z"
         style="fill:#000000;fill-opacity:0.19742982" />
    </g>
    <g
       transform="matrix(0.26458333,0,0,0.26458333,0.1100765,137.80482)"
       id="g5783">
      <path
         inkscape:connector-curvature="0"
         id="path5773"
         d="m 292.9017,585.4708 2.792,-8.1606 h 1.3571 l 2.7921,8.1606 h -1.1901 l -0.7416,-2.2512 h -3.0778 l -0.7416,2.2512 z m 4.7017,-3.1892 -1.2326,-3.7021 -1.2297,3.7021 z"
         style="fill:#000000;fill-opacity:0.19742982" />
      <path
         inkscape:connector-curvature="0"
         id="path5775"
         d="m 302.2817,585.4708 h -1.0318 v -6.097 h 1.0318 z m 0.0938,-7.1288 h -1.2194 v -1.0318 h 1.2194 z"
         style="fill:#000000;fill-opacity:0.19742982" />
      <path
         inkscape:connector-curvature="0"
         id="path5777"
         d="m 304.8187,585.5646 c -0.4166,-3e-4 -0.8058,-0.0556 -1.1681,-0.1663 -0.3628,-0.1107 -0.6629,-0.2286 -0.8999,-0.3539 v -1.1682 h 0.0557 c 0.0908,0.0737 0.1971,0.1543 0.3195,0.2426 0.1216,0.0887 0.2839,0.1814 0.4866,0.2777 0.1806,0.0854 0.3788,0.1605 0.595,0.2258 0.2154,0.0655 0.4397,0.0985 0.6727,0.0981 0.1686,4e-4 0.3488,-0.019 0.5408,-0.0578 0.1913,-0.0385 0.3342,-0.0872 0.428,-0.1459 0.1319,-0.0839 0.2268,-0.1736 0.2851,-0.2696 0.0579,-0.0957 0.0868,-0.2389 0.0872,-0.4295 -4e-4,-0.2451 -0.0719,-0.4301 -0.2147,-0.5554 -0.1433,-0.125 -0.3976,-0.2294 -0.7629,-0.3137 -0.1352,-0.0319 -0.3111,-0.0692 -0.5276,-0.1121 -0.2173,-0.0421 -0.417,-0.0883 -0.5995,-0.1385 -0.4778,-0.1345 -0.8251,-0.343 -1.0413,-0.6251 -0.2169,-0.2818 -0.325,-0.6229 -0.3246,-1.0237 -4e-4,-0.5497 0.2147,-0.9978 0.6456,-1.344 0.4301,-0.3455 1.0021,-0.5185 1.7155,-0.5189 0.3506,4e-4 0.7035,0.0437 1.0589,0.1298 0.3547,0.0868 0.6529,0.1964 0.8948,0.329 v 1.1358 h -0.0572 c -0.277,-0.2312 -0.5851,-0.4144 -0.9248,-0.5488 -0.3404,-0.1341 -0.6834,-0.2012 -1.0289,-0.2016 -0.3569,4e-4 -0.658,0.0722 -0.9035,0.2155 -0.2459,0.144 -0.3686,0.3609 -0.3686,0.6507 0,0.2573 0.0743,0.4492 0.2235,0.576 0.1487,0.1272 0.3884,0.2312 0.7189,0.3122 0.1571,0.0403 0.3319,0.0795 0.5239,0.1173 0.192,0.0384 0.3943,0.0828 0.6075,0.1333 0.4639,0.1125 0.8127,0.2994 1.0465,0.5606 0.233,0.2616 0.3499,0.6174 0.3503,1.0677 -4e-4,0.262 -0.0535,0.5101 -0.1591,0.7438 -0.1062,0.2342 -0.2612,0.4346 -0.4653,0.6017 -0.2231,0.1817 -0.4749,0.3199 -0.7548,0.414 -0.2807,0.0942 -0.6324,0.1411 -1.0552,0.1414 z"
         style="fill:#000000;fill-opacity:0.19742982" />
      <path
         inkscape:connector-curvature="0"
         id="path5779"
         d="m 308.8477,585.4708 h -1.0318 v -6.097 h 1.0318 z m 0.0938,-7.1288 h -1.2194 v -1.0318 h 1.2194 z"
         style="fill:#000000;fill-opacity:0.19742982" />
      <path
         inkscape:connector-curvature="0"
         id="path5781"
         d="m 311.3847,585.5646 c -0.4166,-3e-4 -0.8058,-0.0556 -1.1681,-0.1663 -0.3628,-0.1107 -0.6629,-0.2286 -0.8999,-0.3539 v -1.1682 h 0.0557 c 0.0908,0.0737 0.1971,0.1543 0.3195,0.2426 0.1216,0.0887 0.2839,0.1814 0.4866,0.2777 0.1806,0.0854 0.3788,0.1605 0.595,0.2258 0.2154,0.0655 0.4397,0.0985 0.6727,0.0981 0.1686,4e-4 0.3488,-0.019 0.5408,-0.0578 0.1913,-0.0385 0.3342,-0.0872 0.428,-0.1459 0.1319,-0.0839 0.2268,-0.1736 0.2851,-0.2696 0.0579,-0.0957 0.0868,-0.2389 0.0872,-0.4295 -4e-4,-0.2451 -0.0719,-0.4301 -0.2147,-0.5554 -0.1433,-0.125 -0.3976,-0.2294 -0.7629,-0.3137 -0.1352,-0.0319 -0.3111,-0.0692 -0.5276,-0.1121 -0.2173,-0.0421 -0.417,-0.0883 -0.5995,-0.1385 -0.4778,-0.1345 -0.8251,-0.343 -1.0413,-0.6251 -0.2169,-0.2818 -0.325,-0.6229 -0.3246,-1.0237 -4e-4,-0.5497 0.2147,-0.9978 0.6456,-1.344 0.4301,-0.3455 1.0021,-0.5185 1.7155,-0.5189 0.3506,4e-4 0.7035,0.0437 1.0589,0.1298 0.3547,0.0868 0.6529,0.1964 0.8948,0.329 v 1.1358 h -0.0572 c -0.277,-0.2312 -0.5851,-0.4144 -0.9248,-0.5488 -0.3404,-0.1341 -0.6834,-0.2012 -1.0289,-0.2016 -0.3569,4e-4 -0.658,0.0722 -0.9035,0.2155 -0.2459,0.144 -0.3686,0.3609 -0.3686,0.6507 0,0.2573 0.0743,0.4492 0.2235,0.576 0.1487,0.1272 0.3884,0.2312 0.7189,0.3122 0.1571,0.0403 0.3319,0.0795 0.5239,0.1173 0.192,0.0384 0.3943,0.0828 0.6075,0.1333 0.4639,0.1125 0.8127,0.2994 1.0465,0.5606 0.233,0.2616 0.3499,0.6174 0.3503,1.0677 -4e-4,0.262 -0.0535,0.5101 -0.1591,0.7438 -0.1062,0.2342 -0.2612,0.4346 -0.4653,0.6017 -0.2231,0.1817 -0.4749,0.3199 -0.7548,0.414 -0.2807,0.0942 -0.6324,0.1411 -1.0552,0.1414 z"
         style="fill:#000000;fill-opacity:0.19742982" />
    </g>
    <g
       transform="matrix(0.26458333,0,0,0.26458333,0.1100765,137.80482)"
       id="g5791">
      <path
         inkscape:connector-curvature="0"
         id="path5785"
         d="m 299.7491,552.6302 h -1.1256 v -4.0334 h -3.6582 v 4.0334 h -1.1256 v -8.1606 h 1.1256 v 3.1892 h 3.6582 v -3.1892 h 1.1256 z"
         style="fill:#000000;fill-opacity:0.19742982" />
      <path
         inkscape:connector-curvature="0"
         id="path5787"
         d="m 302.2817,552.6302 h -1.0318 v -6.097 h 1.0318 z m 0.0938,-7.1288 h -1.2194 v -1.0318 h 1.2194 z"
         style="fill:#000000;fill-opacity:0.19742982" />
      <path
         inkscape:connector-curvature="0"
         id="path5789"
         d="m 304.8187,552.724 c -0.4166,-4e-4 -0.8058,-0.0557 -1.1681,-0.1663 -0.3628,-0.1107 -0.6629,-0.2287 -0.8999,-0.354 v -1.1681 h 0.0557 c 0.0908,0.0737 0.1971,0.1543 0.3195,0.2426 0.1216,0.0886 0.2839,0.1813 0.4866,0.2777 0.1806,0.0854 0.3788,0.1605 0.595,0.2257 0.2154,0.0656 0.4397,0.0986 0.6727,0.0982 0.1686,4e-4 0.3488,-0.019 0.5408,-0.0579 0.1913,-0.0385 0.3342,-0.0872 0.428,-0.1458 0.1319,-0.0839 0.2268,-0.1737 0.2851,-0.2697 0.0579,-0.0956 0.0868,-0.2389 0.0872,-0.4294 -4e-4,-0.2451 -0.0719,-0.4302 -0.2147,-0.5555 -0.1433,-0.1249 -0.3976,-0.2294 -0.7629,-0.3136 -0.1352,-0.0319 -0.3111,-0.0693 -0.5276,-0.1122 -0.2173,-0.0421 -0.417,-0.0883 -0.5995,-0.1385 -0.4778,-0.1344 -0.8251,-0.3429 -1.0413,-0.625 -0.2169,-0.2818 -0.325,-0.6229 -0.3246,-1.0238 -4e-4,-0.5496 0.2147,-0.9977 0.6456,-1.344 0.4301,-0.3455 1.0021,-0.5184 1.7155,-0.5188 0.3506,4e-4 0.7035,0.0436 1.0589,0.1297 0.3547,0.0869 0.6529,0.1964 0.8948,0.329 v 1.1359 h -0.0572 c -0.277,-0.2312 -0.5851,-0.4144 -0.9248,-0.5489 -0.3404,-0.1341 -0.6834,-0.2011 -1.0289,-0.2015 -0.3569,4e-4 -0.658,0.0722 -0.9035,0.2155 -0.2459,0.1439 -0.3686,0.3609 -0.3686,0.6507 0,0.2572 0.0743,0.4492 0.2235,0.576 0.1487,0.1271 0.3884,0.2312 0.7189,0.3122 0.1571,0.0403 0.3319,0.0795 0.5239,0.1172 0.192,0.0385 0.3943,0.0828 0.6075,0.1334 0.4639,0.1125 0.8127,0.2993 1.0465,0.5606 0.233,0.2616 0.3499,0.6174 0.3503,1.0677 -4e-4,0.262 -0.0535,0.51 -0.1591,0.7438 -0.1062,0.2341 -0.2612,0.4346 -0.4653,0.6016 -0.2231,0.1818 -0.4749,0.3199 -0.7548,0.4141 -0.2807,0.0941 -0.6324,0.141 -1.0552,0.1414 z"
         style="fill:#000000;fill-opacity:0.19742982" />
    </g>
    <g
       transform="matrix(0.26458333,0,0,0.26458333,0.1100765,137.80482)"
       id="g5803">
      <path
         inkscape:connector-curvature="0"
         id="path5793"
         d="m 300.2181,482.1134 c -4e-4,0.7445 -0.1499,1.4165 -0.4485,2.0159 -0.2994,0.5995 -0.7002,1.0674 -1.2033,1.4034 -0.4096,0.2601 -0.8255,0.4338 -1.2472,0.521 -0.4225,0.0876 -0.9615,0.1312 -1.6166,0.1312 h -1.8628 v -8.1606 h 1.8423 c 0.7599,0 1.3564,0.0579 1.7895,0.1729 0.4327,0.1158 0.8009,0.2734 1.1051,0.4734 0.5214,0.347 0.9255,0.8083 1.212,1.3836 0.2862,0.5756 0.4291,1.2619 0.4295,2.0592 z m -1.1256,-0.0176 c -4e-4,-0.6262 -0.1023,-1.1608 -0.3056,-1.6042 -0.2041,-0.4429 -0.506,-0.7885 -0.9065,-1.0369 -0.2814,-0.1744 -0.5833,-0.3004 -0.905,-0.3774 -0.3225,-0.0766 -0.7226,-0.1147 -1.2011,-0.115 h -0.809 v 6.2846 h 0.809 c 0.4719,3e-4 0.8845,-0.0381 1.2384,-0.1151 0.3533,-0.0766 0.6768,-0.2184 0.9703,-0.4257 0.3682,-0.2558 0.6452,-0.5962 0.831,-1.0209 0.1854,-0.4243 0.2781,-0.9541 0.2785,-1.5894 z"
         style="fill:#000000;fill-opacity:0.19742982" />
      <path
         inkscape:connector-curvature="0"
         id="path5795"
         d="m 302.2817,486.1849 h -1.0318 v -6.097 h 1.0318 z m 0.0938,-7.1288 h -1.2194 v -1.0318 h 1.2194 z"
         style="fill:#000000;fill-opacity:0.19742982" />
      <path
         inkscape:connector-curvature="0"
         id="path5797"
         d="m 304.8187,486.2787 c -0.4166,-4e-4 -0.8058,-0.0557 -1.1681,-0.1664 -0.3628,-0.1106 -0.6629,-0.2286 -0.8999,-0.3539 v -1.1681 h 0.0557 c 0.0908,0.0736 0.1971,0.1542 0.3195,0.2425 0.1216,0.0887 0.2839,0.1814 0.4866,0.2778 0.1806,0.0853 0.3788,0.1605 0.595,0.2257 0.2154,0.0656 0.4397,0.0985 0.6727,0.0982 0.1686,3e-4 0.3488,-0.0191 0.5408,-0.0579 0.1913,-0.0385 0.3342,-0.0872 0.428,-0.1459 0.1319,-0.0839 0.2268,-0.1736 0.2851,-0.2696 0.0579,-0.0957 0.0868,-0.2389 0.0872,-0.4295 -4e-4,-0.2451 -0.0719,-0.4301 -0.2147,-0.5554 -0.1433,-0.125 -0.3976,-0.2294 -0.7629,-0.3137 -0.1352,-0.0318 -0.3111,-0.0692 -0.5276,-0.1121 -0.2173,-0.0421 -0.417,-0.0883 -0.5995,-0.1385 -0.4778,-0.1345 -0.8251,-0.3429 -1.0413,-0.6251 -0.2169,-0.2817 -0.325,-0.6229 -0.3246,-1.0237 -4e-4,-0.5496 0.2147,-0.9977 0.6456,-1.344 0.4301,-0.3455 1.0021,-0.5185 1.7155,-0.5188 0.3506,3e-4 0.7035,0.0436 1.0589,0.1297 0.3547,0.0868 0.6529,0.1964 0.8948,0.329 v 1.1359 h -0.0572 c -0.277,-0.2312 -0.5851,-0.4144 -0.9248,-0.5489 -0.3404,-0.1341 -0.6834,-0.2012 -1.0289,-0.2015 -0.3569,3e-4 -0.658,0.0722 -0.9035,0.2154 -0.2459,0.144 -0.3686,0.3609 -0.3686,0.6508 0,0.2572 0.0743,0.4492 0.2235,0.5759 0.1487,0.1272 0.3884,0.2312 0.7189,0.3122 0.1571,0.0403 0.3319,0.0795 0.5239,0.1173 0.192,0.0384 0.3943,0.0828 0.6075,0.1333 0.4639,0.1125 0.8127,0.2994 1.0465,0.5606 0.233,0.2617 0.3499,0.6174 0.3503,1.0678 -4e-4,0.2619 -0.0535,0.51 -0.1591,0.7438 -0.1062,0.2341 -0.2612,0.4345 -0.4653,0.6016 -0.2231,0.1817 -0.4749,0.3199 -0.7548,0.414 -0.2807,0.0942 -0.6324,0.1411 -1.0552,0.1415 z"
         style="fill:#000000;fill-opacity:0.19742982" />
      <path
         inkscape:connector-curvature="0"
         id="path5799"
         d="m 308.8477,486.1849 h -1.0318 v -6.097 h 1.0318 z m 0.0938,-7.1288 h -1.2194 v -1.0318 h 1.2194 z"
         style="fill:#000000;fill-opacity:0.19742982" />
      <path
         inkscape:connector-curvature="0"
         id="path5801"
         d="m 311.3847,486.2787 c -0.4166,-4e-4 -0.8058,-0.0557 -1.1681,-0.1664 -0.3628,-0.1106 -0.6629,-0.2286 -0.8999,-0.3539 v -1.1681 h 0.0557 c 0.0908,0.0736 0.1971,0.1542 0.3195,0.2425 0.1216,0.0887 0.2839,0.1814 0.4866,0.2778 0.1806,0.0853 0.3788,0.1605 0.595,0.2257 0.2154,0.0656 0.4397,0.0985 0.6727,0.0982 0.1686,3e-4 0.3488,-0.0191 0.5408,-0.0579 0.1913,-0.0385 0.3342,-0.0872 0.428,-0.1459 0.1319,-0.0839 0.2268,-0.1736 0.2851,-0.2696 0.0579,-0.0957 0.0868,-0.2389 0.0872,-0.4295 -4e-4,-0.2451 -0.0719,-0.4301 -0.2147,-0.5554 -0.1433,-0.125 -0.3976,-0.2294 -0.7629,-0.3137 -0.1352,-0.0318 -0.3111,-0.0692 -0.5276,-0.1121 -0.2173,-0.0421 -0.417,-0.0883 -0.5995,-0.1385 -0.4778,-0.1345 -0.8251,-0.3429 -1.0413,-0.6251 -0.2169,-0.2817 -0.325,-0.6229 -0.3246,-1.0237 -4e-4,-0.5496 0.2147,-0.9977 0.6456,-1.344 0.4301,-0.3455 1.0021,-0.5185 1.7155,-0.5188 0.3506,3e-4 0.7035,0.0436 1.0589,0.1297 0.3547,0.0868 0.6529,0.1964 0.8948,0.329 v 1.1359 h -0.0572 c -0.277,-0.2312 -0.5851,-0.4144 -0.9248,-0.5489 -0.3404,-0.1341 -0.6834,-0.2012 -1.0289,-0.2015 -0.3569,3e-4 -0.658,0.0722 -0.9035,0.2154 -0.2459,0.144 -0.3686,0.3609 -0.3686,0.6508 0,0.2572 0.0743,0.4492 0.2235,0.5759 0.1487,0.1272 0.3884,0.2312 0.7189,0.3122 0.1571,0.0403 0.3319,0.0795 0.5239,0.1173 0.192,0.0384 0.3943,0.0828 0.6075,0.1333 0.4639,0.1125 0.8127,0.2994 1.0465,0.5606 0.233,0.2617 0.3499,0.6174 0.3503,1.0678 -4e-4,0.2619 -0.0535,0.51 -0.1591,0.7438 -0.1062,0.2341 -0.2612,0.4345 -0.4653,0.6016 -0.2231,0.1817 -0.4749,0.3199 -0.7548,0.414 -0.2807,0.0942 -0.6324,0.1411 -1.0552,0.1415 z"
         style="fill:#000000;fill-opacity:0.19742982" />
    </g>
    <g
       transform="matrix(0.26458333,0,0,0.26458333,0.1100765,137.80482)"
       id="g5815">
      <path
         inkscape:connector-curvature="0"
         id="path5805"
         d="m 297.0245,519.4209 c -0.5328,-4e-4 -1.0227,-0.0905 -1.4701,-0.2711 -0.4477,-0.1807 -0.8343,-0.4496 -1.1593,-0.8076 -0.3257,-0.3573 -0.5778,-0.8035 -0.7562,-1.3389 -0.1792,-0.5345 -0.2686,-1.1486 -0.2682,-1.8415 -4e-4,-0.6896 0.0864,-1.2905 0.2601,-1.8035 0.1733,-0.5122 0.4261,-0.9585 0.7585,-1.3388 0.3253,-0.369 0.7108,-0.6504 1.1564,-0.8442 0.4455,-0.1931 0.9438,-0.2898 1.4949,-0.2902 0.2744,4e-4 0.5313,0.0201 0.7709,0.0594 0.2393,0.0399 0.4609,0.0905 0.6654,0.1516 0.1744,0.0543 0.3543,0.1217 0.5394,0.2023 0.1843,0.0813 0.366,0.17 0.5452,0.2667 v 1.2898 h -0.088 c -0.0949,-0.0835 -0.2173,-0.1854 -0.3671,-0.3049 -0.1502,-0.119 -0.3327,-0.2367 -0.5474,-0.3532 -0.2092,-0.1081 -0.436,-0.1975 -0.6808,-0.2682 -0.2448,-0.07 -0.528,-0.1051 -0.8493,-0.1055 -0.347,4e-4 -0.6757,0.0725 -0.9864,0.2162 -0.3107,0.1443 -0.5833,0.3565 -0.8178,0.6368 -0.2298,0.2807 -0.4086,0.6331 -0.5364,1.0574 -0.1283,0.4247 -0.1924,0.9021 -0.192,1.4327 -4e-4,0.565 0.0674,1.0516 0.203,1.459 0.1352,0.4082 0.3195,0.7522 0.5532,1.0325 0.2265,0.2738 0.4932,0.4797 0.8003,0.6178 0.3066,0.1385 0.632,0.2078 0.9761,0.2074 0.3143,4e-4 0.6049,-0.037 0.872,-0.1121 0.2664,-0.0744 0.5038,-0.1689 0.7123,-0.2836 0.2008,-0.1099 0.3745,-0.2232 0.521,-0.3393 0.1459,-0.1154 0.2609,-0.2144 0.3452,-0.2968 h 0.0821 v 1.2766 c -0.1792,0.0831 -0.3481,0.1626 -0.5064,0.2381 -0.159,0.0759 -0.3518,0.1499 -0.5782,0.2221 -0.2378,0.0762 -0.4576,0.1337 -0.6603,0.1736 -0.203,0.0392 -0.4671,0.059 -0.7921,0.0594 z"
         style="fill:#000000;fill-opacity:0.19742982" />
      <path
         inkscape:connector-curvature="0"
         id="path5807"
         d="m 301.3437,519.2333 h -1.0318 v -6.097 h 1.0318 z m 0.0938,-7.1288 h -1.2194 v -1.0318 h 1.2194 z"
         style="fill:#000000;fill-opacity:0.19742982" />
      <path
         inkscape:connector-curvature="0"
         id="path5809"
         d="m 303.8807,519.3271 c -0.4166,-4e-4 -0.8058,-0.0557 -1.1681,-0.1664 -0.3628,-0.1106 -0.6629,-0.2286 -0.8999,-0.3539 v -1.1681 h 0.0557 c 0.0908,0.0736 0.1971,0.1543 0.3195,0.2426 0.1216,0.0886 0.2839,0.1813 0.4866,0.2777 0.1806,0.0854 0.3788,0.1605 0.595,0.2257 0.2154,0.0656 0.4397,0.0986 0.6727,0.0982 0.1686,4e-4 0.3488,-0.0191 0.5408,-0.0579 0.1913,-0.0385 0.3342,-0.0872 0.428,-0.1458 0.1319,-0.0839 0.2268,-0.1737 0.2851,-0.2697 0.0579,-0.0956 0.0868,-0.2389 0.0872,-0.4294 -4e-4,-0.2452 -0.0719,-0.4302 -0.2147,-0.5555 -0.1433,-0.1249 -0.3976,-0.2294 -0.7629,-0.3136 -0.1352,-0.0319 -0.3111,-0.0693 -0.5276,-0.1122 -0.2173,-0.0421 -0.417,-0.0883 -0.5995,-0.1385 -0.4778,-0.1344 -0.8251,-0.3429 -1.0413,-0.6251 -0.2169,-0.2817 -0.325,-0.6228 -0.3246,-1.0237 -4e-4,-0.5496 0.2147,-0.9977 0.6456,-1.344 0.4301,-0.3455 1.0021,-0.5184 1.7155,-0.5188 0.3506,4e-4 0.7035,0.0436 1.0589,0.1297 0.3547,0.0868 0.6529,0.1964 0.8948,0.329 v 1.1359 h -0.0572 c -0.277,-0.2312 -0.5851,-0.4144 -0.9248,-0.5489 -0.3404,-0.1341 -0.6834,-0.2011 -1.0289,-0.2015 -0.3569,4e-4 -0.658,0.0722 -0.9035,0.2154 -0.2459,0.144 -0.3686,0.361 -0.3686,0.6508 0,0.2572 0.0743,0.4492 0.2235,0.576 0.1487,0.1271 0.3884,0.2312 0.7189,0.3121 0.1571,0.0404 0.3319,0.0796 0.5239,0.1173 0.192,0.0385 0.3943,0.0828 0.6075,0.1334 0.4639,0.1125 0.8127,0.2993 1.0465,0.5606 0.233,0.2616 0.3499,0.6174 0.3503,1.0677 -4e-4,0.262 -0.0535,0.51 -0.1591,0.7438 -0.1062,0.2341 -0.2612,0.4345 -0.4653,0.6016 -0.2231,0.1818 -0.4749,0.3199 -0.7548,0.4141 -0.2807,0.0941 -0.6324,0.141 -1.0552,0.1414 z"
         style="fill:#000000;fill-opacity:0.19742982" />
      <path
         inkscape:connector-curvature="0"
         id="path5811"
         d="m 307.9097,519.2333 h -1.0318 v -6.097 h 1.0318 z m 0.0938,-7.1288 h -1.2194 v -1.0318 h 1.2194 z"
         style="fill:#000000;fill-opacity:0.19742982" />
      <path
         inkscape:connector-curvature="0"
         id="path5813"
         d="m 310.4467,519.3271 c -0.4166,-4e-4 -0.8058,-0.0557 -1.1681,-0.1664 -0.3628,-0.1106 -0.6629,-0.2286 -0.8999,-0.3539 v -1.1681 h 0.0557 c 0.0908,0.0736 0.1971,0.1543 0.3195,0.2426 0.1216,0.0886 0.2839,0.1813 0.4866,0.2777 0.1806,0.0854 0.3788,0.1605 0.595,0.2257 0.2154,0.0656 0.4397,0.0986 0.6727,0.0982 0.1686,4e-4 0.3488,-0.0191 0.5408,-0.0579 0.1913,-0.0385 0.3342,-0.0872 0.428,-0.1458 0.1319,-0.0839 0.2268,-0.1737 0.2851,-0.2697 0.0579,-0.0956 0.0868,-0.2389 0.0872,-0.4294 -4e-4,-0.2452 -0.0719,-0.4302 -0.2147,-0.5555 -0.1433,-0.1249 -0.3976,-0.2294 -0.7629,-0.3136 -0.1352,-0.0319 -0.3111,-0.0693 -0.5276,-0.1122 -0.2173,-0.0421 -0.417,-0.0883 -0.5995,-0.1385 -0.4778,-0.1344 -0.8251,-0.3429 -1.0413,-0.6251 -0.2169,-0.2817 -0.325,-0.6228 -0.3246,-1.0237 -4e-4,-0.5496 0.2147,-0.9977 0.6456,-1.344 0.4301,-0.3455 1.0021,-0.5184 1.7155,-0.5188 0.3506,4e-4 0.7035,0.0436 1.0589,0.1297 0.3547,0.0868 0.6529,0.1964 0.8948,0.329 v 1.1359 h -0.0572 c -0.277,-0.2312 -0.5851,-0.4144 -0.9248,-0.5489 -0.3404,-0.1341 -0.6834,-0.2011 -1.0289,-0.2015 -0.3569,4e-4 -0.658,0.0722 -0.9035,0.2154 -0.2459,0.144 -0.3686,0.361 -0.3686,0.6508 0,0.2572 0.0743,0.4492 0.2235,0.576 0.1487,0.1271 0.3884,0.2312 0.7189,0.3121 0.1571,0.0404 0.3319,0.0796 0.5239,0.1173 0.192,0.0385 0.3943,0.0828 0.6075,0.1334 0.4639,0.1125 0.8127,0.2993 1.0465,0.5606 0.233,0.2616 0.3499,0.6174 0.3503,1.0677 -4e-4,0.262 -0.0535,0.51 -0.1591,0.7438 -0.1062,0.2341 -0.2612,0.4345 -0.4653,0.6016 -0.2231,0.1818 -0.4749,0.3199 -0.7548,0.4141 -0.2807,0.0941 -0.6324,0.141 -1.0552,0.1414 z"
         style="fill:#000000;fill-opacity:0.19742982" />
    </g>
    <path
       inkscape:connector-curvature="0"
       id="path5843"
       d="m 0.1101565,286.51597 v 8.74406 H 16.614627 v -8.74406 z"
       style="fill:url(#grad54);stroke:#000000;stroke-width:0.12374563;stroke-miterlimit:4;stroke-opacity:0.23999999">
      <title
         id="title8678">Ases - Little</title>
    </path>
    <g
       transform="matrix(0.26458333,0,0,0.26458333,0.1100765,137.80482)"
       id="g5851">
      <path
         inkscape:connector-curvature="0"
         id="path5845"
         d="m 23.0082,585.8246 c -0.5327,-4e-4 -1.0226,-0.0905 -1.47,-0.2712 -0.4477,-0.1806 -0.8343,-0.4496 -1.1593,-0.8075 -0.3257,-0.3573 -0.5778,-0.8036 -0.7563,-1.3389 -0.1791,-0.5346 -0.2685,-1.1487 -0.2682,-1.8416 -3e-4,-0.6895 0.0865,-1.2904 0.2602,-1.8034 0.1733,-0.5122 0.4261,-0.9585 0.7584,-1.3389 0.3254,-0.3689 0.7109,-0.6503 1.1564,-0.8442 0.4456,-0.193 0.9439,-0.2898 1.495,-0.2901 0.2744,3e-4 0.5312,0.0201 0.7709,0.0593 0.2392,0.0399 0.4609,0.0905 0.6654,0.1517 0.1744,0.0542 0.3543,0.1217 0.5393,0.2023 0.1843,0.0813 0.3661,0.17 0.5452,0.2667 v 1.2898 h -0.0879 c -0.0949,-0.0836 -0.2173,-0.1854 -0.3671,-0.3049 -0.1503,-0.1191 -0.3327,-0.2367 -0.5475,-0.3532 -0.2092,-0.1081 -0.436,-0.1975 -0.6807,-0.2682 -0.2448,-0.07 -0.528,-0.1052 -0.8494,-0.1055 -0.347,3e-4 -0.6756,0.0725 -0.9863,0.2161 -0.3107,0.1444 -0.5834,0.3565 -0.8179,0.6368 -0.2297,0.2807 -0.4085,0.6332 -0.5364,1.0575 -0.1282,0.4247 -0.1923,0.9021 -0.192,1.4326 -3e-4,0.565 0.0675,1.0516 0.203,1.4591 0.1352,0.4082 0.3195,0.7522 0.5533,1.0325 0.2264,0.2737 0.4932,0.4796 0.8002,0.6178 0.3067,0.1385 0.6321,0.2077 0.9761,0.2074 0.3144,3e-4 0.605,-0.0371 0.8721,-0.1122 0.2664,-0.0743 0.5038,-0.1689 0.7123,-0.2836 0.2008,-0.1099 0.3744,-0.2231 0.521,-0.3393 0.1458,-0.1154 0.2609,-0.2143 0.3452,-0.2967 h 0.082 v 1.2765 c -0.1791,0.0832 -0.3481,0.1627 -0.5063,0.2382 -0.1591,0.0758 -0.3518,0.1498 -0.5782,0.222 -0.2378,0.0762 -0.4577,0.1338 -0.6603,0.1737 -0.203,0.0392 -0.4672,0.059 -0.7922,0.0594 z"
         style="fill:#898a8c" />
      <path
         inkscape:connector-curvature="0"
         id="path5847"
         d="m 28.9543,585.7308 c -0.9912,-4e-4 -1.7602,-0.2727 -2.3069,-0.8179 -0.5474,-0.5448 -0.8208,-1.3194 -0.8208,-2.323 0,-0.9885 0.2638,-1.7752 0.7922,-2.3604 0.5276,-0.5844 1.2183,-0.8768 2.0717,-0.8771 0.3847,3e-4 0.7247,0.0542 1.02,0.1619 0.295,0.1081 0.5533,0.277 0.7754,0.5064 0.2213,0.2297 0.3913,0.5107 0.51,0.8434 0.118,0.3327 0.1773,0.7402 0.1773,1.2216 v 0.5497 h -4.3148 c -3e-4,0.6998 0.1829,1.234 0.5496,1.6033 0.3661,0.3694 0.8725,0.5541 1.5184,0.5541 0.2316,0 0.4588,-0.0257 0.6815,-0.0777 0.2228,-0.0513 0.4236,-0.1184 0.6024,-0.2008 0.1905,-0.0847 0.351,-0.1671 0.4822,-0.247 0.1304,-0.0795 0.2389,-0.1542 0.3254,-0.2249 h 0.0615 v 1.1725 c -0.1223,0.048 -0.274,0.1077 -0.4558,0.1788 -0.1817,0.0714 -0.3451,0.1271 -0.4895,0.167 -0.2044,0.0546 -0.3891,0.0964 -0.554,0.1261 -0.1656,0.0289 -0.3741,0.0436 -0.6258,0.044 z m 1.1871,-3.8458 c -0.008,-0.2752 -0.0414,-0.513 -0.1004,-0.7131 -0.0593,-0.1997 -0.1447,-0.3682 -0.2557,-0.5063 -0.1224,-0.1521 -0.2788,-0.2686 -0.469,-0.3489 -0.1909,-0.0798 -0.4269,-0.1198 -0.7079,-0.1201 -0.2777,3e-4 -0.5137,0.041 -0.7079,0.1223 -0.1949,0.0817 -0.3715,0.2008 -0.5306,0.3569 -0.1553,0.1605 -0.274,0.3375 -0.3554,0.5313 -0.0821,0.1942 -0.1341,0.4203 -0.1561,0.6779 z"
         style="fill:#898a8c" />
      <path
         inkscape:connector-curvature="0"
         id="path5849"
         d="m 34.5544,585.7308 c -0.4166,-4e-4 -0.8057,-0.0557 -1.1681,-0.1664 -0.3627,-0.1106 -0.6628,-0.2286 -0.8999,-0.3539 v -1.1681 h 0.0557 c 0.0909,0.0736 0.1972,0.1542 0.3195,0.2425 0.1217,0.0887 0.284,0.1814 0.4866,0.2778 0.1807,0.0853 0.3789,0.1604 0.5951,0.2257 0.2154,0.0655 0.4397,0.0985 0.6727,0.0982 0.1685,3e-4 0.3488,-0.0191 0.5408,-0.0579 0.1913,-0.0385 0.3342,-0.0872 0.428,-0.1459 0.1319,-0.0839 0.2268,-0.1736 0.285,-0.2696 0.0579,-0.0957 0.0869,-0.2389 0.0872,-0.4295 -3e-4,-0.2451 -0.0718,-0.4301 -0.2147,-0.5554 -0.1432,-0.125 -0.3975,-0.2294 -0.7628,-0.3137 -0.1352,-0.0319 -0.3111,-0.0692 -0.5277,-0.1121 -0.2172,-0.0421 -0.4169,-0.0883 -0.5994,-0.1385 -0.4778,-0.1345 -0.8252,-0.343 -1.0413,-0.6251 -0.2169,-0.2818 -0.325,-0.6229 -0.3247,-1.0237 -3e-4,-0.5496 0.2147,-0.9978 0.6456,-1.344 0.4302,-0.3455 1.0022,-0.5185 1.7156,-0.5188 0.3506,3e-4 0.7035,0.0436 1.0589,0.1297 0.3547,0.0868 0.6529,0.1964 0.8947,0.329 v 1.1359 h -0.0571 c -0.277,-0.2312 -0.5852,-0.4145 -0.9248,-0.5489 -0.3404,-0.1341 -0.6834,-0.2012 -1.0289,-0.2015 -0.3569,3e-4 -0.6581,0.0721 -0.9036,0.2154 -0.2458,0.144 -0.3686,0.3609 -0.3686,0.6507 0,0.2573 0.0744,0.4493 0.2235,0.576 0.1488,0.1272 0.3884,0.2312 0.7189,0.3122 0.1572,0.0403 0.332,0.0795 0.524,0.1173 0.192,0.0384 0.3942,0.0828 0.6075,0.1333 0.4639,0.1125 0.8127,0.2994 1.0464,0.5606 0.2331,0.2616 0.35,0.6174 0.3503,1.0677 -3e-4,0.262 -0.0535,0.5101 -0.159,0.7438 -0.1062,0.2342 -0.2612,0.4346 -0.4653,0.6017 -0.2232,0.1817 -0.4749,0.3199 -0.7548,0.414 -0.2807,0.0942 -0.6324,0.1411 -1.0553,0.1415 z"
         style="fill:#898a8c" />
    </g>
    <path
       inkscape:connector-curvature="0"
       id="path5853"
       d="m 0.1101565,277.77128 v 8.74408 H 16.614627 v -8.74408 z"
       style="fill:url(#grad55);stroke:#000000;stroke-width:0.12374563;stroke-miterlimit:4;stroke-opacity:0.23999999">
      <title
         id="title8684">Deses - 1</title>
    </path>
    <g
       transform="matrix(0.26458333,0,0,0.26458333,0.1100765,137.80482)"
       id="g5865">
      <path
         inkscape:connector-curvature="0"
         id="path5855"
         d="m 26.2018,548.5147 c -3e-4,0.7445 -0.1498,1.4165 -0.4484,2.0159 -0.2994,0.5995 -0.7003,1.0674 -1.2033,1.4034 -0.4097,0.2601 -0.8255,0.4338 -1.2473,0.521 -0.4224,0.0876 -0.9614,0.1312 -1.6166,0.1312 h -1.8628 v -8.1606 h 1.8423 c 0.76,0 1.3565,0.0579 1.7896,0.1729 0.4327,0.1158 0.8009,0.2734 1.105,0.4734 0.5214,0.347 0.9256,0.8083 1.2121,1.3836 0.2862,0.5756 0.4291,1.2619 0.4294,2.0592 z m -1.1256,-0.0176 c -3e-4,-0.6262 -0.1022,-1.1608 -0.3055,-1.6041 -0.2041,-0.443 -0.5061,-0.7886 -0.9065,-1.037 -0.2814,-0.1744 -0.5834,-0.3004 -0.9051,-0.3774 -0.3224,-0.0766 -0.7225,-0.1147 -1.201,-0.115 H 20.949 v 6.2846 h 0.8091 c 0.4719,3e-4 0.8845,-0.0381 1.2384,-0.1151 0.3532,-0.0766 0.6768,-0.2184 0.9703,-0.4257 0.3682,-0.2558 0.6452,-0.5962 0.831,-1.0209 0.1854,-0.4242 0.2781,-0.9541 0.2784,-1.5894 z"
         style="fill:#898a8c" />
      <path
         inkscape:connector-curvature="0"
         id="path5857"
         d="m 29.8923,552.68 c -0.9912,-4e-4 -1.7602,-0.2726 -2.3069,-0.8178 -0.5474,-0.5449 -0.8208,-1.3195 -0.8208,-2.3231 0,-0.9885 0.2638,-1.7752 0.7922,-2.3604 0.5276,-0.5844 1.2183,-0.8768 2.0717,-0.8771 0.3847,3e-4 0.7247,0.0542 1.02,0.1619 0.295,0.1081 0.5533,0.277 0.7754,0.5064 0.2213,0.2297 0.3913,0.5108 0.51,0.8435 0.118,0.3327 0.1773,0.7401 0.1773,1.2216 v 0.5496 h -4.3148 c -3e-4,0.6998 0.1829,1.234 0.5496,1.6034 0.3661,0.3693 0.8725,0.554 1.5184,0.554 0.2316,0 0.4588,-0.0257 0.6815,-0.0777 0.2228,-0.0513 0.4236,-0.1184 0.6024,-0.2008 0.1905,-0.0846 0.351,-0.1671 0.4822,-0.247 0.1304,-0.0795 0.2389,-0.1542 0.3254,-0.2249 h 0.0615 v 1.1725 c -0.1223,0.048 -0.274,0.1077 -0.4558,0.1788 -0.1817,0.0714 -0.3451,0.1271 -0.4895,0.1671 -0.2044,0.0546 -0.3891,0.0963 -0.554,0.126 -0.1656,0.0289 -0.3741,0.0436 -0.6258,0.044 z m 1.1871,-3.8458 c -0.008,-0.2752 -0.0414,-0.513 -0.1004,-0.7131 -0.0593,-0.1996 -0.1447,-0.3682 -0.2557,-0.5063 -0.1224,-0.1521 -0.2788,-0.2686 -0.469,-0.3488 -0.1909,-0.0799 -0.4269,-0.1199 -0.7079,-0.1202 -0.2777,3e-4 -0.5137,0.041 -0.7079,0.1224 -0.1949,0.0817 -0.3715,0.2007 -0.5306,0.3568 -0.1553,0.1605 -0.274,0.3375 -0.3554,0.5313 -0.0821,0.1942 -0.1341,0.4203 -0.1561,0.6779 z"
         style="fill:#898a8c" />
      <path
         inkscape:connector-curvature="0"
         id="path5859"
         d="m 35.4924,552.68 c -0.4166,-4e-4 -0.8057,-0.0557 -1.1681,-0.1664 -0.3627,-0.1106 -0.6628,-0.2286 -0.8999,-0.3539 v -1.1681 h 0.0557 c 0.0909,0.0736 0.1972,0.1542 0.3195,0.2425 0.1217,0.0887 0.284,0.1814 0.4866,0.2778 0.1807,0.0853 0.3789,0.1605 0.5951,0.2257 0.2154,0.0656 0.4397,0.0985 0.6727,0.0982 0.1685,3e-4 0.3488,-0.0191 0.5408,-0.0579 0.1913,-0.0385 0.3342,-0.0872 0.428,-0.1458 0.1319,-0.084 0.2268,-0.1737 0.285,-0.2697 0.0579,-0.0957 0.0869,-0.2389 0.0872,-0.4295 -3e-4,-0.2451 -0.0718,-0.4301 -0.2147,-0.5554 -0.1432,-0.125 -0.3975,-0.2294 -0.7628,-0.3137 -0.1352,-0.0318 -0.3111,-0.0692 -0.5277,-0.1121 -0.2172,-0.0421 -0.4169,-0.0883 -0.5994,-0.1385 -0.4778,-0.1345 -0.8252,-0.3429 -1.0413,-0.6251 -0.2169,-0.2817 -0.325,-0.6229 -0.3247,-1.0237 -3e-4,-0.5496 0.2147,-0.9977 0.6456,-1.344 0.4302,-0.3455 1.0022,-0.5185 1.7156,-0.5188 0.3506,3e-4 0.7035,0.0436 1.0589,0.1297 0.3547,0.0868 0.6529,0.1964 0.8947,0.329 v 1.1359 h -0.0571 c -0.277,-0.2312 -0.5852,-0.4144 -0.9248,-0.5489 -0.3404,-0.1341 -0.6834,-0.2012 -1.0289,-0.2015 -0.3569,3e-4 -0.6581,0.0722 -0.9036,0.2154 -0.2458,0.144 -0.3686,0.3609 -0.3686,0.6508 0,0.2572 0.0744,0.4492 0.2235,0.5759 0.1488,0.1272 0.3884,0.2312 0.7189,0.3122 0.1572,0.0403 0.332,0.0795 0.524,0.1173 0.192,0.0384 0.3942,0.0828 0.6075,0.1333 0.4639,0.1125 0.8127,0.2994 1.0464,0.5606 0.2331,0.2617 0.35,0.6174 0.3503,1.0678 -3e-4,0.2619 -0.0535,0.51 -0.159,0.7438 -0.1062,0.2341 -0.2612,0.4345 -0.4653,0.6016 -0.2232,0.1817 -0.4749,0.3199 -0.7548,0.414 -0.2807,0.0942 -0.6324,0.1411 -1.0553,0.1415 z"
         style="fill:#898a8c" />
      <path
         inkscape:connector-curvature="0"
         id="path5861"
         d="m 41.1483,552.68 c -0.9912,-4e-4 -1.7602,-0.2726 -2.3069,-0.8178 -0.5474,-0.5449 -0.8208,-1.3195 -0.8208,-2.3231 0,-0.9885 0.2638,-1.7752 0.7922,-2.3604 0.5276,-0.5844 1.2183,-0.8768 2.0717,-0.8771 0.3847,3e-4 0.7247,0.0542 1.02,0.1619 0.295,0.1081 0.5533,0.277 0.7754,0.5064 0.2213,0.2297 0.3913,0.5108 0.51,0.8435 0.118,0.3327 0.1773,0.7401 0.1773,1.2216 v 0.5496 h -4.3148 c -3e-4,0.6998 0.1829,1.234 0.5496,1.6034 0.3661,0.3693 0.8725,0.554 1.5184,0.554 0.2316,0 0.4588,-0.0257 0.6815,-0.0777 0.2228,-0.0513 0.4236,-0.1184 0.6024,-0.2008 0.1905,-0.0846 0.351,-0.1671 0.4822,-0.247 0.1304,-0.0795 0.2389,-0.1542 0.3254,-0.2249 h 0.0615 v 1.1725 c -0.1223,0.048 -0.274,0.1077 -0.4558,0.1788 -0.1817,0.0714 -0.3451,0.1271 -0.4895,0.1671 -0.2044,0.0546 -0.3891,0.0963 -0.554,0.126 -0.1656,0.0289 -0.3741,0.0436 -0.6258,0.044 z m 1.1871,-3.8458 c -0.008,-0.2752 -0.0414,-0.513 -0.1004,-0.7131 -0.0593,-0.1996 -0.1447,-0.3682 -0.2557,-0.5063 -0.1224,-0.1521 -0.2788,-0.2686 -0.469,-0.3488 -0.1909,-0.0799 -0.4269,-0.1199 -0.7079,-0.1202 -0.2777,3e-4 -0.5137,0.041 -0.7079,0.1224 -0.1949,0.0817 -0.3715,0.2007 -0.5306,0.3568 -0.1553,0.1605 -0.274,0.3375 -0.3554,0.5313 -0.0821,0.1942 -0.1341,0.4203 -0.1561,0.6779 z"
         style="fill:#898a8c" />
      <path
         inkscape:connector-curvature="0"
         id="path5863"
         d="m 46.7484,552.68 c -0.4166,-4e-4 -0.8057,-0.0557 -1.1681,-0.1664 -0.3627,-0.1106 -0.6628,-0.2286 -0.8999,-0.3539 v -1.1681 h 0.0557 c 0.0909,0.0736 0.1972,0.1542 0.3195,0.2425 0.1217,0.0887 0.284,0.1814 0.4866,0.2778 0.1807,0.0853 0.3789,0.1605 0.5951,0.2257 0.2154,0.0656 0.4397,0.0985 0.6727,0.0982 0.1685,3e-4 0.3488,-0.0191 0.5408,-0.0579 0.1913,-0.0385 0.3342,-0.0872 0.428,-0.1458 0.1319,-0.084 0.2268,-0.1737 0.285,-0.2697 0.0579,-0.0957 0.0869,-0.2389 0.0872,-0.4295 -3e-4,-0.2451 -0.0718,-0.4301 -0.2147,-0.5554 -0.1432,-0.125 -0.3975,-0.2294 -0.7628,-0.3137 -0.1352,-0.0318 -0.3111,-0.0692 -0.5277,-0.1121 -0.2172,-0.0421 -0.4169,-0.0883 -0.5994,-0.1385 -0.4778,-0.1345 -0.8252,-0.3429 -1.0413,-0.6251 -0.2169,-0.2817 -0.325,-0.6229 -0.3247,-1.0237 -3e-4,-0.5496 0.2147,-0.9977 0.6456,-1.344 0.4302,-0.3455 1.0022,-0.5185 1.7156,-0.5188 0.3506,3e-4 0.7035,0.0436 1.0589,0.1297 0.3547,0.0868 0.6529,0.1964 0.8947,0.329 v 1.1359 h -0.0571 c -0.277,-0.2312 -0.5852,-0.4144 -0.9248,-0.5489 -0.3404,-0.1341 -0.6834,-0.2012 -1.0289,-0.2015 -0.3569,3e-4 -0.6581,0.0722 -0.9036,0.2154 -0.2458,0.144 -0.3686,0.3609 -0.3686,0.6508 0,0.2572 0.0744,0.4492 0.2235,0.5759 0.1488,0.1272 0.3884,0.2312 0.7189,0.3122 0.1572,0.0403 0.332,0.0795 0.524,0.1173 0.192,0.0384 0.3942,0.0828 0.6075,0.1333 0.4639,0.1125 0.8127,0.2994 1.0464,0.5606 0.2331,0.2617 0.35,0.6174 0.3503,1.0678 -3e-4,0.2619 -0.0535,0.51 -0.159,0.7438 -0.1062,0.2341 -0.2612,0.4345 -0.4653,0.6016 -0.2232,0.1817 -0.4749,0.3199 -0.7548,0.414 -0.2807,0.0942 -0.6324,0.1411 -1.0553,0.1415 z"
         style="fill:#898a8c" />
    </g>
    <path
       inkscape:connector-curvature="0"
       id="path5867"
       d="m 0.1101565,269.02661 v 8.74406 H 16.614627 v -8.74406 z"
       style="fill:url(#grad56);stroke:#000000;stroke-width:0.12374563;stroke-miterlimit:4;stroke-opacity:0.23999999">
      <title
         id="title8696">Eses - 1</title>
    </path>
    <g
       transform="matrix(0.26458333,0,0,0.26458333,0.1100765,137.80482)"
       id="g5877">
      <path
         inkscape:connector-curvature="0"
         id="path5869"
         d="m 19.8234,519.5354 v -8.1606 h 5.0652 v 0.938 H 20.949 v 2.2512 h 3.6582 v 0.938 H 20.949 v 3.0954 h 3.9396 v 0.938 z"
         style="fill:#898a8c" />
      <path
         inkscape:connector-curvature="0"
         id="path5871"
         d="m 27.9884,519.6292 c -0.4166,-4e-4 -0.8057,-0.0557 -1.1681,-0.1664 -0.3627,-0.1106 -0.6628,-0.2286 -0.8999,-0.3539 v -1.1681 h 0.0557 c 0.0909,0.0736 0.1972,0.1542 0.3195,0.2426 0.1217,0.0886 0.284,0.1813 0.4866,0.2777 0.1807,0.0854 0.3789,0.1605 0.5951,0.2257 0.2154,0.0656 0.4397,0.0986 0.6727,0.0982 0.1685,4e-4 0.3488,-0.0191 0.5408,-0.0579 0.1913,-0.0385 0.3342,-0.0872 0.428,-0.1458 0.1319,-0.0839 0.2268,-0.1737 0.285,-0.2697 0.0579,-0.0956 0.0869,-0.2389 0.0872,-0.4294 -3e-4,-0.2452 -0.0718,-0.4302 -0.2147,-0.5555 -0.1432,-0.125 -0.3975,-0.2294 -0.7628,-0.3136 -0.1352,-0.0319 -0.3111,-0.0693 -0.5277,-0.1122 -0.2172,-0.0421 -0.4169,-0.0883 -0.5994,-0.1385 -0.4778,-0.1344 -0.8252,-0.3429 -1.0413,-0.6251 -0.2169,-0.2817 -0.325,-0.6229 -0.3247,-1.0237 -3e-4,-0.5496 0.2147,-0.9977 0.6456,-1.344 0.4302,-0.3455 1.0022,-0.5184 1.7156,-0.5188 0.3506,4e-4 0.7035,0.0436 1.0589,0.1297 0.3547,0.0868 0.6529,0.1964 0.8947,0.329 v 1.1359 h -0.0571 c -0.277,-0.2312 -0.5852,-0.4144 -0.9248,-0.5489 -0.3404,-0.1341 -0.6834,-0.2011 -1.0289,-0.2015 -0.3569,4e-4 -0.6581,0.0722 -0.9036,0.2154 -0.2458,0.144 -0.3686,0.3609 -0.3686,0.6508 0,0.2572 0.0744,0.4492 0.2235,0.576 0.1488,0.1271 0.3884,0.2312 0.7189,0.3121 0.1572,0.0403 0.332,0.0796 0.524,0.1173 0.192,0.0385 0.3942,0.0828 0.6075,0.1334 0.4639,0.1125 0.8127,0.2993 1.0464,0.5606 0.2331,0.2616 0.35,0.6174 0.3503,1.0677 -3e-4,0.262 -0.0535,0.51 -0.159,0.7438 -0.1062,0.2341 -0.2612,0.4345 -0.4653,0.6016 -0.2232,0.1818 -0.4749,0.3199 -0.7548,0.4141 -0.2807,0.0941 -0.6324,0.141 -1.0553,0.1414 z"
         style="fill:#898a8c" />
      <path
         inkscape:connector-curvature="0"
         id="path5873"
         d="m 33.6443,519.6292 c -0.9912,-4e-4 -1.7602,-0.2726 -2.3069,-0.8178 -0.5474,-0.5449 -0.8208,-1.3195 -0.8208,-2.323 0,-0.9886 0.2638,-1.7753 0.7922,-2.3604 0.5276,-0.5845 1.2183,-0.8768 2.0717,-0.8772 0.3847,4e-4 0.7247,0.0542 1.02,0.1619 0.295,0.1081 0.5533,0.277 0.7754,0.5064 0.2213,0.2298 0.3913,0.5108 0.51,0.8435 0.118,0.3327 0.1773,0.7401 0.1773,1.2216 v 0.5496 h -4.3148 c -3e-4,0.6998 0.1829,1.234 0.5496,1.6034 0.3661,0.3693 0.8725,0.554 1.5184,0.554 0.2316,0 0.4588,-0.0257 0.6815,-0.0777 0.2228,-0.0513 0.4236,-0.1183 0.6024,-0.2008 0.1905,-0.0846 0.351,-0.1671 0.4822,-0.2469 0.1304,-0.0795 0.2389,-0.1543 0.3254,-0.225 h 0.0615 v 1.1725 c -0.1223,0.048 -0.274,0.1077 -0.4558,0.1788 -0.1817,0.0714 -0.3451,0.1271 -0.4895,0.1671 -0.2044,0.0546 -0.3891,0.0963 -0.554,0.126 -0.1656,0.029 -0.3741,0.0436 -0.6258,0.044 z m 1.1871,-3.8458 c -0.008,-0.2752 -0.0414,-0.513 -0.1004,-0.713 -0.0593,-0.1997 -0.1447,-0.3683 -0.2557,-0.5064 -0.1224,-0.1521 -0.2788,-0.2686 -0.469,-0.3488 -0.1909,-0.0799 -0.4269,-0.1198 -0.7079,-0.1202 -0.2777,4e-4 -0.5137,0.041 -0.7079,0.1224 -0.1949,0.0817 -0.3715,0.2008 -0.5306,0.3569 -0.1553,0.1604 -0.274,0.3374 -0.3554,0.5312 -0.0821,0.1942 -0.1341,0.4203 -0.1561,0.6779 z"
         style="fill:#898a8c" />
      <path
         inkscape:connector-curvature="0"
         id="path5875"
         d="m 39.2444,519.6292 c -0.4166,-4e-4 -0.8057,-0.0557 -1.1681,-0.1664 -0.3627,-0.1106 -0.6628,-0.2286 -0.8999,-0.3539 v -1.1681 h 0.0557 c 0.0909,0.0736 0.1972,0.1542 0.3195,0.2426 0.1217,0.0886 0.284,0.1813 0.4866,0.2777 0.1807,0.0854 0.3789,0.1605 0.5951,0.2257 0.2154,0.0656 0.4397,0.0986 0.6727,0.0982 0.1685,4e-4 0.3488,-0.0191 0.5408,-0.0579 0.1913,-0.0385 0.3342,-0.0872 0.428,-0.1458 0.1319,-0.0839 0.2268,-0.1737 0.285,-0.2697 0.0579,-0.0956 0.0869,-0.2389 0.0872,-0.4294 -3e-4,-0.2452 -0.0718,-0.4302 -0.2147,-0.5555 -0.1432,-0.125 -0.3975,-0.2294 -0.7628,-0.3136 -0.1352,-0.0319 -0.3111,-0.0693 -0.5277,-0.1122 -0.2172,-0.0421 -0.4169,-0.0883 -0.5994,-0.1385 -0.4778,-0.1344 -0.8252,-0.3429 -1.0413,-0.6251 -0.2169,-0.2817 -0.325,-0.6229 -0.3247,-1.0237 -3e-4,-0.5496 0.2147,-0.9977 0.6456,-1.344 0.4302,-0.3455 1.0022,-0.5184 1.7156,-0.5188 0.3506,4e-4 0.7035,0.0436 1.0589,0.1297 0.3547,0.0868 0.6529,0.1964 0.8947,0.329 v 1.1359 h -0.0571 c -0.277,-0.2312 -0.5852,-0.4144 -0.9248,-0.5489 -0.3404,-0.1341 -0.6834,-0.2011 -1.0289,-0.2015 -0.3569,4e-4 -0.6581,0.0722 -0.9036,0.2154 -0.2458,0.144 -0.3686,0.3609 -0.3686,0.6508 0,0.2572 0.0744,0.4492 0.2235,0.576 0.1488,0.1271 0.3884,0.2312 0.7189,0.3121 0.1572,0.0403 0.332,0.0796 0.524,0.1173 0.192,0.0385 0.3942,0.0828 0.6075,0.1334 0.4639,0.1125 0.8127,0.2993 1.0464,0.5606 0.2331,0.2616 0.35,0.6174 0.3503,1.0677 -3e-4,0.262 -0.0535,0.51 -0.159,0.7438 -0.1062,0.2341 -0.2612,0.4345 -0.4653,0.6016 -0.2232,0.1818 -0.4749,0.3199 -0.7548,0.4141 -0.2807,0.0941 -0.6324,0.141 -1.0553,0.1414 z"
         style="fill:#898a8c" />
    </g>
    <path
       inkscape:connector-curvature="0"
       id="path5879"
       d="m 0.1101565,260.28192 v 8.74406 H 16.614627 v -8.74406 z"
       style="fill:url(#grad57);stroke:#000000;stroke-width:0.12374563;stroke-miterlimit:4;stroke-opacity:0.23999999">
      <title
         id="title8704">Fes - 1</title>
    </path>
    <g
       transform="matrix(0.26458333,0,0,0.26458333,0.1100765,137.80482)"
       id="g5887">
      <path
         inkscape:connector-curvature="0"
         id="path5881"
         d="m 24.701,479.262 h -3.752 v 2.345 h 3.5644 v 0.938 H 20.949 v 3.9396 h -1.1256 v -8.1606 h 4.8776 z"
         style="fill:#898a8c" />
      <path
         inkscape:connector-curvature="0"
         id="path5883"
         d="m 28.0163,486.5784 c -0.9912,-4e-4 -1.7602,-0.2726 -2.3069,-0.8178 -0.5474,-0.5449 -0.8208,-1.3194 -0.8208,-2.323 0,-0.9886 0.2638,-1.7753 0.7922,-2.3604 0.5276,-0.5844 1.2183,-0.8768 2.0717,-0.8772 0.3847,4e-4 0.7247,0.0542 1.02,0.162 0.295,0.1081 0.5533,0.277 0.7754,0.5063 0.2213,0.2298 0.3913,0.5108 0.51,0.8435 0.118,0.3327 0.1773,0.7401 0.1773,1.2216 v 0.5496 h -4.3148 c -3e-4,0.6998 0.1829,1.2341 0.5496,1.6034 0.3661,0.3693 0.8725,0.554 1.5184,0.554 0.2316,0 0.4588,-0.0256 0.6815,-0.0777 0.2228,-0.0513 0.4236,-0.1183 0.6024,-0.2008 0.1905,-0.0846 0.351,-0.167 0.4822,-0.2469 0.1304,-0.0795 0.2389,-0.1543 0.3254,-0.225 h 0.0615 v 1.1725 c -0.1223,0.048 -0.274,0.1077 -0.4558,0.1788 -0.1817,0.0715 -0.3451,0.1272 -0.4895,0.1671 -0.2044,0.0546 -0.3891,0.0964 -0.554,0.126 -0.1656,0.029 -0.3741,0.0436 -0.6258,0.044 z m 1.1871,-3.8458 c -0.008,-0.2752 -0.0414,-0.513 -0.1004,-0.713 -0.0593,-0.1997 -0.1447,-0.3683 -0.2557,-0.5064 -0.1224,-0.152 -0.2788,-0.2686 -0.469,-0.3488 -0.1909,-0.0799 -0.4269,-0.1198 -0.7079,-0.1202 -0.2777,4e-4 -0.5137,0.041 -0.7079,0.1224 -0.1949,0.0817 -0.3715,0.2008 -0.5306,0.3569 -0.1553,0.1605 -0.274,0.3374 -0.3554,0.5313 -0.0821,0.1942 -0.1341,0.4202 -0.1561,0.6778 z"
         style="fill:#898a8c" />
      <path
         inkscape:connector-curvature="0"
         id="path5885"
         d="m 33.6164,486.5784 c -0.4166,-4e-4 -0.8057,-0.0557 -1.1681,-0.1663 -0.3627,-0.1107 -0.6628,-0.2287 -0.8999,-0.354 V 484.89 h 0.0557 c 0.0909,0.0737 0.1972,0.1543 0.3195,0.2426 0.1217,0.0886 0.284,0.1813 0.4866,0.2777 0.1807,0.0854 0.3789,0.1605 0.5951,0.2257 0.2154,0.0656 0.4397,0.0986 0.6727,0.0982 0.1685,4e-4 0.3488,-0.019 0.5408,-0.0579 0.1913,-0.0385 0.3342,-0.0872 0.428,-0.1458 0.1319,-0.0839 0.2268,-0.1737 0.285,-0.2697 0.0579,-0.0956 0.0869,-0.2389 0.0872,-0.4294 -3e-4,-0.2451 -0.0718,-0.4302 -0.2147,-0.5555 -0.1432,-0.1249 -0.3975,-0.2294 -0.7628,-0.3136 -0.1352,-0.0319 -0.3111,-0.0693 -0.5277,-0.1122 -0.2172,-0.0421 -0.4169,-0.0883 -0.5994,-0.1385 -0.4778,-0.1344 -0.8252,-0.3429 -1.0413,-0.625 -0.2169,-0.2818 -0.325,-0.6229 -0.3247,-1.0238 -3e-4,-0.5496 0.2147,-0.9977 0.6456,-1.344 0.4302,-0.3455 1.0022,-0.5184 1.7156,-0.5188 0.3506,4e-4 0.7035,0.0436 1.0589,0.1297 0.3547,0.0869 0.6529,0.1964 0.8947,0.3291 v 1.1358 h -0.0571 c -0.277,-0.2312 -0.5852,-0.4144 -0.9248,-0.5489 -0.3404,-0.1341 -0.6834,-0.2011 -1.0289,-0.2015 -0.3569,4e-4 -0.6581,0.0722 -0.9036,0.2155 -0.2458,0.144 -0.3686,0.3609 -0.3686,0.6507 0,0.2572 0.0744,0.4492 0.2235,0.576 0.1488,0.1271 0.3884,0.2312 0.7189,0.3122 0.1572,0.0403 0.332,0.0795 0.524,0.1172 0.192,0.0385 0.3942,0.0828 0.6075,0.1334 0.4639,0.1125 0.8127,0.2993 1.0464,0.5606 0.2331,0.2616 0.35,0.6174 0.3503,1.0677 -3e-4,0.262 -0.0535,0.51 -0.159,0.7438 -0.1062,0.2341 -0.2612,0.4346 -0.4653,0.6016 -0.2232,0.1818 -0.4749,0.3199 -0.7548,0.4141 -0.2807,0.0941 -0.6324,0.141 -1.0553,0.1414 z"
         style="fill:#898a8c" />
    </g>
  </g>
</svg>
